<svg width="298" height="25" viewBox="0 0 298 25" fill="none" xmlns="http://www.w3.org/2000/svg">
<path d="M0.753906 17.3125H2.63672C3.0638 17.3125 3.42448 17.3776 3.71875 17.5078C4.01562 17.638 4.24089 17.8307 4.39453 18.0859C4.55078 18.3385 4.62891 18.6497 4.62891 19.0195C4.62891 19.2799 4.57552 19.5182 4.46875 19.7344C4.36458 19.9479 4.21354 20.1302 4.01562 20.2812C3.82031 20.4297 3.58594 20.5404 3.3125 20.6133L3.10156 20.6953H1.33203L1.32422 20.082H2.66016C2.93099 20.082 3.15625 20.0352 3.33594 19.9414C3.51562 19.8451 3.65104 19.7161 3.74219 19.5547C3.83333 19.3932 3.87891 19.2148 3.87891 19.0195C3.87891 18.8008 3.83594 18.6094 3.75 18.4453C3.66406 18.2812 3.52865 18.1549 3.34375 18.0664C3.16146 17.9753 2.92578 17.9297 2.63672 17.9297H1.50781V23H0.753906V17.3125ZM4.07812 23L2.69531 20.4219L3.48047 20.418L4.88281 22.9531V23H4.07812ZM7.32812 23.0781C7.03385 23.0781 6.76693 23.0286 6.52734 22.9297C6.29036 22.8281 6.08594 22.6862 5.91406 22.5039C5.74479 22.3216 5.61458 22.1055 5.52344 21.8555C5.43229 21.6055 5.38672 21.332 5.38672 21.0352V20.8711C5.38672 20.5273 5.4375 20.2214 5.53906 19.9531C5.64062 19.6823 5.77865 19.4531 5.95312 19.2656C6.1276 19.0781 6.32552 18.9362 6.54688 18.8398C6.76823 18.7435 6.9974 18.6953 7.23438 18.6953C7.53646 18.6953 7.79688 18.7474 8.01562 18.8516C8.23698 18.9557 8.41797 19.1016 8.55859 19.2891C8.69922 19.474 8.80339 19.6927 8.87109 19.9453C8.9388 20.1953 8.97266 20.4688 8.97266 20.7656V21.0898H5.81641V20.5H8.25V20.4453C8.23958 20.2578 8.20052 20.0755 8.13281 19.8984C8.06771 19.7214 7.96354 19.5755 7.82031 19.4609C7.67708 19.3464 7.48177 19.2891 7.23438 19.2891C7.07031 19.2891 6.91927 19.3242 6.78125 19.3945C6.64323 19.4622 6.52474 19.5638 6.42578 19.6992C6.32682 19.8346 6.25 20 6.19531 20.1953C6.14062 20.3906 6.11328 20.6159 6.11328 20.8711V21.0352C6.11328 21.2357 6.14062 21.4245 6.19531 21.6016C6.2526 21.776 6.33464 21.9297 6.44141 22.0625C6.55078 22.1953 6.68229 22.2995 6.83594 22.375C6.99219 22.4505 7.16927 22.4883 7.36719 22.4883C7.6224 22.4883 7.83854 22.4362 8.01562 22.332C8.19271 22.2279 8.34766 22.0885 8.48047 21.9141L8.91797 22.2617C8.82682 22.3997 8.71094 22.5312 8.57031 22.6562C8.42969 22.7812 8.25651 22.8828 8.05078 22.9609C7.84766 23.0391 7.60677 23.0781 7.32812 23.0781ZM12.5547 18.7734H13.2109V22.9102C13.2109 23.2826 13.1354 23.6003 12.9844 23.8633C12.8333 24.1263 12.6224 24.3255 12.3516 24.4609C12.0833 24.599 11.7734 24.668 11.4219 24.668C11.276 24.668 11.1042 24.6445 10.9062 24.5977C10.7109 24.5534 10.5182 24.4766 10.3281 24.3672C10.1406 24.2604 9.98307 24.1159 9.85547 23.9336L10.2344 23.5039C10.4115 23.7174 10.5964 23.8659 10.7891 23.9492C10.9844 24.0326 11.1771 24.0742 11.3672 24.0742C11.5964 24.0742 11.7943 24.0312 11.9609 23.9453C12.1276 23.8594 12.2565 23.7318 12.3477 23.5625C12.4414 23.3958 12.4883 23.1901 12.4883 22.9453V19.7031L12.5547 18.7734ZM9.64453 20.9336V20.8516C9.64453 20.5286 9.68229 20.2357 9.75781 19.9727C9.83594 19.707 9.94661 19.4792 10.0898 19.2891C10.2357 19.099 10.4115 18.9531 10.6172 18.8516C10.8229 18.7474 11.0547 18.6953 11.3125 18.6953C11.5781 18.6953 11.8099 18.7422 12.0078 18.8359C12.2083 18.9271 12.3776 19.0612 12.5156 19.2383C12.6562 19.4128 12.7669 19.6237 12.8477 19.8711C12.9284 20.1185 12.9844 20.3984 13.0156 20.7109V21.0703C12.987 21.3802 12.931 21.6589 12.8477 21.9062C12.7669 22.1536 12.6562 22.3646 12.5156 22.5391C12.3776 22.7135 12.2083 22.8477 12.0078 22.9414C11.8073 23.0326 11.5729 23.0781 11.3047 23.0781C11.0521 23.0781 10.8229 23.0247 10.6172 22.918C10.4141 22.8112 10.2396 22.6615 10.0938 22.4688C9.94792 22.276 9.83594 22.0495 9.75781 21.7891C9.68229 21.526 9.64453 21.2409 9.64453 20.9336ZM10.3672 20.8516V20.9336C10.3672 21.1445 10.388 21.3424 10.4297 21.5273C10.474 21.7122 10.5404 21.875 10.6289 22.0156C10.7201 22.1562 10.8359 22.2669 10.9766 22.3477C11.1172 22.4258 11.2852 22.4648 11.4805 22.4648C11.7201 22.4648 11.918 22.4141 12.0742 22.3125C12.2305 22.2109 12.3542 22.0768 12.4453 21.9102C12.5391 21.7435 12.612 21.5625 12.6641 21.3672V20.4258C12.6354 20.2826 12.5911 20.1445 12.5312 20.0117C12.474 19.8763 12.3984 19.7565 12.3047 19.6523C12.2135 19.5456 12.1003 19.4609 11.9648 19.3984C11.8294 19.3359 11.6706 19.3047 11.4883 19.3047C11.2904 19.3047 11.1198 19.3464 10.9766 19.4297C10.8359 19.5104 10.7201 19.6224 10.6289 19.7656C10.5404 19.9062 10.474 20.0703 10.4297 20.2578C10.388 20.4427 10.3672 20.6406 10.3672 20.8516ZM15.0938 18.7734V23H14.3672V18.7734H15.0938ZM14.3125 17.6523C14.3125 17.5352 14.3477 17.4362 14.418 17.3555C14.4909 17.2747 14.5977 17.2344 14.7383 17.2344C14.8763 17.2344 14.9818 17.2747 15.0547 17.3555C15.1302 17.4362 15.168 17.5352 15.168 17.6523C15.168 17.7643 15.1302 17.8607 15.0547 17.9414C14.9818 18.0195 14.8763 18.0586 14.7383 18.0586C14.5977 18.0586 14.4909 18.0195 14.418 17.9414C14.3477 17.8607 14.3125 17.7643 14.3125 17.6523ZM18.7148 21.8789C18.7148 21.7747 18.6914 21.6784 18.6445 21.5898C18.6003 21.4987 18.5078 21.4167 18.3672 21.3438C18.2292 21.2682 18.0208 21.2031 17.7422 21.1484C17.5078 21.099 17.2956 21.0404 17.1055 20.9727C16.918 20.9049 16.7578 20.8229 16.625 20.7266C16.4948 20.6302 16.3945 20.5169 16.3242 20.3867C16.2539 20.2565 16.2188 20.1042 16.2188 19.9297C16.2188 19.763 16.2552 19.6055 16.3281 19.457C16.4036 19.3086 16.5091 19.1771 16.6445 19.0625C16.7826 18.9479 16.9479 18.8581 17.1406 18.793C17.3333 18.7279 17.5482 18.6953 17.7852 18.6953C18.1237 18.6953 18.4128 18.7552 18.6523 18.875C18.8919 18.9948 19.0755 19.1549 19.2031 19.3555C19.3307 19.5534 19.3945 19.7734 19.3945 20.0156H18.6719C18.6719 19.8984 18.6367 19.7852 18.5664 19.6758C18.4987 19.5638 18.3984 19.4714 18.2656 19.3984C18.1354 19.3255 17.9753 19.2891 17.7852 19.2891C17.5846 19.2891 17.4219 19.3203 17.2969 19.3828C17.1745 19.4427 17.0846 19.5195 17.0273 19.6133C16.9727 19.707 16.9453 19.806 16.9453 19.9102C16.9453 19.9883 16.9583 20.0586 16.9844 20.1211C17.013 20.181 17.0625 20.237 17.1328 20.2891C17.2031 20.3385 17.3021 20.3854 17.4297 20.4297C17.5573 20.474 17.7201 20.5182 17.918 20.5625C18.2643 20.6406 18.5495 20.7344 18.7734 20.8438C18.9974 20.9531 19.1641 21.0872 19.2734 21.2461C19.3828 21.4049 19.4375 21.5977 19.4375 21.8242C19.4375 22.0091 19.3984 22.1784 19.3203 22.332C19.2448 22.4857 19.1341 22.6185 18.9883 22.7305C18.8451 22.8398 18.6732 22.9258 18.4727 22.9883C18.2747 23.0482 18.0521 23.0781 17.8047 23.0781C17.4323 23.0781 17.1172 23.0117 16.8594 22.8789C16.6016 22.7461 16.4062 22.5742 16.2734 22.3633C16.1406 22.1523 16.0742 21.9297 16.0742 21.6953H16.8008C16.8112 21.8932 16.8685 22.0508 16.9727 22.168C17.0768 22.2826 17.2044 22.3646 17.3555 22.4141C17.5065 22.4609 17.6562 22.4844 17.8047 22.4844C18.0026 22.4844 18.168 22.4583 18.3008 22.4062C18.4362 22.3542 18.5391 22.2826 18.6094 22.1914C18.6797 22.1003 18.7148 21.9961 18.7148 21.8789ZM22.1562 18.7734V19.3281H19.8711V18.7734H22.1562ZM20.6445 17.7461H21.3672V21.9531C21.3672 22.0964 21.3893 22.2044 21.4336 22.2773C21.4779 22.3503 21.5352 22.3984 21.6055 22.4219C21.6758 22.4453 21.7513 22.457 21.832 22.457C21.8919 22.457 21.9544 22.4518 22.0195 22.4414C22.0872 22.4284 22.138 22.418 22.1719 22.4102L22.1758 23C22.1185 23.0182 22.043 23.0352 21.9492 23.0508C21.8581 23.069 21.7474 23.0781 21.6172 23.0781C21.4401 23.0781 21.2773 23.043 21.1289 22.9727C20.9805 22.9023 20.862 22.7852 20.7734 22.6211C20.6875 22.4544 20.6445 22.2305 20.6445 21.9492V17.7461ZM23.7266 19.4375V23H23.0039V18.7734H23.707L23.7266 19.4375ZM25.0469 18.75L25.043 19.4219C24.9831 19.4089 24.9258 19.401 24.8711 19.3984C24.819 19.3932 24.7591 19.3906 24.6914 19.3906C24.5247 19.3906 24.3776 19.4167 24.25 19.4688C24.1224 19.5208 24.0143 19.5938 23.9258 19.6875C23.8372 19.7812 23.7669 19.8932 23.7148 20.0234C23.6654 20.151 23.6328 20.2917 23.6172 20.4453L23.4141 20.5625C23.4141 20.3073 23.4388 20.0677 23.4883 19.8438C23.5404 19.6198 23.6198 19.4219 23.7266 19.25C23.8333 19.0755 23.9688 18.9401 24.1328 18.8438C24.2995 18.7448 24.4974 18.6953 24.7266 18.6953C24.7786 18.6953 24.8385 18.7018 24.9062 18.7148C24.974 18.7253 25.0208 18.737 25.0469 18.75ZM28.0508 22.2773V20.1016C28.0508 19.9349 28.0169 19.7904 27.9492 19.668C27.8841 19.543 27.7852 19.4466 27.6523 19.3789C27.5195 19.3112 27.3555 19.2773 27.1602 19.2773C26.9779 19.2773 26.8177 19.3086 26.6797 19.3711C26.5443 19.4336 26.4375 19.5156 26.3594 19.6172C26.2839 19.7188 26.2461 19.8281 26.2461 19.9453H25.5234C25.5234 19.7943 25.5625 19.6445 25.6406 19.4961C25.7188 19.3477 25.8307 19.2135 25.9766 19.0938C26.125 18.9714 26.3021 18.875 26.5078 18.8047C26.7161 18.7318 26.9479 18.6953 27.2031 18.6953C27.5104 18.6953 27.7812 18.7474 28.0156 18.8516C28.2526 18.9557 28.4375 19.1133 28.5703 19.3242C28.7057 19.5326 28.7734 19.7943 28.7734 20.1094V22.0781C28.7734 22.2188 28.7852 22.3685 28.8086 22.5273C28.8346 22.6862 28.8724 22.8229 28.9219 22.9375V23H28.168C28.1315 22.9167 28.1029 22.806 28.082 22.668C28.0612 22.5273 28.0508 22.3971 28.0508 22.2773ZM28.1758 20.4375L28.1836 20.9453H27.4531C27.2474 20.9453 27.0638 20.9622 26.9023 20.9961C26.7409 21.0273 26.6055 21.0755 26.4961 21.1406C26.3867 21.2057 26.3034 21.2878 26.2461 21.3867C26.1888 21.4831 26.1602 21.5964 26.1602 21.7266C26.1602 21.8594 26.1901 21.9805 26.25 22.0898C26.3099 22.1992 26.3997 22.2865 26.5195 22.3516C26.6419 22.4141 26.7917 22.4453 26.9688 22.4453C27.1901 22.4453 27.3854 22.3984 27.5547 22.3047C27.724 22.2109 27.8581 22.0964 27.957 21.9609C28.0586 21.8255 28.1133 21.694 28.1211 21.5664L28.4297 21.9141C28.4115 22.0234 28.362 22.1445 28.2812 22.2773C28.2005 22.4102 28.0924 22.5378 27.957 22.6602C27.8242 22.7799 27.6654 22.8802 27.4805 22.9609C27.2982 23.0391 27.0924 23.0781 26.8633 23.0781C26.5768 23.0781 26.3255 23.0221 26.1094 22.9102C25.8958 22.7982 25.7292 22.6484 25.6094 22.4609C25.4922 22.2708 25.4336 22.0586 25.4336 21.8242C25.4336 21.5977 25.4779 21.3984 25.5664 21.2266C25.6549 21.0521 25.7826 20.9076 25.9492 20.793C26.1159 20.6758 26.3164 20.5872 26.5508 20.5273C26.7852 20.4674 27.0469 20.4375 27.3359 20.4375H28.1758ZM31.6797 18.7734V19.3281H29.3945V18.7734H31.6797ZM30.168 17.7461H30.8906V21.9531C30.8906 22.0964 30.9128 22.2044 30.957 22.2773C31.0013 22.3503 31.0586 22.3984 31.1289 22.4219C31.1992 22.4453 31.2747 22.457 31.3555 22.457C31.4154 22.457 31.4779 22.4518 31.543 22.4414C31.6107 22.4284 31.6615 22.418 31.6953 22.4102L31.6992 23C31.6419 23.0182 31.5664 23.0352 31.4727 23.0508C31.3815 23.069 31.2708 23.0781 31.1406 23.0781C30.9635 23.0781 30.8008 23.043 30.6523 22.9727C30.5039 22.9023 30.3854 22.7852 30.2969 22.6211C30.2109 22.4544 30.168 22.2305 30.168 21.9492V17.7461ZM33.3125 18.7734V23H32.5859V18.7734H33.3125ZM32.5312 17.6523C32.5312 17.5352 32.5664 17.4362 32.6367 17.3555C32.7096 17.2747 32.8164 17.2344 32.957 17.2344C33.0951 17.2344 33.2005 17.2747 33.2734 17.3555C33.349 17.4362 33.3867 17.5352 33.3867 17.6523C33.3867 17.7643 33.349 17.8607 33.2734 17.9414C33.2005 18.0195 33.0951 18.0586 32.957 18.0586C32.8164 18.0586 32.7096 18.0195 32.6367 17.9414C32.5664 17.8607 32.5312 17.7643 32.5312 17.6523ZM34.2812 20.9336V20.8438C34.2812 20.5391 34.3255 20.2565 34.4141 19.9961C34.5026 19.7331 34.6302 19.5052 34.7969 19.3125C34.9635 19.1172 35.1654 18.9661 35.4023 18.8594C35.6393 18.75 35.9049 18.6953 36.1992 18.6953C36.4961 18.6953 36.763 18.75 37 18.8594C37.2396 18.9661 37.4427 19.1172 37.6094 19.3125C37.7786 19.5052 37.9076 19.7331 37.9961 19.9961C38.0846 20.2565 38.1289 20.5391 38.1289 20.8438V20.9336C38.1289 21.2383 38.0846 21.5208 37.9961 21.7812C37.9076 22.0417 37.7786 22.2695 37.6094 22.4648C37.4427 22.6576 37.2409 22.8086 37.0039 22.918C36.7695 23.0247 36.5039 23.0781 36.207 23.0781C35.9102 23.0781 35.6432 23.0247 35.4062 22.918C35.1693 22.8086 34.9661 22.6576 34.7969 22.4648C34.6302 22.2695 34.5026 22.0417 34.4141 21.7812C34.3255 21.5208 34.2812 21.2383 34.2812 20.9336ZM35.0039 20.8438V20.9336C35.0039 21.1445 35.0286 21.3438 35.0781 21.5312C35.1276 21.7161 35.2018 21.8802 35.3008 22.0234C35.4023 22.1667 35.5286 22.2799 35.6797 22.3633C35.8307 22.444 36.0065 22.4844 36.207 22.4844C36.4049 22.4844 36.5781 22.444 36.7266 22.3633C36.8776 22.2799 37.0026 22.1667 37.1016 22.0234C37.2005 21.8802 37.2747 21.7161 37.3242 21.5312C37.3763 21.3438 37.4023 21.1445 37.4023 20.9336V20.8438C37.4023 20.6354 37.3763 20.4388 37.3242 20.2539C37.2747 20.0664 37.1992 19.901 37.0977 19.7578C36.9987 19.612 36.8737 19.4974 36.7227 19.4141C36.5742 19.3307 36.3997 19.2891 36.1992 19.2891C36.0013 19.2891 35.8268 19.3307 35.6758 19.4141C35.5273 19.4974 35.4023 19.612 35.3008 19.7578C35.2018 19.901 35.1276 20.0664 35.0781 20.2539C35.0286 20.4388 35.0039 20.6354 35.0039 20.8438ZM39.7578 19.6758V23H39.0352V18.7734H39.7188L39.7578 19.6758ZM39.5859 20.7266L39.2852 20.7148C39.2878 20.4258 39.3307 20.1589 39.4141 19.9141C39.4974 19.6667 39.6146 19.4518 39.7656 19.2695C39.9167 19.0872 40.0964 18.9466 40.3047 18.8477C40.5156 18.7461 40.7487 18.6953 41.0039 18.6953C41.2122 18.6953 41.3997 18.724 41.5664 18.7812C41.7331 18.8359 41.875 18.9245 41.9922 19.0469C42.112 19.1693 42.2031 19.3281 42.2656 19.5234C42.3281 19.7161 42.3594 19.9518 42.3594 20.2305V23H41.6328V20.2227C41.6328 20.0013 41.6003 19.8242 41.5352 19.6914C41.4701 19.556 41.375 19.4583 41.25 19.3984C41.125 19.3359 40.9714 19.3047 40.7891 19.3047C40.6094 19.3047 40.4453 19.3424 40.2969 19.418C40.151 19.4935 40.0247 19.5977 39.918 19.7305C39.8138 19.8633 39.7318 20.0156 39.6719 20.1875C39.6146 20.3568 39.5859 20.5365 39.5859 20.7266Z" fill="#FFA142"/>
<path d="M77.3711 22.3867V23H74.3594V22.3867H77.3711ZM74.5117 17.3125V23H73.7578V17.3125H74.5117ZM76.9727 19.7578V20.3711H74.3594V19.7578H76.9727ZM77.332 17.3125V17.9297H74.3594V17.3125H77.332ZM78.9141 19.6133V23H78.1875V18.7734H78.875L78.9141 19.6133ZM78.7656 20.7266L78.4297 20.7148C78.4323 20.4258 78.4701 20.1589 78.543 19.9141C78.6159 19.6667 78.724 19.4518 78.8672 19.2695C79.0104 19.0872 79.1888 18.9466 79.4023 18.8477C79.6159 18.7461 79.8633 18.6953 80.1445 18.6953C80.3424 18.6953 80.5247 18.724 80.6914 18.7812C80.8581 18.8359 81.0026 18.9232 81.125 19.043C81.2474 19.1628 81.3424 19.3164 81.4102 19.5039C81.4779 19.6914 81.5117 19.918 81.5117 20.1836V23H80.7891V20.2188C80.7891 19.9974 80.7513 19.8203 80.6758 19.6875C80.6029 19.5547 80.4987 19.4583 80.3633 19.3984C80.2279 19.3359 80.069 19.3047 79.8867 19.3047C79.6732 19.3047 79.4948 19.3424 79.3516 19.418C79.2083 19.4935 79.0938 19.5977 79.0078 19.7305C78.9219 19.8633 78.8594 20.0156 78.8203 20.1875C78.7839 20.3568 78.7656 20.5365 78.7656 20.7266ZM81.5039 20.3281L81.0195 20.4766C81.0221 20.2448 81.0599 20.0221 81.1328 19.8086C81.2083 19.5951 81.3164 19.4049 81.457 19.2383C81.6003 19.0716 81.776 18.9401 81.9844 18.8438C82.1927 18.7448 82.431 18.6953 82.6992 18.6953C82.9258 18.6953 83.1263 18.7253 83.3008 18.7852C83.4779 18.8451 83.6263 18.9375 83.7461 19.0625C83.8685 19.1849 83.9609 19.3424 84.0234 19.5352C84.0859 19.7279 84.1172 19.957 84.1172 20.2227V23H83.3906V20.2148C83.3906 19.9779 83.3529 19.7943 83.2773 19.6641C83.2044 19.5312 83.1003 19.4388 82.9648 19.3867C82.832 19.332 82.6732 19.3047 82.4883 19.3047C82.3294 19.3047 82.1888 19.332 82.0664 19.3867C81.944 19.4414 81.8411 19.5169 81.7578 19.6133C81.6745 19.707 81.6107 19.8151 81.5664 19.9375C81.5247 20.0599 81.5039 20.1901 81.5039 20.3281ZM87.7031 22.2773V20.1016C87.7031 19.9349 87.6693 19.7904 87.6016 19.668C87.5365 19.543 87.4375 19.4466 87.3047 19.3789C87.1719 19.3112 87.0078 19.2773 86.8125 19.2773C86.6302 19.2773 86.4701 19.3086 86.332 19.3711C86.1966 19.4336 86.0898 19.5156 86.0117 19.6172C85.9362 19.7188 85.8984 19.8281 85.8984 19.9453H85.1758C85.1758 19.7943 85.2148 19.6445 85.293 19.4961C85.3711 19.3477 85.4831 19.2135 85.6289 19.0938C85.7773 18.9714 85.9544 18.875 86.1602 18.8047C86.3685 18.7318 86.6003 18.6953 86.8555 18.6953C87.1628 18.6953 87.4336 18.7474 87.668 18.8516C87.9049 18.9557 88.0898 19.1133 88.2227 19.3242C88.3581 19.5326 88.4258 19.7943 88.4258 20.1094V22.0781C88.4258 22.2188 88.4375 22.3685 88.4609 22.5273C88.487 22.6862 88.5247 22.8229 88.5742 22.9375V23H87.8203C87.7839 22.9167 87.7552 22.806 87.7344 22.668C87.7135 22.5273 87.7031 22.3971 87.7031 22.2773ZM87.8281 20.4375L87.8359 20.9453H87.1055C86.8997 20.9453 86.7161 20.9622 86.5547 20.9961C86.3932 21.0273 86.2578 21.0755 86.1484 21.1406C86.0391 21.2057 85.9557 21.2878 85.8984 21.3867C85.8411 21.4831 85.8125 21.5964 85.8125 21.7266C85.8125 21.8594 85.8424 21.9805 85.9023 22.0898C85.9622 22.1992 86.0521 22.2865 86.1719 22.3516C86.2943 22.4141 86.444 22.4453 86.6211 22.4453C86.8424 22.4453 87.0378 22.3984 87.207 22.3047C87.3763 22.2109 87.5104 22.0964 87.6094 21.9609C87.7109 21.8255 87.7656 21.694 87.7734 21.5664L88.082 21.9141C88.0638 22.0234 88.0143 22.1445 87.9336 22.2773C87.8529 22.4102 87.7448 22.5378 87.6094 22.6602C87.4766 22.7799 87.3177 22.8802 87.1328 22.9609C86.9505 23.0391 86.7448 23.0781 86.5156 23.0781C86.2292 23.0781 85.9779 23.0221 85.7617 22.9102C85.5482 22.7982 85.3815 22.6484 85.2617 22.4609C85.1445 22.2708 85.0859 22.0586 85.0859 21.8242C85.0859 21.5977 85.1302 21.3984 85.2188 21.2266C85.3073 21.0521 85.4349 20.9076 85.6016 20.793C85.7682 20.6758 85.9688 20.5872 86.2031 20.5273C86.4375 20.4674 86.6992 20.4375 86.9883 20.4375H87.8281ZM90.3477 18.7734V23H89.6211V18.7734H90.3477ZM89.5664 17.6523C89.5664 17.5352 89.6016 17.4362 89.6719 17.3555C89.7448 17.2747 89.8516 17.2344 89.9922 17.2344C90.1302 17.2344 90.2357 17.2747 90.3086 17.3555C90.3841 17.4362 90.4219 17.5352 90.4219 17.6523C90.4219 17.7643 90.3841 17.8607 90.3086 17.9414C90.2357 18.0195 90.1302 18.0586 89.9922 18.0586C89.8516 18.0586 89.7448 18.0195 89.6719 17.9414C89.6016 17.8607 89.5664 17.7643 89.5664 17.6523ZM92.293 17V23H91.5664V17H92.293Z" fill="#FFA142"/>
<path d="M137.16 21.1914H137.91C137.871 21.5508 137.768 21.8724 137.602 22.1562C137.435 22.4401 137.199 22.6654 136.895 22.832C136.59 22.9961 136.21 23.0781 135.754 23.0781C135.421 23.0781 135.117 23.0156 134.844 22.8906C134.573 22.7656 134.34 22.5885 134.145 22.3594C133.949 22.1276 133.798 21.8503 133.691 21.5273C133.587 21.2018 133.535 20.8398 133.535 20.4414V19.875C133.535 19.4766 133.587 19.1159 133.691 18.793C133.798 18.4674 133.951 18.1888 134.148 17.957C134.349 17.7253 134.59 17.5469 134.871 17.4219C135.152 17.2969 135.469 17.2344 135.82 17.2344C136.25 17.2344 136.613 17.3151 136.91 17.4766C137.207 17.638 137.438 17.862 137.602 18.1484C137.768 18.4323 137.871 18.7617 137.91 19.1367H137.16C137.124 18.8711 137.056 18.6432 136.957 18.4531C136.858 18.2604 136.717 18.112 136.535 18.0078C136.353 17.9036 136.115 17.8516 135.82 17.8516C135.568 17.8516 135.345 17.8997 135.152 17.9961C134.962 18.0924 134.802 18.2292 134.672 18.4062C134.544 18.5833 134.448 18.7956 134.383 19.043C134.318 19.2904 134.285 19.5651 134.285 19.8672V20.4414C134.285 20.7201 134.314 20.9818 134.371 21.2266C134.431 21.4714 134.521 21.6862 134.641 21.8711C134.76 22.056 134.913 22.2018 135.098 22.3086C135.283 22.4128 135.501 22.4648 135.754 22.4648C136.074 22.4648 136.329 22.4141 136.52 22.3125C136.71 22.2109 136.853 22.0651 136.949 21.875C137.048 21.6849 137.118 21.457 137.16 21.1914ZM139.551 17V23H138.828V17H139.551ZM139.379 20.7266L139.078 20.7148C139.081 20.4258 139.124 20.1589 139.207 19.9141C139.29 19.6667 139.408 19.4518 139.559 19.2695C139.71 19.0872 139.889 18.9466 140.098 18.8477C140.309 18.7461 140.542 18.6953 140.797 18.6953C141.005 18.6953 141.193 18.724 141.359 18.7812C141.526 18.8359 141.668 18.9245 141.785 19.0469C141.905 19.1693 141.996 19.3281 142.059 19.5234C142.121 19.7161 142.152 19.9518 142.152 20.2305V23H141.426V20.2227C141.426 20.0013 141.393 19.8242 141.328 19.6914C141.263 19.556 141.168 19.4583 141.043 19.3984C140.918 19.3359 140.764 19.3047 140.582 19.3047C140.402 19.3047 140.238 19.3424 140.09 19.418C139.944 19.4935 139.818 19.5977 139.711 19.7305C139.607 19.8633 139.525 20.0156 139.465 20.1875C139.408 20.3568 139.379 20.5365 139.379 20.7266ZM143.043 20.9336V20.8438C143.043 20.5391 143.087 20.2565 143.176 19.9961C143.264 19.7331 143.392 19.5052 143.559 19.3125C143.725 19.1172 143.927 18.9661 144.164 18.8594C144.401 18.75 144.667 18.6953 144.961 18.6953C145.258 18.6953 145.525 18.75 145.762 18.8594C146.001 18.9661 146.204 19.1172 146.371 19.3125C146.54 19.5052 146.669 19.7331 146.758 19.9961C146.846 20.2565 146.891 20.5391 146.891 20.8438V20.9336C146.891 21.2383 146.846 21.5208 146.758 21.7812C146.669 22.0417 146.54 22.2695 146.371 22.4648C146.204 22.6576 146.003 22.8086 145.766 22.918C145.531 23.0247 145.266 23.0781 144.969 23.0781C144.672 23.0781 144.405 23.0247 144.168 22.918C143.931 22.8086 143.728 22.6576 143.559 22.4648C143.392 22.2695 143.264 22.0417 143.176 21.7812C143.087 21.5208 143.043 21.2383 143.043 20.9336ZM143.766 20.8438V20.9336C143.766 21.1445 143.79 21.3438 143.84 21.5312C143.889 21.7161 143.964 21.8802 144.062 22.0234C144.164 22.1667 144.29 22.2799 144.441 22.3633C144.592 22.444 144.768 22.4844 144.969 22.4844C145.167 22.4844 145.34 22.444 145.488 22.3633C145.639 22.2799 145.764 22.1667 145.863 22.0234C145.962 21.8802 146.036 21.7161 146.086 21.5312C146.138 21.3438 146.164 21.1445 146.164 20.9336V20.8438C146.164 20.6354 146.138 20.4388 146.086 20.2539C146.036 20.0664 145.961 19.901 145.859 19.7578C145.76 19.612 145.635 19.4974 145.484 19.4141C145.336 19.3307 145.161 19.2891 144.961 19.2891C144.763 19.2891 144.589 19.3307 144.438 19.4141C144.289 19.4974 144.164 19.612 144.062 19.7578C143.964 19.901 143.889 20.0664 143.84 20.2539C143.79 20.4388 143.766 20.6354 143.766 20.8438ZM147.605 20.9336V20.8438C147.605 20.5391 147.65 20.2565 147.738 19.9961C147.827 19.7331 147.954 19.5052 148.121 19.3125C148.288 19.1172 148.49 18.9661 148.727 18.8594C148.964 18.75 149.229 18.6953 149.523 18.6953C149.82 18.6953 150.087 18.75 150.324 18.8594C150.564 18.9661 150.767 19.1172 150.934 19.3125C151.103 19.5052 151.232 19.7331 151.32 19.9961C151.409 20.2565 151.453 20.5391 151.453 20.8438V20.9336C151.453 21.2383 151.409 21.5208 151.32 21.7812C151.232 22.0417 151.103 22.2695 150.934 22.4648C150.767 22.6576 150.565 22.8086 150.328 22.918C150.094 23.0247 149.828 23.0781 149.531 23.0781C149.234 23.0781 148.967 23.0247 148.73 22.918C148.493 22.8086 148.29 22.6576 148.121 22.4648C147.954 22.2695 147.827 22.0417 147.738 21.7812C147.65 21.5208 147.605 21.2383 147.605 20.9336ZM148.328 20.8438V20.9336C148.328 21.1445 148.353 21.3438 148.402 21.5312C148.452 21.7161 148.526 21.8802 148.625 22.0234C148.727 22.1667 148.853 22.2799 149.004 22.3633C149.155 22.444 149.331 22.4844 149.531 22.4844C149.729 22.4844 149.902 22.444 150.051 22.3633C150.202 22.2799 150.327 22.1667 150.426 22.0234C150.525 21.8802 150.599 21.7161 150.648 21.5312C150.701 21.3438 150.727 21.1445 150.727 20.9336V20.8438C150.727 20.6354 150.701 20.4388 150.648 20.2539C150.599 20.0664 150.523 19.901 150.422 19.7578C150.323 19.612 150.198 19.4974 150.047 19.4141C149.898 19.3307 149.724 19.2891 149.523 19.2891C149.326 19.2891 149.151 19.3307 149 19.4141C148.852 19.4974 148.727 19.612 148.625 19.7578C148.526 19.901 148.452 20.0664 148.402 20.2539C148.353 20.4388 148.328 20.6354 148.328 20.8438ZM154.82 21.8789C154.82 21.7747 154.797 21.6784 154.75 21.5898C154.706 21.4987 154.613 21.4167 154.473 21.3438C154.335 21.2682 154.126 21.2031 153.848 21.1484C153.613 21.099 153.401 21.0404 153.211 20.9727C153.023 20.9049 152.863 20.8229 152.73 20.7266C152.6 20.6302 152.5 20.5169 152.43 20.3867C152.359 20.2565 152.324 20.1042 152.324 19.9297C152.324 19.763 152.361 19.6055 152.434 19.457C152.509 19.3086 152.615 19.1771 152.75 19.0625C152.888 18.9479 153.053 18.8581 153.246 18.793C153.439 18.7279 153.654 18.6953 153.891 18.6953C154.229 18.6953 154.518 18.7552 154.758 18.875C154.997 18.9948 155.181 19.1549 155.309 19.3555C155.436 19.5534 155.5 19.7734 155.5 20.0156H154.777C154.777 19.8984 154.742 19.7852 154.672 19.6758C154.604 19.5638 154.504 19.4714 154.371 19.3984C154.241 19.3255 154.081 19.2891 153.891 19.2891C153.69 19.2891 153.527 19.3203 153.402 19.3828C153.28 19.4427 153.19 19.5195 153.133 19.6133C153.078 19.707 153.051 19.806 153.051 19.9102C153.051 19.9883 153.064 20.0586 153.09 20.1211C153.118 20.181 153.168 20.237 153.238 20.2891C153.309 20.3385 153.408 20.3854 153.535 20.4297C153.663 20.474 153.826 20.5182 154.023 20.5625C154.37 20.6406 154.655 20.7344 154.879 20.8438C155.103 20.9531 155.27 21.0872 155.379 21.2461C155.488 21.4049 155.543 21.5977 155.543 21.8242C155.543 22.0091 155.504 22.1784 155.426 22.332C155.35 22.4857 155.24 22.6185 155.094 22.7305C154.951 22.8398 154.779 22.9258 154.578 22.9883C154.38 23.0482 154.158 23.0781 153.91 23.0781C153.538 23.0781 153.223 23.0117 152.965 22.8789C152.707 22.7461 152.512 22.5742 152.379 22.3633C152.246 22.1523 152.18 21.9297 152.18 21.6953H152.906C152.917 21.8932 152.974 22.0508 153.078 22.168C153.182 22.2826 153.31 22.3646 153.461 22.4141C153.612 22.4609 153.762 22.4844 153.91 22.4844C154.108 22.4844 154.273 22.4583 154.406 22.4062C154.542 22.3542 154.645 22.2826 154.715 22.1914C154.785 22.1003 154.82 21.9961 154.82 21.8789ZM158.246 23.0781C157.952 23.0781 157.685 23.0286 157.445 22.9297C157.208 22.8281 157.004 22.6862 156.832 22.5039C156.663 22.3216 156.533 22.1055 156.441 21.8555C156.35 21.6055 156.305 21.332 156.305 21.0352V20.8711C156.305 20.5273 156.355 20.2214 156.457 19.9531C156.559 19.6823 156.697 19.4531 156.871 19.2656C157.046 19.0781 157.243 18.9362 157.465 18.8398C157.686 18.7435 157.915 18.6953 158.152 18.6953C158.454 18.6953 158.715 18.7474 158.934 18.8516C159.155 18.9557 159.336 19.1016 159.477 19.2891C159.617 19.474 159.721 19.6927 159.789 19.9453C159.857 20.1953 159.891 20.4688 159.891 20.7656V21.0898H156.734V20.5H159.168V20.4453C159.158 20.2578 159.118 20.0755 159.051 19.8984C158.986 19.7214 158.882 19.5755 158.738 19.4609C158.595 19.3464 158.4 19.2891 158.152 19.2891C157.988 19.2891 157.837 19.3242 157.699 19.3945C157.561 19.4622 157.443 19.5638 157.344 19.6992C157.245 19.8346 157.168 20 157.113 20.1953C157.059 20.3906 157.031 20.6159 157.031 20.8711V21.0352C157.031 21.2357 157.059 21.4245 157.113 21.6016C157.171 21.776 157.253 21.9297 157.359 22.0625C157.469 22.1953 157.6 22.2995 157.754 22.375C157.91 22.4505 158.087 22.4883 158.285 22.4883C158.54 22.4883 158.757 22.4362 158.934 22.332C159.111 22.2279 159.266 22.0885 159.398 21.9141L159.836 22.2617C159.745 22.3997 159.629 22.5312 159.488 22.6562C159.348 22.7812 159.174 22.8828 158.969 22.9609C158.766 23.0391 158.525 23.0781 158.246 23.0781ZM164.926 20.7695H163.406V20.1562H164.926C165.22 20.1562 165.458 20.1094 165.641 20.0156C165.823 19.9219 165.956 19.7917 166.039 19.625C166.125 19.4583 166.168 19.2682 166.168 19.0547C166.168 18.8594 166.125 18.6758 166.039 18.5039C165.956 18.332 165.823 18.194 165.641 18.0898C165.458 17.9831 165.22 17.9297 164.926 17.9297H163.582V23H162.828V17.3125H164.926C165.355 17.3125 165.719 17.3867 166.016 17.5352C166.312 17.6836 166.538 17.8893 166.691 18.1523C166.845 18.4128 166.922 18.7109 166.922 19.0469C166.922 19.4115 166.845 19.7227 166.691 19.9805C166.538 20.2383 166.312 20.4349 166.016 20.5703C165.719 20.7031 165.355 20.7695 164.926 20.7695ZM168.551 17V23H167.824V17H168.551ZM172.203 22.2773V20.1016C172.203 19.9349 172.169 19.7904 172.102 19.668C172.036 19.543 171.938 19.4466 171.805 19.3789C171.672 19.3112 171.508 19.2773 171.312 19.2773C171.13 19.2773 170.97 19.3086 170.832 19.3711C170.697 19.4336 170.59 19.5156 170.512 19.6172C170.436 19.7188 170.398 19.8281 170.398 19.9453H169.676C169.676 19.7943 169.715 19.6445 169.793 19.4961C169.871 19.3477 169.983 19.2135 170.129 19.0938C170.277 18.9714 170.454 18.875 170.66 18.8047C170.868 18.7318 171.1 18.6953 171.355 18.6953C171.663 18.6953 171.934 18.7474 172.168 18.8516C172.405 18.9557 172.59 19.1133 172.723 19.3242C172.858 19.5326 172.926 19.7943 172.926 20.1094V22.0781C172.926 22.2188 172.938 22.3685 172.961 22.5273C172.987 22.6862 173.025 22.8229 173.074 22.9375V23H172.32C172.284 22.9167 172.255 22.806 172.234 22.668C172.214 22.5273 172.203 22.3971 172.203 22.2773ZM172.328 20.4375L172.336 20.9453H171.605C171.4 20.9453 171.216 20.9622 171.055 20.9961C170.893 21.0273 170.758 21.0755 170.648 21.1406C170.539 21.2057 170.456 21.2878 170.398 21.3867C170.341 21.4831 170.312 21.5964 170.312 21.7266C170.312 21.8594 170.342 21.9805 170.402 22.0898C170.462 22.1992 170.552 22.2865 170.672 22.3516C170.794 22.4141 170.944 22.4453 171.121 22.4453C171.342 22.4453 171.538 22.3984 171.707 22.3047C171.876 22.2109 172.01 22.0964 172.109 21.9609C172.211 21.8255 172.266 21.694 172.273 21.5664L172.582 21.9141C172.564 22.0234 172.514 22.1445 172.434 22.2773C172.353 22.4102 172.245 22.5378 172.109 22.6602C171.977 22.7799 171.818 22.8802 171.633 22.9609C171.451 23.0391 171.245 23.0781 171.016 23.0781C170.729 23.0781 170.478 23.0221 170.262 22.9102C170.048 22.7982 169.882 22.6484 169.762 22.4609C169.645 22.2708 169.586 22.0586 169.586 21.8242C169.586 21.5977 169.63 21.3984 169.719 21.2266C169.807 21.0521 169.935 20.9076 170.102 20.793C170.268 20.6758 170.469 20.5872 170.703 20.5273C170.938 20.4674 171.199 20.4375 171.488 20.4375H172.328ZM174.785 19.6758V23H174.062V18.7734H174.746L174.785 19.6758ZM174.613 20.7266L174.312 20.7148C174.315 20.4258 174.358 20.1589 174.441 19.9141C174.525 19.6667 174.642 19.4518 174.793 19.2695C174.944 19.0872 175.124 18.9466 175.332 18.8477C175.543 18.7461 175.776 18.6953 176.031 18.6953C176.24 18.6953 176.427 18.724 176.594 18.7812C176.76 18.8359 176.902 18.9245 177.02 19.0469C177.139 19.1693 177.23 19.3281 177.293 19.5234C177.355 19.7161 177.387 19.9518 177.387 20.2305V23H176.66V20.2227C176.66 20.0013 176.628 19.8242 176.562 19.6914C176.497 19.556 176.402 19.4583 176.277 19.3984C176.152 19.3359 175.999 19.3047 175.816 19.3047C175.637 19.3047 175.473 19.3424 175.324 19.418C175.178 19.4935 175.052 19.5977 174.945 19.7305C174.841 19.8633 174.759 20.0156 174.699 20.1875C174.642 20.3568 174.613 20.5365 174.613 20.7266Z" fill="#FFA142"/>
<path d="M198.953 17.8164L197.07 23H196.301L198.469 17.3125H198.965L198.953 17.8164ZM200.531 23L198.645 17.8164L198.633 17.3125H199.129L201.305 23H200.531ZM200.434 20.8945V21.5117H197.238V20.8945H200.434ZM204.621 22.1797V17H205.348V23H204.684L204.621 22.1797ZM201.777 20.9336V20.8516C201.777 20.5286 201.816 20.2357 201.895 19.9727C201.975 19.707 202.089 19.4792 202.234 19.2891C202.383 19.099 202.559 18.9531 202.762 18.8516C202.967 18.7474 203.197 18.6953 203.449 18.6953C203.715 18.6953 203.947 18.7422 204.145 18.8359C204.345 18.9271 204.514 19.0612 204.652 19.2383C204.793 19.4128 204.904 19.6237 204.984 19.8711C205.065 20.1185 205.121 20.3984 205.152 20.7109V21.0703C205.124 21.3802 205.068 21.6589 204.984 21.9062C204.904 22.1536 204.793 22.3646 204.652 22.5391C204.514 22.7135 204.345 22.8477 204.145 22.9414C203.944 23.0326 203.71 23.0781 203.441 23.0781C203.194 23.0781 202.967 23.0247 202.762 22.918C202.559 22.8112 202.383 22.6615 202.234 22.4688C202.089 22.276 201.975 22.0495 201.895 21.7891C201.816 21.526 201.777 21.2409 201.777 20.9336ZM202.504 20.8516V20.9336C202.504 21.1445 202.525 21.3424 202.566 21.5273C202.611 21.7122 202.678 21.875 202.77 22.0156C202.861 22.1562 202.977 22.2669 203.117 22.3477C203.258 22.4258 203.426 22.4648 203.621 22.4648C203.861 22.4648 204.057 22.4141 204.211 22.3125C204.367 22.2109 204.492 22.0768 204.586 21.9102C204.68 21.7435 204.753 21.5625 204.805 21.3672V20.4258C204.773 20.2826 204.728 20.1445 204.668 20.0117C204.611 19.8763 204.535 19.7565 204.441 19.6523C204.35 19.5456 204.237 19.4609 204.102 19.3984C203.969 19.3359 203.811 19.3047 203.629 19.3047C203.431 19.3047 203.26 19.3464 203.117 19.4297C202.977 19.5104 202.861 19.6224 202.77 19.7656C202.678 19.9062 202.611 20.0703 202.566 20.2578C202.525 20.4427 202.504 20.6406 202.504 20.8516ZM209.137 22.1797V17H209.863V23H209.199L209.137 22.1797ZM206.293 20.9336V20.8516C206.293 20.5286 206.332 20.2357 206.41 19.9727C206.491 19.707 206.604 19.4792 206.75 19.2891C206.898 19.099 207.074 18.9531 207.277 18.8516C207.483 18.7474 207.712 18.6953 207.965 18.6953C208.23 18.6953 208.462 18.7422 208.66 18.8359C208.861 18.9271 209.03 19.0612 209.168 19.2383C209.309 19.4128 209.419 19.6237 209.5 19.8711C209.581 20.1185 209.637 20.3984 209.668 20.7109V21.0703C209.639 21.3802 209.583 21.6589 209.5 21.9062C209.419 22.1536 209.309 22.3646 209.168 22.5391C209.03 22.7135 208.861 22.8477 208.66 22.9414C208.46 23.0326 208.225 23.0781 207.957 23.0781C207.71 23.0781 207.483 23.0247 207.277 22.918C207.074 22.8112 206.898 22.6615 206.75 22.4688C206.604 22.276 206.491 22.0495 206.41 21.7891C206.332 21.526 206.293 21.2409 206.293 20.9336ZM207.02 20.8516V20.9336C207.02 21.1445 207.04 21.3424 207.082 21.5273C207.126 21.7122 207.194 21.875 207.285 22.0156C207.376 22.1562 207.492 22.2669 207.633 22.3477C207.773 22.4258 207.941 22.4648 208.137 22.4648C208.376 22.4648 208.573 22.4141 208.727 22.3125C208.883 22.2109 209.008 22.0768 209.102 21.9102C209.195 21.7435 209.268 21.5625 209.32 21.3672V20.4258C209.289 20.2826 209.243 20.1445 209.184 20.0117C209.126 19.8763 209.051 19.7565 208.957 19.6523C208.866 19.5456 208.753 19.4609 208.617 19.3984C208.484 19.3359 208.327 19.3047 208.145 19.3047C207.947 19.3047 207.776 19.3464 207.633 19.4297C207.492 19.5104 207.376 19.6224 207.285 19.7656C207.194 19.9062 207.126 20.0703 207.082 20.2578C207.04 20.4427 207.02 20.6406 207.02 20.8516ZM215.188 17.8164L213.305 23H212.535L214.703 17.3125H215.199L215.188 17.8164ZM216.766 23L214.879 17.8164L214.867 17.3125H215.363L217.539 23H216.766ZM216.668 20.8945V21.5117H213.473V20.8945H216.668ZM220.855 22.1797V17H221.582V23H220.918L220.855 22.1797ZM218.012 20.9336V20.8516C218.012 20.5286 218.051 20.2357 218.129 19.9727C218.21 19.707 218.323 19.4792 218.469 19.2891C218.617 19.099 218.793 18.9531 218.996 18.8516C219.202 18.7474 219.431 18.6953 219.684 18.6953C219.949 18.6953 220.181 18.7422 220.379 18.8359C220.579 18.9271 220.749 19.0612 220.887 19.2383C221.027 19.4128 221.138 19.6237 221.219 19.8711C221.299 20.1185 221.355 20.3984 221.387 20.7109V21.0703C221.358 21.3802 221.302 21.6589 221.219 21.9062C221.138 22.1536 221.027 22.3646 220.887 22.5391C220.749 22.7135 220.579 22.8477 220.379 22.9414C220.178 23.0326 219.944 23.0781 219.676 23.0781C219.428 23.0781 219.202 23.0247 218.996 22.918C218.793 22.8112 218.617 22.6615 218.469 22.4688C218.323 22.276 218.21 22.0495 218.129 21.7891C218.051 21.526 218.012 21.2409 218.012 20.9336ZM218.738 20.8516V20.9336C218.738 21.1445 218.759 21.3424 218.801 21.5273C218.845 21.7122 218.913 21.875 219.004 22.0156C219.095 22.1562 219.211 22.2669 219.352 22.3477C219.492 22.4258 219.66 22.4648 219.855 22.4648C220.095 22.4648 220.292 22.4141 220.445 22.3125C220.602 22.2109 220.727 22.0768 220.82 21.9102C220.914 21.7435 220.987 21.5625 221.039 21.3672V20.4258C221.008 20.2826 220.962 20.1445 220.902 20.0117C220.845 19.8763 220.77 19.7565 220.676 19.6523C220.585 19.5456 220.471 19.4609 220.336 19.3984C220.203 19.3359 220.046 19.3047 219.863 19.3047C219.665 19.3047 219.495 19.3464 219.352 19.4297C219.211 19.5104 219.095 19.6224 219.004 19.7656C218.913 19.9062 218.845 20.0703 218.801 20.2578C218.759 20.4427 218.738 20.6406 218.738 20.8516ZM225.371 22.1797V17H226.098V23H225.434L225.371 22.1797ZM222.527 20.9336V20.8516C222.527 20.5286 222.566 20.2357 222.645 19.9727C222.725 19.707 222.839 19.4792 222.984 19.2891C223.133 19.099 223.309 18.9531 223.512 18.8516C223.717 18.7474 223.947 18.6953 224.199 18.6953C224.465 18.6953 224.697 18.7422 224.895 18.8359C225.095 18.9271 225.264 19.0612 225.402 19.2383C225.543 19.4128 225.654 19.6237 225.734 19.8711C225.815 20.1185 225.871 20.3984 225.902 20.7109V21.0703C225.874 21.3802 225.818 21.6589 225.734 21.9062C225.654 22.1536 225.543 22.3646 225.402 22.5391C225.264 22.7135 225.095 22.8477 224.895 22.9414C224.694 23.0326 224.46 23.0781 224.191 23.0781C223.944 23.0781 223.717 23.0247 223.512 22.918C223.309 22.8112 223.133 22.6615 222.984 22.4688C222.839 22.276 222.725 22.0495 222.645 21.7891C222.566 21.526 222.527 21.2409 222.527 20.9336ZM223.254 20.8516V20.9336C223.254 21.1445 223.275 21.3424 223.316 21.5273C223.361 21.7122 223.428 21.875 223.52 22.0156C223.611 22.1562 223.727 22.2669 223.867 22.3477C224.008 22.4258 224.176 22.4648 224.371 22.4648C224.611 22.4648 224.807 22.4141 224.961 22.3125C225.117 22.2109 225.242 22.0768 225.336 21.9102C225.43 21.7435 225.503 21.5625 225.555 21.3672V20.4258C225.523 20.2826 225.478 20.1445 225.418 20.0117C225.361 19.8763 225.285 19.7565 225.191 19.6523C225.1 19.5456 224.987 19.4609 224.852 19.3984C224.719 19.3359 224.561 19.3047 224.379 19.3047C224.181 19.3047 224.01 19.3464 223.867 19.4297C223.727 19.5104 223.611 19.6224 223.52 19.7656C223.428 19.9062 223.361 20.0703 223.316 20.2578C223.275 20.4427 223.254 20.6406 223.254 20.8516ZM227.945 19.4375V23H227.223V18.7734H227.926L227.945 19.4375ZM229.266 18.75L229.262 19.4219C229.202 19.4089 229.145 19.401 229.09 19.3984C229.038 19.3932 228.978 19.3906 228.91 19.3906C228.743 19.3906 228.596 19.4167 228.469 19.4688C228.341 19.5208 228.233 19.5938 228.145 19.6875C228.056 19.7812 227.986 19.8932 227.934 20.0234C227.884 20.151 227.852 20.2917 227.836 20.4453L227.633 20.5625C227.633 20.3073 227.658 20.0677 227.707 19.8438C227.759 19.6198 227.839 19.4219 227.945 19.25C228.052 19.0755 228.188 18.9401 228.352 18.8438C228.518 18.7448 228.716 18.6953 228.945 18.6953C228.997 18.6953 229.057 18.7018 229.125 18.7148C229.193 18.7253 229.24 18.737 229.266 18.75ZM231.609 23.0781C231.315 23.0781 231.048 23.0286 230.809 22.9297C230.572 22.8281 230.367 22.6862 230.195 22.5039C230.026 22.3216 229.896 22.1055 229.805 21.8555C229.714 21.6055 229.668 21.332 229.668 21.0352V20.8711C229.668 20.5273 229.719 20.2214 229.82 19.9531C229.922 19.6823 230.06 19.4531 230.234 19.2656C230.409 19.0781 230.607 18.9362 230.828 18.8398C231.049 18.7435 231.279 18.6953 231.516 18.6953C231.818 18.6953 232.078 18.7474 232.297 18.8516C232.518 18.9557 232.699 19.1016 232.84 19.2891C232.98 19.474 233.085 19.6927 233.152 19.9453C233.22 20.1953 233.254 20.4688 233.254 20.7656V21.0898H230.098V20.5H232.531V20.4453C232.521 20.2578 232.482 20.0755 232.414 19.8984C232.349 19.7214 232.245 19.5755 232.102 19.4609C231.958 19.3464 231.763 19.2891 231.516 19.2891C231.352 19.2891 231.201 19.3242 231.062 19.3945C230.924 19.4622 230.806 19.5638 230.707 19.6992C230.608 19.8346 230.531 20 230.477 20.1953C230.422 20.3906 230.395 20.6159 230.395 20.8711V21.0352C230.395 21.2357 230.422 21.4245 230.477 21.6016C230.534 21.776 230.616 21.9297 230.723 22.0625C230.832 22.1953 230.964 22.2995 231.117 22.375C231.273 22.4505 231.451 22.4883 231.648 22.4883C231.904 22.4883 232.12 22.4362 232.297 22.332C232.474 22.2279 232.629 22.0885 232.762 21.9141L233.199 22.2617C233.108 22.3997 232.992 22.5312 232.852 22.6562C232.711 22.7812 232.538 22.8828 232.332 22.9609C232.129 23.0391 231.888 23.0781 231.609 23.0781ZM236.559 21.8789C236.559 21.7747 236.535 21.6784 236.488 21.5898C236.444 21.4987 236.352 21.4167 236.211 21.3438C236.073 21.2682 235.865 21.2031 235.586 21.1484C235.352 21.099 235.139 21.0404 234.949 20.9727C234.762 20.9049 234.602 20.8229 234.469 20.7266C234.339 20.6302 234.238 20.5169 234.168 20.3867C234.098 20.2565 234.062 20.1042 234.062 19.9297C234.062 19.763 234.099 19.6055 234.172 19.457C234.247 19.3086 234.353 19.1771 234.488 19.0625C234.626 18.9479 234.792 18.8581 234.984 18.793C235.177 18.7279 235.392 18.6953 235.629 18.6953C235.967 18.6953 236.257 18.7552 236.496 18.875C236.736 18.9948 236.919 19.1549 237.047 19.3555C237.174 19.5534 237.238 19.7734 237.238 20.0156H236.516C236.516 19.8984 236.48 19.7852 236.41 19.6758C236.342 19.5638 236.242 19.4714 236.109 19.3984C235.979 19.3255 235.819 19.2891 235.629 19.2891C235.428 19.2891 235.266 19.3203 235.141 19.3828C235.018 19.4427 234.928 19.5195 234.871 19.6133C234.816 19.707 234.789 19.806 234.789 19.9102C234.789 19.9883 234.802 20.0586 234.828 20.1211C234.857 20.181 234.906 20.237 234.977 20.2891C235.047 20.3385 235.146 20.3854 235.273 20.4297C235.401 20.474 235.564 20.5182 235.762 20.5625C236.108 20.6406 236.393 20.7344 236.617 20.8438C236.841 20.9531 237.008 21.0872 237.117 21.2461C237.227 21.4049 237.281 21.5977 237.281 21.8242C237.281 22.0091 237.242 22.1784 237.164 22.332C237.089 22.4857 236.978 22.6185 236.832 22.7305C236.689 22.8398 236.517 22.9258 236.316 22.9883C236.118 23.0482 235.896 23.0781 235.648 23.0781C235.276 23.0781 234.961 23.0117 234.703 22.8789C234.445 22.7461 234.25 22.5742 234.117 22.3633C233.984 22.1523 233.918 21.9297 233.918 21.6953H234.645C234.655 21.8932 234.712 22.0508 234.816 22.168C234.921 22.2826 235.048 22.3646 235.199 22.4141C235.35 22.4609 235.5 22.4844 235.648 22.4844C235.846 22.4844 236.012 22.4583 236.145 22.4062C236.28 22.3542 236.383 22.2826 236.453 22.1914C236.523 22.1003 236.559 21.9961 236.559 21.8789ZM240.691 21.8789C240.691 21.7747 240.668 21.6784 240.621 21.5898C240.577 21.4987 240.484 21.4167 240.344 21.3438C240.206 21.2682 239.997 21.2031 239.719 21.1484C239.484 21.099 239.272 21.0404 239.082 20.9727C238.895 20.9049 238.734 20.8229 238.602 20.7266C238.471 20.6302 238.371 20.5169 238.301 20.3867C238.23 20.2565 238.195 20.1042 238.195 19.9297C238.195 19.763 238.232 19.6055 238.305 19.457C238.38 19.3086 238.486 19.1771 238.621 19.0625C238.759 18.9479 238.924 18.8581 239.117 18.793C239.31 18.7279 239.525 18.6953 239.762 18.6953C240.1 18.6953 240.389 18.7552 240.629 18.875C240.868 18.9948 241.052 19.1549 241.18 19.3555C241.307 19.5534 241.371 19.7734 241.371 20.0156H240.648C240.648 19.8984 240.613 19.7852 240.543 19.6758C240.475 19.5638 240.375 19.4714 240.242 19.3984C240.112 19.3255 239.952 19.2891 239.762 19.2891C239.561 19.2891 239.398 19.3203 239.273 19.3828C239.151 19.4427 239.061 19.5195 239.004 19.6133C238.949 19.707 238.922 19.806 238.922 19.9102C238.922 19.9883 238.935 20.0586 238.961 20.1211C238.99 20.181 239.039 20.237 239.109 20.2891C239.18 20.3385 239.279 20.3854 239.406 20.4297C239.534 20.474 239.697 20.5182 239.895 20.5625C240.241 20.6406 240.526 20.7344 240.75 20.8438C240.974 20.9531 241.141 21.0872 241.25 21.2461C241.359 21.4049 241.414 21.5977 241.414 21.8242C241.414 22.0091 241.375 22.1784 241.297 22.332C241.221 22.4857 241.111 22.6185 240.965 22.7305C240.822 22.8398 240.65 22.9258 240.449 22.9883C240.251 23.0482 240.029 23.0781 239.781 23.0781C239.409 23.0781 239.094 23.0117 238.836 22.8789C238.578 22.7461 238.383 22.5742 238.25 22.3633C238.117 22.1523 238.051 21.9297 238.051 21.6953H238.777C238.788 21.8932 238.845 22.0508 238.949 22.168C239.053 22.2826 239.181 22.3646 239.332 22.4141C239.483 22.4609 239.633 22.4844 239.781 22.4844C239.979 22.4844 240.145 22.4583 240.277 22.4062C240.413 22.3542 240.516 22.2826 240.586 22.1914C240.656 22.1003 240.691 21.9961 240.691 21.8789Z" fill="#FFA142"/>
<path d="M275.457 23H274.27L274.277 22.3867H275.457C275.863 22.3867 276.202 22.3021 276.473 22.1328C276.743 21.9609 276.947 21.7214 277.082 21.4141C277.22 21.1042 277.289 20.7422 277.289 20.3281V19.9805C277.289 19.6549 277.25 19.3659 277.172 19.1133C277.094 18.8581 276.979 18.6432 276.828 18.4688C276.677 18.2917 276.492 18.1576 276.273 18.0664C276.057 17.9753 275.809 17.9297 275.527 17.9297H274.246V17.3125H275.527C275.9 17.3125 276.24 17.375 276.547 17.5C276.854 17.6224 277.118 17.8008 277.34 18.0352C277.564 18.2669 277.736 18.5482 277.855 18.8789C277.975 19.207 278.035 19.5768 278.035 19.9883V20.3281C278.035 20.7396 277.975 21.1107 277.855 21.4414C277.736 21.7695 277.562 22.0495 277.336 22.2812C277.112 22.513 276.841 22.6914 276.523 22.8164C276.208 22.9388 275.853 23 275.457 23ZM274.672 17.3125V23H273.918V17.3125H274.672ZM280.812 23.0781C280.518 23.0781 280.251 23.0286 280.012 22.9297C279.775 22.8281 279.57 22.6862 279.398 22.5039C279.229 22.3216 279.099 22.1055 279.008 21.8555C278.917 21.6055 278.871 21.332 278.871 21.0352V20.8711C278.871 20.5273 278.922 20.2214 279.023 19.9531C279.125 19.6823 279.263 19.4531 279.438 19.2656C279.612 19.0781 279.81 18.9362 280.031 18.8398C280.253 18.7435 280.482 18.6953 280.719 18.6953C281.021 18.6953 281.281 18.7474 281.5 18.8516C281.721 18.9557 281.902 19.1016 282.043 19.2891C282.184 19.474 282.288 19.6927 282.355 19.9453C282.423 20.1953 282.457 20.4688 282.457 20.7656V21.0898H279.301V20.5H281.734V20.4453C281.724 20.2578 281.685 20.0755 281.617 19.8984C281.552 19.7214 281.448 19.5755 281.305 19.4609C281.161 19.3464 280.966 19.2891 280.719 19.2891C280.555 19.2891 280.404 19.3242 280.266 19.3945C280.128 19.4622 280.009 19.5638 279.91 19.6992C279.811 19.8346 279.734 20 279.68 20.1953C279.625 20.3906 279.598 20.6159 279.598 20.8711V21.0352C279.598 21.2357 279.625 21.4245 279.68 21.6016C279.737 21.776 279.819 21.9297 279.926 22.0625C280.035 22.1953 280.167 22.2995 280.32 22.375C280.477 22.4505 280.654 22.4883 280.852 22.4883C281.107 22.4883 281.323 22.4362 281.5 22.332C281.677 22.2279 281.832 22.0885 281.965 21.9141L282.402 22.2617C282.311 22.3997 282.195 22.5312 282.055 22.6562C281.914 22.7812 281.741 22.8828 281.535 22.9609C281.332 23.0391 281.091 23.0781 280.812 23.0781ZM285.07 18.7734V19.3281H282.785V18.7734H285.07ZM283.559 17.7461H284.281V21.9531C284.281 22.0964 284.303 22.2044 284.348 22.2773C284.392 22.3503 284.449 22.3984 284.52 22.4219C284.59 22.4453 284.665 22.457 284.746 22.457C284.806 22.457 284.868 22.4518 284.934 22.4414C285.001 22.4284 285.052 22.418 285.086 22.4102L285.09 23C285.033 23.0182 284.957 23.0352 284.863 23.0508C284.772 23.069 284.661 23.0781 284.531 23.0781C284.354 23.0781 284.191 23.043 284.043 22.9727C283.895 22.9023 283.776 22.7852 283.688 22.6211C283.602 22.4544 283.559 22.2305 283.559 21.9492V17.7461ZM288.41 22.2773V20.1016C288.41 19.9349 288.376 19.7904 288.309 19.668C288.243 19.543 288.145 19.4466 288.012 19.3789C287.879 19.3112 287.715 19.2773 287.52 19.2773C287.337 19.2773 287.177 19.3086 287.039 19.3711C286.904 19.4336 286.797 19.5156 286.719 19.6172C286.643 19.7188 286.605 19.8281 286.605 19.9453H285.883C285.883 19.7943 285.922 19.6445 286 19.4961C286.078 19.3477 286.19 19.2135 286.336 19.0938C286.484 18.9714 286.661 18.875 286.867 18.8047C287.076 18.7318 287.307 18.6953 287.562 18.6953C287.87 18.6953 288.141 18.7474 288.375 18.8516C288.612 18.9557 288.797 19.1133 288.93 19.3242C289.065 19.5326 289.133 19.7943 289.133 20.1094V22.0781C289.133 22.2188 289.145 22.3685 289.168 22.5273C289.194 22.6862 289.232 22.8229 289.281 22.9375V23H288.527C288.491 22.9167 288.462 22.806 288.441 22.668C288.421 22.5273 288.41 22.3971 288.41 22.2773ZM288.535 20.4375L288.543 20.9453H287.812C287.607 20.9453 287.423 20.9622 287.262 20.9961C287.1 21.0273 286.965 21.0755 286.855 21.1406C286.746 21.2057 286.663 21.2878 286.605 21.3867C286.548 21.4831 286.52 21.5964 286.52 21.7266C286.52 21.8594 286.549 21.9805 286.609 22.0898C286.669 22.1992 286.759 22.2865 286.879 22.3516C287.001 22.4141 287.151 22.4453 287.328 22.4453C287.549 22.4453 287.745 22.3984 287.914 22.3047C288.083 22.2109 288.217 22.0964 288.316 21.9609C288.418 21.8255 288.473 21.694 288.48 21.5664L288.789 21.9141C288.771 22.0234 288.721 22.1445 288.641 22.2773C288.56 22.4102 288.452 22.5378 288.316 22.6602C288.184 22.7799 288.025 22.8802 287.84 22.9609C287.658 23.0391 287.452 23.0781 287.223 23.0781C286.936 23.0781 286.685 23.0221 286.469 22.9102C286.255 22.7982 286.089 22.6484 285.969 22.4609C285.852 22.2708 285.793 22.0586 285.793 21.8242C285.793 21.5977 285.837 21.3984 285.926 21.2266C286.014 21.0521 286.142 20.9076 286.309 20.793C286.475 20.6758 286.676 20.5872 286.91 20.5273C287.145 20.4674 287.406 20.4375 287.695 20.4375H288.535ZM291.055 18.7734V23H290.328V18.7734H291.055ZM290.273 17.6523C290.273 17.5352 290.309 17.4362 290.379 17.3555C290.452 17.2747 290.559 17.2344 290.699 17.2344C290.837 17.2344 290.943 17.2747 291.016 17.3555C291.091 17.4362 291.129 17.5352 291.129 17.6523C291.129 17.7643 291.091 17.8607 291.016 17.9414C290.943 18.0195 290.837 18.0586 290.699 18.0586C290.559 18.0586 290.452 18.0195 290.379 17.9414C290.309 17.8607 290.273 17.7643 290.273 17.6523ZM293 17V23H292.273V17H293ZM296.621 21.8789C296.621 21.7747 296.598 21.6784 296.551 21.5898C296.507 21.4987 296.414 21.4167 296.273 21.3438C296.135 21.2682 295.927 21.2031 295.648 21.1484C295.414 21.099 295.202 21.0404 295.012 20.9727C294.824 20.9049 294.664 20.8229 294.531 20.7266C294.401 20.6302 294.301 20.5169 294.23 20.3867C294.16 20.2565 294.125 20.1042 294.125 19.9297C294.125 19.763 294.161 19.6055 294.234 19.457C294.31 19.3086 294.415 19.1771 294.551 19.0625C294.689 18.9479 294.854 18.8581 295.047 18.793C295.24 18.7279 295.454 18.6953 295.691 18.6953C296.03 18.6953 296.319 18.7552 296.559 18.875C296.798 18.9948 296.982 19.1549 297.109 19.3555C297.237 19.5534 297.301 19.7734 297.301 20.0156H296.578C296.578 19.8984 296.543 19.7852 296.473 19.6758C296.405 19.5638 296.305 19.4714 296.172 19.3984C296.042 19.3255 295.882 19.2891 295.691 19.2891C295.491 19.2891 295.328 19.3203 295.203 19.3828C295.081 19.4427 294.991 19.5195 294.934 19.6133C294.879 19.707 294.852 19.806 294.852 19.9102C294.852 19.9883 294.865 20.0586 294.891 20.1211C294.919 20.181 294.969 20.237 295.039 20.2891C295.109 20.3385 295.208 20.3854 295.336 20.4297C295.464 20.474 295.626 20.5182 295.824 20.5625C296.171 20.6406 296.456 20.7344 296.68 20.8438C296.904 20.9531 297.07 21.0872 297.18 21.2461C297.289 21.4049 297.344 21.5977 297.344 21.8242C297.344 22.0091 297.305 22.1784 297.227 22.332C297.151 22.4857 297.04 22.6185 296.895 22.7305C296.751 22.8398 296.579 22.9258 296.379 22.9883C296.181 23.0482 295.958 23.0781 295.711 23.0781C295.339 23.0781 295.023 23.0117 294.766 22.8789C294.508 22.7461 294.312 22.5742 294.18 22.3633C294.047 22.1523 293.98 21.9297 293.98 21.6953H294.707C294.717 21.8932 294.775 22.0508 294.879 22.168C294.983 22.2826 295.111 22.3646 295.262 22.4141C295.413 22.4609 295.562 22.4844 295.711 22.4844C295.909 22.4844 296.074 22.4583 296.207 22.4062C296.342 22.3542 296.445 22.2826 296.516 22.1914C296.586 22.1003 296.621 21.9961 296.621 21.8789Z" fill="#808080"/>
<rect x="18" y="4" width="266" height="1" fill="#808080"/>
<rect x="18" y="4" width="64" height="1" fill="#FFA142"/>
<rect x="88" y="4" width="64" height="1" fill="#FFA142"/>
<rect x="152" y="4" width="64" height="1" fill="#FFA142"/>
<circle cx="21" cy="5" r="5" fill="#FFA142"/>
<circle cx="285" cy="5" r="5" fill="#808080"/>
<circle cx="83" cy="5" r="5" fill="#FFA142"/>
<circle cx="219" cy="5" r="5" fill="#FFA142"/>
<circle cx="155" cy="5" r="5" fill="#FFA142"/>
</svg>
