<svg width="130" height="152" viewBox="0 0 130 152" fill="none" xmlns="http://www.w3.org/2000/svg">
<rect x="0.5" y="0.5" width="129" height="151" rx="7.5" fill="#D9D9D9" stroke="#636363"/>
<path d="M17.6289 130.004H19.4336C20.0117 130.004 20.4883 129.906 20.8633 129.711C21.2383 129.508 21.5156 129.227 21.6953 128.867C21.8828 128.5 21.9766 128.074 21.9766 127.59C21.9766 127.152 21.8906 126.766 21.7188 126.43C21.5547 126.086 21.3008 125.82 20.957 125.633C20.6133 125.438 20.1797 125.34 19.6562 125.34C19.2422 125.34 18.8594 125.422 18.5078 125.586C18.1562 125.75 17.875 125.98 17.6641 126.277C17.4531 126.574 17.3477 126.934 17.3477 127.355H13.9609C13.9609 126.418 14.2109 125.602 14.7109 124.906C15.2188 124.211 15.8984 123.668 16.75 123.277C17.6016 122.887 18.5391 122.691 19.5625 122.691C20.7188 122.691 21.7305 122.879 22.5977 123.254C23.4648 123.621 24.1406 124.164 24.625 124.883C25.1094 125.602 25.3516 126.492 25.3516 127.555C25.3516 128.094 25.2266 128.617 24.9766 129.125C24.7266 129.625 24.3672 130.078 23.8984 130.484C23.4375 130.883 22.875 131.203 22.2109 131.445C21.5469 131.68 20.8008 131.797 19.9727 131.797H17.6289V130.004ZM17.6289 132.57V130.824H19.9727C20.9023 130.824 21.7188 130.93 22.4219 131.141C23.125 131.352 23.7148 131.656 24.1914 132.055C24.668 132.445 25.0273 132.91 25.2695 133.449C25.5117 133.98 25.6328 134.57 25.6328 135.219C25.6328 136.016 25.4805 136.727 25.1758 137.352C24.8711 137.969 24.4414 138.492 23.8867 138.922C23.3398 139.352 22.6992 139.68 21.9648 139.906C21.2305 140.125 20.4297 140.234 19.5625 140.234C18.8438 140.234 18.1367 140.137 17.4414 139.941C16.7539 139.738 16.1289 139.438 15.5664 139.039C15.0117 138.633 14.5664 138.125 14.2305 137.516C13.9023 136.898 13.7383 136.168 13.7383 135.324H17.125C17.125 135.762 17.2344 136.152 17.4531 136.496C17.6719 136.84 17.9727 137.109 18.3555 137.305C18.7461 137.5 19.1797 137.598 19.6562 137.598C20.1953 137.598 20.6562 137.5 21.0391 137.305C21.4297 137.102 21.7266 136.82 21.9297 136.461C22.1406 136.094 22.2461 135.668 22.2461 135.184C22.2461 134.559 22.1328 134.059 21.9062 133.684C21.6797 133.301 21.3555 133.02 20.9336 132.84C20.5117 132.66 20.0117 132.57 19.4336 132.57H17.6289ZM37.4453 129.945V140H34.0586V127.32H37.2344L37.4453 129.945ZM36.9766 133.215H36.0391C36.0391 132.332 36.1445 131.52 36.3555 130.777C36.5742 130.027 36.8906 129.379 37.3047 128.832C37.7266 128.277 38.2461 127.848 38.8633 127.543C39.4805 127.238 40.1953 127.086 41.0078 127.086C41.5703 127.086 42.0859 127.172 42.5547 127.344C43.0234 127.508 43.4258 127.77 43.7617 128.129C44.1055 128.48 44.3711 128.941 44.5586 129.512C44.7461 130.074 44.8398 130.75 44.8398 131.539V140H41.4648V131.914C41.4648 131.336 41.3867 130.891 41.2305 130.578C41.0742 130.266 40.8516 130.047 40.5625 129.922C40.2812 129.797 39.9414 129.734 39.543 129.734C39.1055 129.734 38.7227 129.824 38.3945 130.004C38.0742 130.184 37.8086 130.434 37.5977 130.754C37.3867 131.066 37.2305 131.434 37.1289 131.855C37.0273 132.277 36.9766 132.73 36.9766 133.215ZM44.5234 132.828L43.3164 132.98C43.3164 132.152 43.418 131.383 43.6211 130.672C43.832 129.961 44.1406 129.336 44.5469 128.797C44.9609 128.258 45.4727 127.84 46.082 127.543C46.6914 127.238 47.3945 127.086 48.1914 127.086C48.8008 127.086 49.3555 127.176 49.8555 127.355C50.3555 127.527 50.7812 127.805 51.1328 128.188C51.4922 128.562 51.7656 129.055 51.9531 129.664C52.1484 130.273 52.2461 131.02 52.2461 131.902V140H48.8594V131.902C48.8594 131.316 48.7812 130.871 48.625 130.566C48.4766 130.254 48.2578 130.039 47.9688 129.922C47.6875 129.797 47.3516 129.734 46.9609 129.734C46.5547 129.734 46.1992 129.816 45.8945 129.98C45.5898 130.137 45.3359 130.355 45.1328 130.637C44.9297 130.918 44.7773 131.246 44.6758 131.621C44.5742 131.988 44.5234 132.391 44.5234 132.828ZM54.3203 133.789V133.543C54.3203 132.613 54.4531 131.758 54.7188 130.977C54.9844 130.188 55.3711 129.504 55.8789 128.926C56.3867 128.348 57.0117 127.898 57.7539 127.578C58.4961 127.25 59.3477 127.086 60.3086 127.086C61.2695 127.086 62.125 127.25 62.875 127.578C63.625 127.898 64.2539 128.348 64.7617 128.926C65.2773 129.504 65.668 130.188 65.9336 130.977C66.1992 131.758 66.332 132.613 66.332 133.543V133.789C66.332 134.711 66.1992 135.566 65.9336 136.355C65.668 137.137 65.2773 137.82 64.7617 138.406C64.2539 138.984 63.6289 139.434 62.8867 139.754C62.1445 140.074 61.293 140.234 60.332 140.234C59.3711 140.234 58.5156 140.074 57.7656 139.754C57.0234 139.434 56.3945 138.984 55.8789 138.406C55.3711 137.82 54.9844 137.137 54.7188 136.355C54.4531 135.566 54.3203 134.711 54.3203 133.789ZM57.6953 133.543V133.789C57.6953 134.32 57.7422 134.816 57.8359 135.277C57.9297 135.738 58.0781 136.145 58.2812 136.496C58.4922 136.84 58.7656 137.109 59.1016 137.305C59.4375 137.5 59.8477 137.598 60.332 137.598C60.8008 137.598 61.2031 137.5 61.5391 137.305C61.875 137.109 62.1445 136.84 62.3477 136.496C62.5508 136.145 62.6992 135.738 62.793 135.277C62.8945 134.816 62.9453 134.32 62.9453 133.789V133.543C62.9453 133.027 62.8945 132.543 62.793 132.09C62.6992 131.629 62.5469 131.223 62.3359 130.871C62.1328 130.512 61.8633 130.23 61.5273 130.027C61.1914 129.824 60.7852 129.723 60.3086 129.723C59.832 129.723 59.4258 129.824 59.0898 130.027C58.7617 130.23 58.4922 130.512 58.2812 130.871C58.0781 131.223 57.9297 131.629 57.8359 132.09C57.7422 132.543 57.6953 133.027 57.6953 133.543ZM71.7109 130.027V140H68.3359V127.32H71.5L71.7109 130.027ZM71.2188 133.215H70.3047C70.3047 132.277 70.4258 131.434 70.668 130.684C70.9102 129.926 71.25 129.281 71.6875 128.75C72.125 128.211 72.6445 127.801 73.2461 127.52C73.8555 127.23 74.5352 127.086 75.2852 127.086C75.8789 127.086 76.4219 127.172 76.9141 127.344C77.4062 127.516 77.8281 127.789 78.1797 128.164C78.5391 128.539 78.8125 129.035 79 129.652C79.1953 130.27 79.293 131.023 79.293 131.914V140H75.8945V131.902C75.8945 131.34 75.8164 130.902 75.6602 130.59C75.5039 130.277 75.2734 130.059 74.9688 129.934C74.6719 129.801 74.3047 129.734 73.8672 129.734C73.4141 129.734 73.0195 129.824 72.6836 130.004C72.3555 130.184 72.082 130.434 71.8633 130.754C71.6523 131.066 71.4922 131.434 71.3828 131.855C71.2734 132.277 71.2188 132.73 71.2188 133.215ZM88.0703 127.32V129.711H80.6875V127.32H88.0703ZM82.5156 124.191H85.8906V136.18C85.8906 136.547 85.9375 136.828 86.0312 137.023C86.1328 137.219 86.2812 137.355 86.4766 137.434C86.6719 137.504 86.918 137.539 87.2148 137.539C87.4258 137.539 87.6133 137.531 87.7773 137.516C87.9492 137.492 88.0938 137.469 88.2109 137.445L88.2227 139.93C87.9336 140.023 87.6211 140.098 87.2852 140.152C86.9492 140.207 86.5781 140.234 86.1719 140.234C85.4297 140.234 84.7812 140.113 84.2266 139.871C83.6797 139.621 83.2578 139.223 82.9609 138.676C82.6641 138.129 82.5156 137.41 82.5156 136.52V124.191ZM93.2852 122V140H89.9102V122H93.2852ZM92.8047 133.215H91.8789C91.8867 132.332 92.0039 131.52 92.2305 130.777C92.457 130.027 92.7812 129.379 93.2031 128.832C93.625 128.277 94.1289 127.848 94.7148 127.543C95.3086 127.238 95.9648 127.086 96.6836 127.086C97.3086 127.086 97.875 127.176 98.3828 127.355C98.8984 127.527 99.3398 127.809 99.707 128.199C100.082 128.582 100.371 129.086 100.574 129.711C100.777 130.336 100.879 131.094 100.879 131.984V140H97.4805V131.961C97.4805 131.398 97.3984 130.957 97.2344 130.637C97.0781 130.309 96.8477 130.078 96.543 129.945C96.2461 129.805 95.8789 129.734 95.4414 129.734C94.957 129.734 94.543 129.824 94.1992 130.004C93.8633 130.184 93.5938 130.434 93.3906 130.754C93.1875 131.066 93.0391 131.434 92.9453 131.855C92.8516 132.277 92.8047 132.73 92.8047 133.215ZM110.301 136.496C110.301 136.254 110.23 136.035 110.09 135.84C109.949 135.645 109.688 135.465 109.305 135.301C108.93 135.129 108.387 134.973 107.676 134.832C107.035 134.691 106.438 134.516 105.883 134.305C105.336 134.086 104.859 133.824 104.453 133.52C104.055 133.215 103.742 132.855 103.516 132.441C103.289 132.02 103.176 131.539 103.176 131C103.176 130.469 103.289 129.969 103.516 129.5C103.75 129.031 104.082 128.617 104.512 128.258C104.949 127.891 105.48 127.605 106.105 127.402C106.738 127.191 107.449 127.086 108.238 127.086C109.34 127.086 110.285 127.262 111.074 127.613C111.871 127.965 112.48 128.449 112.902 129.066C113.332 129.676 113.547 130.371 113.547 131.152H110.172C110.172 130.824 110.102 130.531 109.961 130.273C109.828 130.008 109.617 129.801 109.328 129.652C109.047 129.496 108.68 129.418 108.227 129.418C107.852 129.418 107.527 129.484 107.254 129.617C106.98 129.742 106.77 129.914 106.621 130.133C106.48 130.344 106.41 130.578 106.41 130.836C106.41 131.031 106.449 131.207 106.527 131.363C106.613 131.512 106.75 131.648 106.938 131.773C107.125 131.898 107.367 132.016 107.664 132.125C107.969 132.227 108.344 132.32 108.789 132.406C109.703 132.594 110.52 132.84 111.238 133.145C111.957 133.441 112.527 133.848 112.949 134.363C113.371 134.871 113.582 135.539 113.582 136.367C113.582 136.93 113.457 137.445 113.207 137.914C112.957 138.383 112.598 138.793 112.129 139.145C111.66 139.488 111.098 139.758 110.441 139.953C109.793 140.141 109.062 140.234 108.25 140.234C107.07 140.234 106.07 140.023 105.25 139.602C104.438 139.18 103.82 138.645 103.398 137.996C102.984 137.34 102.777 136.668 102.777 135.98H105.977C105.992 136.441 106.109 136.812 106.328 137.094C106.555 137.375 106.84 137.578 107.184 137.703C107.535 137.828 107.914 137.891 108.32 137.891C108.758 137.891 109.121 137.832 109.41 137.715C109.699 137.59 109.918 137.426 110.066 137.223C110.223 137.012 110.301 136.77 110.301 136.496Z" fill="#343434"/>
<path d="M13.5781 106.348L15.0234 107.492L14.5156 107.961L13.0938 106.832L13.5781 106.348ZM15.0039 103.977V104.336C15.0039 104.763 14.9505 105.146 14.8438 105.484C14.737 105.823 14.5833 106.111 14.3828 106.348C14.1823 106.585 13.9414 106.766 13.6602 106.891C13.3815 107.016 13.069 107.078 12.7227 107.078C12.3867 107.078 12.0781 107.016 11.7969 106.891C11.5182 106.766 11.276 106.585 11.0703 106.348C10.8672 106.111 10.7096 105.823 10.5977 105.484C10.4857 105.146 10.4297 104.763 10.4297 104.336V103.977C10.4297 103.549 10.4844 103.168 10.5938 102.832C10.7057 102.493 10.8633 102.206 11.0664 101.969C11.2695 101.729 11.5104 101.547 11.7891 101.422C12.0703 101.297 12.3789 101.234 12.7148 101.234C13.0612 101.234 13.375 101.297 13.6562 101.422C13.9375 101.547 14.1784 101.729 14.3789 101.969C14.5794 102.206 14.7331 102.493 14.8398 102.832C14.9492 103.168 15.0039 103.549 15.0039 103.977ZM14.2578 104.336V103.969C14.2578 103.63 14.2227 103.331 14.1523 103.07C14.0846 102.81 13.9844 102.591 13.8516 102.414C13.7188 102.237 13.5573 102.103 13.3672 102.012C13.1771 101.921 12.9596 101.875 12.7148 101.875C12.4831 101.875 12.2721 101.921 12.082 102.012C11.8945 102.103 11.7331 102.237 11.5977 102.414C11.4622 102.591 11.3581 102.81 11.2852 103.07C11.2122 103.331 11.1758 103.63 11.1758 103.969V104.336C11.1758 104.677 11.2122 104.979 11.2852 105.242C11.3581 105.503 11.4622 105.723 11.5977 105.902C11.7357 106.079 11.8997 106.214 12.0898 106.305C12.2799 106.396 12.4909 106.441 12.7227 106.441C12.9674 106.441 13.1849 106.396 13.375 106.305C13.5651 106.214 13.7253 106.079 13.8555 105.902C13.9883 105.723 14.0885 105.503 14.1562 105.242C14.224 104.979 14.2578 104.677 14.2578 104.336ZM18.6445 106.023V102.773H19.3711V107H18.6797L18.6445 106.023ZM18.7812 105.133L19.082 105.125C19.082 105.406 19.0521 105.667 18.9922 105.906C18.9349 106.143 18.8411 106.349 18.7109 106.523C18.5807 106.698 18.4102 106.835 18.1992 106.934C17.9883 107.03 17.7318 107.078 17.4297 107.078C17.224 107.078 17.0352 107.048 16.8633 106.988C16.694 106.928 16.5482 106.836 16.4258 106.711C16.3034 106.586 16.2083 106.423 16.1406 106.223C16.0755 106.022 16.043 105.781 16.043 105.5V102.773H16.7656V105.508C16.7656 105.698 16.7865 105.855 16.8281 105.98C16.8724 106.103 16.931 106.201 17.0039 106.273C17.0794 106.344 17.1628 106.393 17.2539 106.422C17.3477 106.451 17.444 106.465 17.543 106.465C17.8503 106.465 18.0938 106.406 18.2734 106.289C18.4531 106.169 18.582 106.009 18.6602 105.809C18.7409 105.605 18.7812 105.38 18.7812 105.133ZM22.9648 106.277V104.102C22.9648 103.935 22.931 103.79 22.8633 103.668C22.7982 103.543 22.6992 103.447 22.5664 103.379C22.4336 103.311 22.2695 103.277 22.0742 103.277C21.8919 103.277 21.7318 103.309 21.5938 103.371C21.4583 103.434 21.3516 103.516 21.2734 103.617C21.1979 103.719 21.1602 103.828 21.1602 103.945H20.4375C20.4375 103.794 20.4766 103.645 20.5547 103.496C20.6328 103.348 20.7448 103.214 20.8906 103.094C21.0391 102.971 21.2161 102.875 21.4219 102.805C21.6302 102.732 21.862 102.695 22.1172 102.695C22.4245 102.695 22.6953 102.747 22.9297 102.852C23.1667 102.956 23.3516 103.113 23.4844 103.324C23.6198 103.533 23.6875 103.794 23.6875 104.109V106.078C23.6875 106.219 23.6992 106.368 23.7227 106.527C23.7487 106.686 23.7865 106.823 23.8359 106.938V107H23.082C23.0456 106.917 23.0169 106.806 22.9961 106.668C22.9753 106.527 22.9648 106.397 22.9648 106.277ZM23.0898 104.438L23.0977 104.945H22.3672C22.1615 104.945 21.9779 104.962 21.8164 104.996C21.6549 105.027 21.5195 105.076 21.4102 105.141C21.3008 105.206 21.2174 105.288 21.1602 105.387C21.1029 105.483 21.0742 105.596 21.0742 105.727C21.0742 105.859 21.1042 105.98 21.1641 106.09C21.224 106.199 21.3138 106.286 21.4336 106.352C21.556 106.414 21.7057 106.445 21.8828 106.445C22.1042 106.445 22.2995 106.398 22.4688 106.305C22.638 106.211 22.7721 106.096 22.8711 105.961C22.9727 105.826 23.0273 105.694 23.0352 105.566L23.3438 105.914C23.3255 106.023 23.276 106.145 23.1953 106.277C23.1146 106.41 23.0065 106.538 22.8711 106.66C22.7383 106.78 22.5794 106.88 22.3945 106.961C22.2122 107.039 22.0065 107.078 21.7773 107.078C21.4909 107.078 21.2396 107.022 21.0234 106.91C20.8099 106.798 20.6432 106.648 20.5234 106.461C20.4062 106.271 20.3477 106.059 20.3477 105.824C20.3477 105.598 20.3919 105.398 20.4805 105.227C20.569 105.052 20.6966 104.908 20.8633 104.793C21.0299 104.676 21.2305 104.587 21.4648 104.527C21.6992 104.467 21.9609 104.438 22.25 104.438H23.0898ZM26.5938 102.773V103.328H24.3086V102.773H26.5938ZM25.082 101.746H25.8047V105.953C25.8047 106.096 25.8268 106.204 25.8711 106.277C25.9154 106.35 25.9727 106.398 26.043 106.422C26.1133 106.445 26.1888 106.457 26.2695 106.457C26.3294 106.457 26.3919 106.452 26.457 106.441C26.5247 106.428 26.5755 106.418 26.6094 106.41L26.6133 107C26.556 107.018 26.4805 107.035 26.3867 107.051C26.2956 107.069 26.1849 107.078 26.0547 107.078C25.8776 107.078 25.7148 107.043 25.5664 106.973C25.418 106.902 25.2995 106.785 25.2109 106.621C25.125 106.454 25.082 106.23 25.082 105.949V101.746ZM29.1953 107.078C28.901 107.078 28.6341 107.029 28.3945 106.93C28.1576 106.828 27.9531 106.686 27.7812 106.504C27.612 106.322 27.4818 106.105 27.3906 105.855C27.2995 105.605 27.2539 105.332 27.2539 105.035V104.871C27.2539 104.527 27.3047 104.221 27.4062 103.953C27.5078 103.682 27.6458 103.453 27.8203 103.266C27.9948 103.078 28.1927 102.936 28.4141 102.84C28.6354 102.743 28.8646 102.695 29.1016 102.695C29.4036 102.695 29.6641 102.747 29.8828 102.852C30.1042 102.956 30.2852 103.102 30.4258 103.289C30.5664 103.474 30.6706 103.693 30.7383 103.945C30.806 104.195 30.8398 104.469 30.8398 104.766V105.09H27.6836V104.5H30.1172V104.445C30.1068 104.258 30.0677 104.076 30 103.898C29.9349 103.721 29.8307 103.576 29.6875 103.461C29.5443 103.346 29.349 103.289 29.1016 103.289C28.9375 103.289 28.7865 103.324 28.6484 103.395C28.5104 103.462 28.3919 103.564 28.293 103.699C28.194 103.835 28.1172 104 28.0625 104.195C28.0078 104.391 27.9805 104.616 27.9805 104.871V105.035C27.9805 105.236 28.0078 105.424 28.0625 105.602C28.1198 105.776 28.2018 105.93 28.3086 106.062C28.418 106.195 28.5495 106.299 28.7031 106.375C28.8594 106.451 29.0365 106.488 29.2344 106.488C29.4896 106.488 29.7057 106.436 29.8828 106.332C30.0599 106.228 30.2148 106.089 30.3477 105.914L30.7852 106.262C30.694 106.4 30.5781 106.531 30.4375 106.656C30.2969 106.781 30.1237 106.883 29.918 106.961C29.7148 107.039 29.474 107.078 29.1953 107.078ZM32.4062 103.438V107H31.6836V102.773H32.3867L32.4062 103.438ZM33.7266 102.75L33.7227 103.422C33.6628 103.409 33.6055 103.401 33.5508 103.398C33.4987 103.393 33.4388 103.391 33.3711 103.391C33.2044 103.391 33.0573 103.417 32.9297 103.469C32.8021 103.521 32.694 103.594 32.6055 103.688C32.5169 103.781 32.4466 103.893 32.3945 104.023C32.3451 104.151 32.3125 104.292 32.2969 104.445L32.0938 104.562C32.0938 104.307 32.1185 104.068 32.168 103.844C32.2201 103.62 32.2995 103.422 32.4062 103.25C32.513 103.076 32.6484 102.94 32.8125 102.844C32.9792 102.745 33.1771 102.695 33.4062 102.695C33.4583 102.695 33.5182 102.702 33.5859 102.715C33.6536 102.725 33.7005 102.737 33.7266 102.75ZM35.1797 101V107H34.4531V101H35.1797ZM37.5273 106.562L38.7031 102.773H39.4766L37.7812 107.652C37.7422 107.757 37.6901 107.868 37.625 107.988C37.5625 108.111 37.4818 108.227 37.3828 108.336C37.2839 108.445 37.1641 108.534 37.0234 108.602C36.8854 108.672 36.7201 108.707 36.5273 108.707C36.4701 108.707 36.3971 108.699 36.3086 108.684C36.2201 108.668 36.1576 108.655 36.1211 108.645L36.1172 108.059C36.138 108.061 36.1706 108.064 36.2148 108.066C36.2617 108.072 36.2943 108.074 36.3125 108.074C36.4766 108.074 36.6159 108.052 36.7305 108.008C36.8451 107.966 36.9414 107.895 37.0195 107.793C37.1003 107.694 37.1693 107.557 37.2266 107.383L37.5273 106.562ZM36.6641 102.773L37.7617 106.055L37.9492 106.816L37.4297 107.082L35.875 102.773H36.6641ZM44.5742 105.879C44.5742 105.775 44.5508 105.678 44.5039 105.59C44.4596 105.499 44.3672 105.417 44.2266 105.344C44.0885 105.268 43.8802 105.203 43.6016 105.148C43.3672 105.099 43.1549 105.04 42.9648 104.973C42.7773 104.905 42.6172 104.823 42.4844 104.727C42.3542 104.63 42.2539 104.517 42.1836 104.387C42.1133 104.257 42.0781 104.104 42.0781 103.93C42.0781 103.763 42.1146 103.605 42.1875 103.457C42.263 103.309 42.3685 103.177 42.5039 103.062C42.6419 102.948 42.8073 102.858 43 102.793C43.1927 102.728 43.4076 102.695 43.6445 102.695C43.9831 102.695 44.2721 102.755 44.5117 102.875C44.7513 102.995 44.9349 103.155 45.0625 103.355C45.1901 103.553 45.2539 103.773 45.2539 104.016H44.5312C44.5312 103.898 44.4961 103.785 44.4258 103.676C44.3581 103.564 44.2578 103.471 44.125 103.398C43.9948 103.326 43.8346 103.289 43.6445 103.289C43.444 103.289 43.2812 103.32 43.1562 103.383C43.0339 103.443 42.944 103.52 42.8867 103.613C42.832 103.707 42.8047 103.806 42.8047 103.91C42.8047 103.988 42.8177 104.059 42.8438 104.121C42.8724 104.181 42.9219 104.237 42.9922 104.289C43.0625 104.339 43.1615 104.385 43.2891 104.43C43.4167 104.474 43.5794 104.518 43.7773 104.562C44.1237 104.641 44.4089 104.734 44.6328 104.844C44.8568 104.953 45.0234 105.087 45.1328 105.246C45.2422 105.405 45.2969 105.598 45.2969 105.824C45.2969 106.009 45.2578 106.178 45.1797 106.332C45.1042 106.486 44.9935 106.618 44.8477 106.73C44.7044 106.84 44.5326 106.926 44.332 106.988C44.1341 107.048 43.9115 107.078 43.6641 107.078C43.2917 107.078 42.9766 107.012 42.7188 106.879C42.4609 106.746 42.2656 106.574 42.1328 106.363C42 106.152 41.9336 105.93 41.9336 105.695H42.6602C42.6706 105.893 42.7279 106.051 42.832 106.168C42.9362 106.283 43.0638 106.365 43.2148 106.414C43.3659 106.461 43.5156 106.484 43.6641 106.484C43.862 106.484 44.0273 106.458 44.1602 106.406C44.2956 106.354 44.3984 106.283 44.4688 106.191C44.5391 106.1 44.5742 105.996 44.5742 105.879ZM48.832 106.023V102.773H49.5586V107H48.8672L48.832 106.023ZM48.9688 105.133L49.2695 105.125C49.2695 105.406 49.2396 105.667 49.1797 105.906C49.1224 106.143 49.0286 106.349 48.8984 106.523C48.7682 106.698 48.5977 106.835 48.3867 106.934C48.1758 107.03 47.9193 107.078 47.6172 107.078C47.4115 107.078 47.2227 107.048 47.0508 106.988C46.8815 106.928 46.7357 106.836 46.6133 106.711C46.4909 106.586 46.3958 106.423 46.3281 106.223C46.263 106.022 46.2305 105.781 46.2305 105.5V102.773H46.9531V105.508C46.9531 105.698 46.974 105.855 47.0156 105.98C47.0599 106.103 47.1185 106.201 47.1914 106.273C47.2669 106.344 47.3503 106.393 47.4414 106.422C47.5352 106.451 47.6315 106.465 47.7305 106.465C48.0378 106.465 48.2812 106.406 48.4609 106.289C48.6406 106.169 48.7695 106.009 48.8477 105.809C48.9284 105.605 48.9688 105.38 48.9688 105.133ZM50.6562 101H51.3828V106.18L51.3203 107H50.6562V101ZM54.2383 104.852V104.934C54.2383 105.241 54.2018 105.526 54.1289 105.789C54.056 106.049 53.9492 106.276 53.8086 106.469C53.668 106.661 53.4961 106.811 53.293 106.918C53.0898 107.025 52.8568 107.078 52.5938 107.078C52.3255 107.078 52.0898 107.033 51.8867 106.941C51.6862 106.848 51.5169 106.714 51.3789 106.539C51.2409 106.365 51.1302 106.154 51.0469 105.906C50.9661 105.659 50.9102 105.38 50.8789 105.07V104.711C50.9102 104.398 50.9661 104.118 51.0469 103.871C51.1302 103.624 51.2409 103.413 51.3789 103.238C51.5169 103.061 51.6862 102.927 51.8867 102.836C52.0872 102.742 52.3203 102.695 52.5859 102.695C52.8516 102.695 53.0872 102.747 53.293 102.852C53.4987 102.953 53.6706 103.099 53.8086 103.289C53.9492 103.479 54.056 103.707 54.1289 103.973C54.2018 104.236 54.2383 104.529 54.2383 104.852ZM53.5117 104.934V104.852C53.5117 104.641 53.4922 104.443 53.4531 104.258C53.4141 104.07 53.3516 103.906 53.2656 103.766C53.1797 103.622 53.0664 103.51 52.9258 103.43C52.7852 103.346 52.612 103.305 52.4062 103.305C52.224 103.305 52.0651 103.336 51.9297 103.398C51.7969 103.461 51.6836 103.546 51.5898 103.652C51.4961 103.757 51.4193 103.876 51.3594 104.012C51.3021 104.145 51.2591 104.283 51.2305 104.426V105.367C51.2721 105.549 51.3398 105.725 51.4336 105.895C51.5299 106.061 51.6576 106.198 51.8164 106.305C51.9779 106.411 52.1771 106.465 52.4141 106.465C52.6094 106.465 52.776 106.426 52.9141 106.348C53.0547 106.267 53.168 106.156 53.2539 106.016C53.3424 105.875 53.4076 105.712 53.4492 105.527C53.4909 105.342 53.5117 105.145 53.5117 104.934ZM57.6133 105.879C57.6133 105.775 57.5898 105.678 57.543 105.59C57.4987 105.499 57.4062 105.417 57.2656 105.344C57.1276 105.268 56.9193 105.203 56.6406 105.148C56.4062 105.099 56.194 105.04 56.0039 104.973C55.8164 104.905 55.6562 104.823 55.5234 104.727C55.3932 104.63 55.293 104.517 55.2227 104.387C55.1523 104.257 55.1172 104.104 55.1172 103.93C55.1172 103.763 55.1536 103.605 55.2266 103.457C55.3021 103.309 55.4076 103.177 55.543 103.062C55.681 102.948 55.8464 102.858 56.0391 102.793C56.2318 102.728 56.4466 102.695 56.6836 102.695C57.0221 102.695 57.3112 102.755 57.5508 102.875C57.7904 102.995 57.974 103.155 58.1016 103.355C58.2292 103.553 58.293 103.773 58.293 104.016H57.5703C57.5703 103.898 57.5352 103.785 57.4648 103.676C57.3971 103.564 57.2969 103.471 57.1641 103.398C57.0339 103.326 56.8737 103.289 56.6836 103.289C56.4831 103.289 56.3203 103.32 56.1953 103.383C56.0729 103.443 55.9831 103.52 55.9258 103.613C55.8711 103.707 55.8438 103.806 55.8438 103.91C55.8438 103.988 55.8568 104.059 55.8828 104.121C55.9115 104.181 55.9609 104.237 56.0312 104.289C56.1016 104.339 56.2005 104.385 56.3281 104.43C56.4557 104.474 56.6185 104.518 56.8164 104.562C57.1628 104.641 57.4479 104.734 57.6719 104.844C57.8958 104.953 58.0625 105.087 58.1719 105.246C58.2812 105.405 58.3359 105.598 58.3359 105.824C58.3359 106.009 58.2969 106.178 58.2188 106.332C58.1432 106.486 58.0326 106.618 57.8867 106.73C57.7435 106.84 57.5716 106.926 57.3711 106.988C57.1732 107.048 56.9505 107.078 56.7031 107.078C56.3307 107.078 56.0156 107.012 55.7578 106.879C55.5 106.746 55.3047 106.574 55.1719 106.363C55.0391 106.152 54.9727 105.93 54.9727 105.695H55.6992C55.7096 105.893 55.7669 106.051 55.8711 106.168C55.9753 106.283 56.1029 106.365 56.2539 106.414C56.4049 106.461 56.5547 106.484 56.7031 106.484C56.901 106.484 57.0664 106.458 57.1992 106.406C57.3346 106.354 57.4375 106.283 57.5078 106.191C57.5781 106.1 57.6133 105.996 57.6133 105.879ZM60.9766 106.484C61.1484 106.484 61.3073 106.449 61.4531 106.379C61.599 106.309 61.7188 106.212 61.8125 106.09C61.9062 105.965 61.9596 105.823 61.9727 105.664H62.6602C62.6471 105.914 62.5625 106.147 62.4062 106.363C62.2526 106.577 62.0508 106.75 61.8008 106.883C61.5508 107.013 61.276 107.078 60.9766 107.078C60.6589 107.078 60.3815 107.022 60.1445 106.91C59.9102 106.798 59.7148 106.645 59.5586 106.449C59.4049 106.254 59.2891 106.03 59.2109 105.777C59.1354 105.522 59.0977 105.253 59.0977 104.969V104.805C59.0977 104.521 59.1354 104.253 59.2109 104C59.2891 103.745 59.4049 103.52 59.5586 103.324C59.7148 103.129 59.9102 102.975 60.1445 102.863C60.3815 102.751 60.6589 102.695 60.9766 102.695C61.3073 102.695 61.5964 102.763 61.8438 102.898C62.0911 103.031 62.2852 103.214 62.4258 103.445C62.569 103.674 62.6471 103.935 62.6602 104.227H61.9727C61.9596 104.052 61.9102 103.895 61.8242 103.754C61.7409 103.613 61.6263 103.501 61.4805 103.418C61.3372 103.332 61.1693 103.289 60.9766 103.289C60.7552 103.289 60.569 103.333 60.418 103.422C60.2695 103.508 60.151 103.625 60.0625 103.773C59.9766 103.919 59.9141 104.082 59.875 104.262C59.8385 104.439 59.8203 104.62 59.8203 104.805V104.969C59.8203 105.154 59.8385 105.336 59.875 105.516C59.9115 105.695 59.9727 105.858 60.0586 106.004C60.1471 106.15 60.2656 106.267 60.4141 106.355C60.5651 106.441 60.7526 106.484 60.9766 106.484ZM64.1953 103.438V107H63.4727V102.773H64.1758L64.1953 103.438ZM65.5156 102.75L65.5117 103.422C65.4518 103.409 65.3945 103.401 65.3398 103.398C65.2878 103.393 65.2279 103.391 65.1602 103.391C64.9935 103.391 64.8464 103.417 64.7188 103.469C64.5911 103.521 64.4831 103.594 64.3945 103.688C64.306 103.781 64.2357 103.893 64.1836 104.023C64.1341 104.151 64.1016 104.292 64.0859 104.445L63.8828 104.562C63.8828 104.307 63.9076 104.068 63.957 103.844C64.0091 103.62 64.0885 103.422 64.1953 103.25C64.3021 103.076 64.4375 102.94 64.6016 102.844C64.7682 102.745 64.9661 102.695 65.1953 102.695C65.2474 102.695 65.3073 102.702 65.375 102.715C65.4427 102.725 65.4896 102.737 65.5156 102.75ZM66.9688 102.773V107H66.2422V102.773H66.9688ZM66.1875 101.652C66.1875 101.535 66.2227 101.436 66.293 101.355C66.3659 101.275 66.4727 101.234 66.6133 101.234C66.7513 101.234 66.8568 101.275 66.9297 101.355C67.0052 101.436 67.043 101.535 67.043 101.652C67.043 101.764 67.0052 101.861 66.9297 101.941C66.8568 102.02 66.7513 102.059 66.6133 102.059C66.4727 102.059 66.3659 102.02 66.293 101.941C66.2227 101.861 66.1875 101.764 66.1875 101.652ZM68.8516 103.586V108.625H68.125V102.773H68.7891L68.8516 103.586ZM71.6992 104.852V104.934C71.6992 105.241 71.6628 105.526 71.5898 105.789C71.5169 106.049 71.4102 106.276 71.2695 106.469C71.1315 106.661 70.9609 106.811 70.7578 106.918C70.5547 107.025 70.3216 107.078 70.0586 107.078C69.7904 107.078 69.5534 107.034 69.3477 106.945C69.1419 106.857 68.9674 106.728 68.8242 106.559C68.681 106.389 68.5664 106.186 68.4805 105.949C68.3971 105.712 68.3398 105.445 68.3086 105.148V104.711C68.3398 104.398 68.3984 104.118 68.4844 103.871C68.5703 103.624 68.6836 103.413 68.8242 103.238C68.9674 103.061 69.1406 102.927 69.3438 102.836C69.5469 102.742 69.7812 102.695 70.0469 102.695C70.3125 102.695 70.5482 102.747 70.7539 102.852C70.9596 102.953 71.1328 103.099 71.2734 103.289C71.4141 103.479 71.5195 103.707 71.5898 103.973C71.6628 104.236 71.6992 104.529 71.6992 104.852ZM70.9727 104.934V104.852C70.9727 104.641 70.9505 104.443 70.9062 104.258C70.862 104.07 70.793 103.906 70.6992 103.766C70.6081 103.622 70.4909 103.51 70.3477 103.43C70.2044 103.346 70.0339 103.305 69.8359 103.305C69.6536 103.305 69.4948 103.336 69.3594 103.398C69.2266 103.461 69.1133 103.546 69.0195 103.652C68.9258 103.757 68.849 103.876 68.7891 104.012C68.7318 104.145 68.6888 104.283 68.6602 104.426V105.438C68.7122 105.62 68.7852 105.792 68.8789 105.953C68.9727 106.112 69.0977 106.241 69.2539 106.34C69.4102 106.436 69.6068 106.484 69.8438 106.484C70.0391 106.484 70.207 106.444 70.3477 106.363C70.4909 106.28 70.6081 106.167 70.6992 106.023C70.793 105.88 70.862 105.716 70.9062 105.531C70.9505 105.344 70.9727 105.145 70.9727 104.934ZM74.3906 102.773V103.328H72.1055V102.773H74.3906ZM72.8789 101.746H73.6016V105.953C73.6016 106.096 73.6237 106.204 73.668 106.277C73.7122 106.35 73.7695 106.398 73.8398 106.422C73.9102 106.445 73.9857 106.457 74.0664 106.457C74.1263 106.457 74.1888 106.452 74.2539 106.441C74.3216 106.428 74.3724 106.418 74.4062 106.41L74.4102 107C74.3529 107.018 74.2773 107.035 74.1836 107.051C74.0924 107.069 73.9818 107.078 73.8516 107.078C73.6745 107.078 73.5117 107.043 73.3633 106.973C73.2148 106.902 73.0964 106.785 73.0078 106.621C72.9219 106.454 72.8789 106.23 72.8789 105.949V101.746ZM76.0234 102.773V107H75.2969V102.773H76.0234ZM75.2422 101.652C75.2422 101.535 75.2773 101.436 75.3477 101.355C75.4206 101.275 75.5273 101.234 75.668 101.234C75.806 101.234 75.9115 101.275 75.9844 101.355C76.0599 101.436 76.0977 101.535 76.0977 101.652C76.0977 101.764 76.0599 101.861 75.9844 101.941C75.9115 102.02 75.806 102.059 75.668 102.059C75.5273 102.059 75.4206 102.02 75.3477 101.941C75.2773 101.861 75.2422 101.764 75.2422 101.652ZM76.9922 104.934V104.844C76.9922 104.539 77.0365 104.257 77.125 103.996C77.2135 103.733 77.3411 103.505 77.5078 103.312C77.6745 103.117 77.8763 102.966 78.1133 102.859C78.3503 102.75 78.6159 102.695 78.9102 102.695C79.207 102.695 79.474 102.75 79.7109 102.859C79.9505 102.966 80.1536 103.117 80.3203 103.312C80.4896 103.505 80.6185 103.733 80.707 103.996C80.7956 104.257 80.8398 104.539 80.8398 104.844V104.934C80.8398 105.238 80.7956 105.521 80.707 105.781C80.6185 106.042 80.4896 106.27 80.3203 106.465C80.1536 106.658 79.9518 106.809 79.7148 106.918C79.4805 107.025 79.2148 107.078 78.918 107.078C78.6211 107.078 78.3542 107.025 78.1172 106.918C77.8802 106.809 77.6771 106.658 77.5078 106.465C77.3411 106.27 77.2135 106.042 77.125 105.781C77.0365 105.521 76.9922 105.238 76.9922 104.934ZM77.7148 104.844V104.934C77.7148 105.145 77.7396 105.344 77.7891 105.531C77.8385 105.716 77.9128 105.88 78.0117 106.023C78.1133 106.167 78.2396 106.28 78.3906 106.363C78.5417 106.444 78.7174 106.484 78.918 106.484C79.1159 106.484 79.2891 106.444 79.4375 106.363C79.5885 106.28 79.7135 106.167 79.8125 106.023C79.9115 105.88 79.9857 105.716 80.0352 105.531C80.0872 105.344 80.1133 105.145 80.1133 104.934V104.844C80.1133 104.635 80.0872 104.439 80.0352 104.254C79.9857 104.066 79.9102 103.901 79.8086 103.758C79.7096 103.612 79.5846 103.497 79.4336 103.414C79.2852 103.331 79.1107 103.289 78.9102 103.289C78.7122 103.289 78.5378 103.331 78.3867 103.414C78.2383 103.497 78.1133 103.612 78.0117 103.758C77.9128 103.901 77.8385 104.066 77.7891 104.254C77.7396 104.439 77.7148 104.635 77.7148 104.844ZM82.4688 103.676V107H81.7461V102.773H82.4297L82.4688 103.676ZM82.2969 104.727L81.9961 104.715C81.9987 104.426 82.0417 104.159 82.125 103.914C82.2083 103.667 82.3255 103.452 82.4766 103.27C82.6276 103.087 82.8073 102.947 83.0156 102.848C83.2266 102.746 83.4596 102.695 83.7148 102.695C83.9232 102.695 84.1107 102.724 84.2773 102.781C84.444 102.836 84.5859 102.924 84.7031 103.047C84.8229 103.169 84.9141 103.328 84.9766 103.523C85.0391 103.716 85.0703 103.952 85.0703 104.23V107H84.3438V104.223C84.3438 104.001 84.3112 103.824 84.2461 103.691C84.181 103.556 84.0859 103.458 83.9609 103.398C83.8359 103.336 83.6823 103.305 83.5 103.305C83.3203 103.305 83.1562 103.342 83.0078 103.418C82.862 103.493 82.7357 103.598 82.6289 103.73C82.5247 103.863 82.4427 104.016 82.3828 104.188C82.3255 104.357 82.2969 104.536 82.2969 104.727Z" fill="#343434"/>
<path d="M14.7969 51.625H16.2578L19.9844 60.8984L23.7031 51.625H25.1719L20.5469 63H19.4062L14.7969 51.625ZM14.3203 51.625H15.6094L15.8203 58.5625V63H14.3203V51.625ZM24.3516 51.625H25.6406V63H24.1406V58.5625L24.3516 51.625ZM33.0547 61.5547V57.2031C33.0547 56.8698 32.987 56.5807 32.8516 56.3359C32.7214 56.0859 32.5234 55.8932 32.2578 55.7578C31.9922 55.6224 31.6641 55.5547 31.2734 55.5547C30.9089 55.5547 30.5885 55.6172 30.3125 55.7422C30.0417 55.8672 29.8281 56.0312 29.6719 56.2344C29.5208 56.4375 29.4453 56.6562 29.4453 56.8906H28C28 56.5885 28.0781 56.2891 28.2344 55.9922C28.3906 55.6953 28.6146 55.4271 28.9062 55.1875C29.2031 54.9427 29.5573 54.75 29.9688 54.6094C30.3854 54.4635 30.849 54.3906 31.3594 54.3906C31.974 54.3906 32.5156 54.4948 32.9844 54.7031C33.4583 54.9115 33.8281 55.2266 34.0938 55.6484C34.3646 56.0651 34.5 56.5885 34.5 57.2188V61.1562C34.5 61.4375 34.5234 61.737 34.5703 62.0547C34.6224 62.3724 34.6979 62.6458 34.7969 62.875V63H33.2891C33.2161 62.8333 33.1589 62.612 33.1172 62.3359C33.0755 62.0547 33.0547 61.7943 33.0547 61.5547ZM33.3047 57.875L33.3203 58.8906H31.8594C31.4479 58.8906 31.0807 58.9245 30.7578 58.9922C30.4349 59.0547 30.1641 59.151 29.9453 59.2812C29.7266 59.4115 29.5599 59.5755 29.4453 59.7734C29.3307 59.9661 29.2734 60.1927 29.2734 60.4531C29.2734 60.7188 29.3333 60.9609 29.4531 61.1797C29.5729 61.3984 29.7526 61.5729 29.9922 61.7031C30.237 61.8281 30.5365 61.8906 30.8906 61.8906C31.3333 61.8906 31.724 61.7969 32.0625 61.6094C32.401 61.4219 32.6693 61.1927 32.8672 60.9219C33.0703 60.651 33.1797 60.388 33.1953 60.1328L33.8125 60.8281C33.776 61.0469 33.6771 61.2891 33.5156 61.5547C33.3542 61.8203 33.138 62.0755 32.8672 62.3203C32.6016 62.5599 32.2839 62.7604 31.9141 62.9219C31.5495 63.0781 31.138 63.1562 30.6797 63.1562C30.1068 63.1562 29.6042 63.0443 29.1719 62.8203C28.7448 62.5964 28.4115 62.2969 28.1719 61.9219C27.9375 61.5417 27.8203 61.1172 27.8203 60.6484C27.8203 60.1953 27.9089 59.7969 28.0859 59.4531C28.263 59.1042 28.5182 58.8151 28.8516 58.5859C29.1849 58.3516 29.5859 58.1745 30.0547 58.0547C30.5234 57.9349 31.0469 57.875 31.625 57.875H33.3047ZM38.2188 56.3516V63H36.7734V54.5469H38.1406L38.2188 56.3516ZM37.875 58.4531L37.2734 58.4297C37.2786 57.8516 37.3646 57.3177 37.5312 56.8281C37.6979 56.3333 37.9323 55.9036 38.2344 55.5391C38.5365 55.1745 38.8958 54.8932 39.3125 54.6953C39.7344 54.4922 40.2005 54.3906 40.7109 54.3906C41.1276 54.3906 41.5026 54.4479 41.8359 54.5625C42.1693 54.6719 42.4531 54.849 42.6875 55.0938C42.9271 55.3385 43.1094 55.6562 43.2344 56.0469C43.3594 56.4323 43.4219 56.9036 43.4219 57.4609V63H41.9688V57.4453C41.9688 57.0026 41.9036 56.6484 41.7734 56.3828C41.6432 56.112 41.4531 55.9167 41.2031 55.7969C40.9531 55.6719 40.6458 55.6094 40.2812 55.6094C39.9219 55.6094 39.5938 55.6849 39.2969 55.8359C39.0052 55.987 38.7526 56.1953 38.5391 56.4609C38.3307 56.7266 38.1667 57.0312 38.0469 57.375C37.9323 57.7135 37.875 58.0729 37.875 58.4531ZM50.7891 61.0469V54.5469H52.2422V63H50.8594L50.7891 61.0469ZM51.0625 59.2656L51.6641 59.25C51.6641 59.8125 51.6042 60.3333 51.4844 60.8125C51.3698 61.2865 51.1823 61.6979 50.9219 62.0469C50.6615 62.3958 50.3203 62.6693 49.8984 62.8672C49.4766 63.0599 48.9635 63.1562 48.3594 63.1562C47.9479 63.1562 47.5703 63.0964 47.2266 62.9766C46.888 62.8568 46.5964 62.6719 46.3516 62.4219C46.1068 62.1719 45.9167 61.8464 45.7812 61.4453C45.651 61.0443 45.5859 60.5625 45.5859 60V54.5469H47.0312V60.0156C47.0312 60.3958 47.0729 60.7109 47.1562 60.9609C47.2448 61.2057 47.362 61.401 47.5078 61.5469C47.6589 61.6875 47.8255 61.7865 48.0078 61.8438C48.1953 61.901 48.388 61.9297 48.5859 61.9297C49.2005 61.9297 49.6875 61.8125 50.0469 61.5781C50.4062 61.3385 50.6641 61.0182 50.8203 60.6172C50.9818 60.2109 51.0625 59.7604 51.0625 59.2656ZM59.4297 61.5547V57.2031C59.4297 56.8698 59.362 56.5807 59.2266 56.3359C59.0964 56.0859 58.8984 55.8932 58.6328 55.7578C58.3672 55.6224 58.0391 55.5547 57.6484 55.5547C57.2839 55.5547 56.9635 55.6172 56.6875 55.7422C56.4167 55.8672 56.2031 56.0312 56.0469 56.2344C55.8958 56.4375 55.8203 56.6562 55.8203 56.8906H54.375C54.375 56.5885 54.4531 56.2891 54.6094 55.9922C54.7656 55.6953 54.9896 55.4271 55.2812 55.1875C55.5781 54.9427 55.9323 54.75 56.3438 54.6094C56.7604 54.4635 57.224 54.3906 57.7344 54.3906C58.349 54.3906 58.8906 54.4948 59.3594 54.7031C59.8333 54.9115 60.2031 55.2266 60.4688 55.6484C60.7396 56.0651 60.875 56.5885 60.875 57.2188V61.1562C60.875 61.4375 60.8984 61.737 60.9453 62.0547C60.9974 62.3724 61.0729 62.6458 61.1719 62.875V63H59.6641C59.5911 62.8333 59.5339 62.612 59.4922 62.3359C59.4505 62.0547 59.4297 61.7943 59.4297 61.5547ZM59.6797 57.875L59.6953 58.8906H58.2344C57.8229 58.8906 57.4557 58.9245 57.1328 58.9922C56.8099 59.0547 56.5391 59.151 56.3203 59.2812C56.1016 59.4115 55.9349 59.5755 55.8203 59.7734C55.7057 59.9661 55.6484 60.1927 55.6484 60.4531C55.6484 60.7188 55.7083 60.9609 55.8281 61.1797C55.9479 61.3984 56.1276 61.5729 56.3672 61.7031C56.612 61.8281 56.9115 61.8906 57.2656 61.8906C57.7083 61.8906 58.099 61.7969 58.4375 61.6094C58.776 61.4219 59.0443 61.1927 59.2422 60.9219C59.4453 60.651 59.5547 60.388 59.5703 60.1328L60.1875 60.8281C60.151 61.0469 60.0521 61.2891 59.8906 61.5547C59.7292 61.8203 59.513 62.0755 59.2422 62.3203C58.9766 62.5599 58.6589 62.7604 58.2891 62.9219C57.9245 63.0781 57.513 63.1562 57.0547 63.1562C56.4818 63.1562 55.9792 63.0443 55.5469 62.8203C55.1198 62.5964 54.7865 62.2969 54.5469 61.9219C54.3125 61.5417 54.1953 61.1172 54.1953 60.6484C54.1953 60.1953 54.2839 59.7969 54.4609 59.4531C54.638 59.1042 54.8932 58.8151 55.2266 58.5859C55.5599 58.3516 55.9609 58.1745 56.4297 58.0547C56.8984 57.9349 57.4219 57.875 58 57.875H59.6797ZM64.7188 51V63H63.2656V51H64.7188ZM14.3203 70.625H18.0859C18.9401 70.625 19.6615 70.7552 20.25 71.0156C20.8438 71.276 21.2943 71.6615 21.6016 72.1719C21.9141 72.6771 22.0703 73.2995 22.0703 74.0391C22.0703 74.5599 21.9635 75.0365 21.75 75.4688C21.5417 75.8958 21.2396 76.2604 20.8438 76.5625C20.4531 76.8594 19.9844 77.0807 19.4375 77.2266L19.0156 77.3906H15.4766L15.4609 76.1641H18.1328C18.6745 76.1641 19.125 76.0703 19.4844 75.8828C19.8438 75.6901 20.1146 75.4323 20.2969 75.1094C20.4792 74.7865 20.5703 74.4297 20.5703 74.0391C20.5703 73.6016 20.4844 73.2188 20.3125 72.8906C20.1406 72.5625 19.8698 72.3099 19.5 72.1328C19.1354 71.9505 18.6641 71.8594 18.0859 71.8594H15.8281V82H14.3203V70.625ZM20.9688 82L18.2031 76.8438L19.7734 76.8359L22.5781 81.9062V82H20.9688ZM27.4688 82.1562C26.8802 82.1562 26.3464 82.0573 25.8672 81.8594C25.3932 81.6562 24.9844 81.3724 24.6406 81.0078C24.3021 80.6432 24.0417 80.2109 23.8594 79.7109C23.6771 79.2109 23.5859 78.6641 23.5859 78.0703V77.7422C23.5859 77.0547 23.6875 76.4427 23.8906 75.9062C24.0938 75.3646 24.3698 74.9062 24.7188 74.5312C25.0677 74.1562 25.4635 73.8724 25.9062 73.6797C26.349 73.487 26.8073 73.3906 27.2812 73.3906C27.8854 73.3906 28.4062 73.4948 28.8438 73.7031C29.2865 73.9115 29.6484 74.2031 29.9297 74.5781C30.2109 74.9479 30.4193 75.3854 30.5547 75.8906C30.6901 76.3906 30.7578 76.9375 30.7578 77.5312V78.1797H24.4453V77H29.3125V76.8906C29.2917 76.5156 29.2135 76.151 29.0781 75.7969C28.9479 75.4427 28.7396 75.151 28.4531 74.9219C28.1667 74.6927 27.776 74.5781 27.2812 74.5781C26.9531 74.5781 26.651 74.6484 26.375 74.7891C26.099 74.9245 25.862 75.1276 25.6641 75.3984C25.4661 75.6693 25.3125 76 25.2031 76.3906C25.0938 76.7812 25.0391 77.2318 25.0391 77.7422V78.0703C25.0391 78.4714 25.0938 78.849 25.2031 79.2031C25.3177 79.5521 25.4818 79.8594 25.6953 80.125C25.9141 80.3906 26.1771 80.599 26.4844 80.75C26.7969 80.901 27.151 80.9766 27.5469 80.9766C28.0573 80.9766 28.4896 80.8724 28.8438 80.6641C29.1979 80.4557 29.5078 80.1771 29.7734 79.8281L30.6484 80.5234C30.4661 80.7995 30.2344 81.0625 29.9531 81.3125C29.6719 81.5625 29.3255 81.7656 28.9141 81.9219C28.5078 82.0781 28.026 82.1562 27.4688 82.1562ZM33.8906 75.3516V82H32.4453V73.5469H33.8125L33.8906 75.3516ZM33.5469 77.4531L32.9453 77.4297C32.9505 76.8516 33.0365 76.3177 33.2031 75.8281C33.3698 75.3333 33.6042 74.9036 33.9062 74.5391C34.2083 74.1745 34.5677 73.8932 34.9844 73.6953C35.4062 73.4922 35.8724 73.3906 36.3828 73.3906C36.7995 73.3906 37.1745 73.4479 37.5078 73.5625C37.8411 73.6719 38.125 73.849 38.3594 74.0938C38.599 74.3385 38.7812 74.6562 38.9062 75.0469C39.0312 75.4323 39.0938 75.9036 39.0938 76.4609V82H37.6406V76.4453C37.6406 76.0026 37.5755 75.6484 37.4453 75.3828C37.3151 75.112 37.125 74.9167 36.875 74.7969C36.625 74.6719 36.3177 74.6094 35.9531 74.6094C35.5938 74.6094 35.2656 74.6849 34.9688 74.8359C34.6771 74.987 34.4245 75.1953 34.2109 75.4609C34.0026 75.7266 33.8385 76.0312 33.7188 76.375C33.6042 76.7135 33.5469 77.0729 33.5469 77.4531ZM44.7969 82.1562C44.2083 82.1562 43.6745 82.0573 43.1953 81.8594C42.7214 81.6562 42.3125 81.3724 41.9688 81.0078C41.6302 80.6432 41.3698 80.2109 41.1875 79.7109C41.0052 79.2109 40.9141 78.6641 40.9141 78.0703V77.7422C40.9141 77.0547 41.0156 76.4427 41.2188 75.9062C41.4219 75.3646 41.6979 74.9062 42.0469 74.5312C42.3958 74.1562 42.7917 73.8724 43.2344 73.6797C43.6771 73.487 44.1354 73.3906 44.6094 73.3906C45.2135 73.3906 45.7344 73.4948 46.1719 73.7031C46.6146 73.9115 46.9766 74.2031 47.2578 74.5781C47.5391 74.9479 47.7474 75.3854 47.8828 75.8906C48.0182 76.3906 48.0859 76.9375 48.0859 77.5312V78.1797H41.7734V77H46.6406V76.8906C46.6198 76.5156 46.5417 76.151 46.4062 75.7969C46.276 75.4427 46.0677 75.151 45.7812 74.9219C45.4948 74.6927 45.1042 74.5781 44.6094 74.5781C44.2812 74.5781 43.9792 74.6484 43.7031 74.7891C43.4271 74.9245 43.1901 75.1276 42.9922 75.3984C42.7943 75.6693 42.6406 76 42.5312 76.3906C42.4219 76.7812 42.3672 77.2318 42.3672 77.7422V78.0703C42.3672 78.4714 42.4219 78.849 42.5312 79.2031C42.6458 79.5521 42.8099 79.8594 43.0234 80.125C43.2422 80.3906 43.5052 80.599 43.8125 80.75C44.125 80.901 44.4792 80.9766 44.875 80.9766C45.3854 80.9766 45.8177 80.8724 46.1719 80.6641C46.526 80.4557 46.8359 80.1771 47.1016 79.8281L47.9766 80.5234C47.7943 80.7995 47.5625 81.0625 47.2812 81.3125C47 81.5625 46.6536 81.7656 46.2422 81.9219C45.8359 82.0781 45.3542 82.1562 44.7969 82.1562ZM51.9141 80.5L54.0859 73.5469H55.0391L54.8516 74.9297L52.6406 82H51.7109L51.9141 80.5ZM50.4531 73.5469L52.3047 80.5781L52.4375 82H51.4609L49.0078 73.5469H50.4531ZM57.1172 80.5234L58.8828 73.5469H60.3203L57.8672 82H56.8984L57.1172 80.5234ZM55.25 73.5469L57.375 80.3828L57.6172 82H56.6953L54.4219 74.9141L54.2344 73.5469H55.25ZM66.7891 80.5547V76.2031C66.7891 75.8698 66.7214 75.5807 66.5859 75.3359C66.4557 75.0859 66.2578 74.8932 65.9922 74.7578C65.7266 74.6224 65.3984 74.5547 65.0078 74.5547C64.6432 74.5547 64.3229 74.6172 64.0469 74.7422C63.776 74.8672 63.5625 75.0312 63.4062 75.2344C63.2552 75.4375 63.1797 75.6562 63.1797 75.8906H61.7344C61.7344 75.5885 61.8125 75.2891 61.9688 74.9922C62.125 74.6953 62.349 74.4271 62.6406 74.1875C62.9375 73.9427 63.2917 73.75 63.7031 73.6094C64.1198 73.4635 64.5833 73.3906 65.0938 73.3906C65.7083 73.3906 66.25 73.4948 66.7188 73.7031C67.1927 73.9115 67.5625 74.2266 67.8281 74.6484C68.099 75.0651 68.2344 75.5885 68.2344 76.2188V80.1562C68.2344 80.4375 68.2578 80.737 68.3047 81.0547C68.3568 81.3724 68.4323 81.6458 68.5312 81.875V82H67.0234C66.9505 81.8333 66.8932 81.612 66.8516 81.3359C66.8099 81.0547 66.7891 80.7943 66.7891 80.5547ZM67.0391 76.875L67.0547 77.8906H65.5938C65.1823 77.8906 64.8151 77.9245 64.4922 77.9922C64.1693 78.0547 63.8984 78.151 63.6797 78.2812C63.4609 78.4115 63.2943 78.5755 63.1797 78.7734C63.0651 78.9661 63.0078 79.1927 63.0078 79.4531C63.0078 79.7188 63.0677 79.9609 63.1875 80.1797C63.3073 80.3984 63.487 80.5729 63.7266 80.7031C63.9714 80.8281 64.2708 80.8906 64.625 80.8906C65.0677 80.8906 65.4583 80.7969 65.7969 80.6094C66.1354 80.4219 66.4036 80.1927 66.6016 79.9219C66.8047 79.651 66.9141 79.388 66.9297 79.1328L67.5469 79.8281C67.5104 80.0469 67.4115 80.2891 67.25 80.5547C67.0885 80.8203 66.8724 81.0755 66.6016 81.3203C66.3359 81.5599 66.0182 81.7604 65.6484 81.9219C65.2839 82.0781 64.8724 82.1562 64.4141 82.1562C63.8411 82.1562 63.3385 82.0443 62.9062 81.8203C62.4792 81.5964 62.1458 81.2969 61.9062 80.9219C61.6719 80.5417 61.5547 80.1172 61.5547 79.6484C61.5547 79.1953 61.6432 78.7969 61.8203 78.4531C61.9974 78.1042 62.2526 77.8151 62.5859 77.5859C62.9193 77.3516 63.3203 77.1745 63.7891 77.0547C64.2578 76.9349 64.7812 76.875 65.3594 76.875H67.0391ZM72.0781 70V82H70.625V70H72.0781Z" fill="#343434"/>
<path d="M30 40C38.8366 40 46 32.8366 46 24C46 15.1634 38.8366 8 30 8C21.1634 8 14 15.1634 14 24C14 32.8366 21.1634 40 30 40Z" fill="white"/>
<path d="M30 8C32.1012 8 34.1817 8.41385 36.1229 9.21793C38.0641 10.022 39.828 11.2006 41.3137 12.6863C42.7994 14.172 43.978 15.9359 44.7821 17.8771C45.5861 19.8183 46 21.8989 46 24L30 24L30 8Z" fill="#636363"/>
</svg>
