<svg width="130" height="152" viewBox="0 0 130 152" fill="none" xmlns="http://www.w3.org/2000/svg">
<rect x="0.5" y="0.5" width="129" height="151" rx="7.5" fill="#D9D9D9" stroke="#636363"/>
<path d="M22.3984 122.902V140H19.0234V126.793L14.9688 128.082V125.422L22.0352 122.902H22.3984ZM37.4453 129.945V140H34.0586V127.32H37.2344L37.4453 129.945ZM36.9766 133.215H36.0391C36.0391 132.332 36.1445 131.52 36.3555 130.777C36.5742 130.027 36.8906 129.379 37.3047 128.832C37.7266 128.277 38.2461 127.848 38.8633 127.543C39.4805 127.238 40.1953 127.086 41.0078 127.086C41.5703 127.086 42.0859 127.172 42.5547 127.344C43.0234 127.508 43.4258 127.77 43.7617 128.129C44.1055 128.48 44.3711 128.941 44.5586 129.512C44.7461 130.074 44.8398 130.75 44.8398 131.539V140H41.4648V131.914C41.4648 131.336 41.3867 130.891 41.2305 130.578C41.0742 130.266 40.8516 130.047 40.5625 129.922C40.2812 129.797 39.9414 129.734 39.543 129.734C39.1055 129.734 38.7227 129.824 38.3945 130.004C38.0742 130.184 37.8086 130.434 37.5977 130.754C37.3867 131.066 37.2305 131.434 37.1289 131.855C37.0273 132.277 36.9766 132.73 36.9766 133.215ZM44.5234 132.828L43.3164 132.98C43.3164 132.152 43.418 131.383 43.6211 130.672C43.832 129.961 44.1406 129.336 44.5469 128.797C44.9609 128.258 45.4727 127.84 46.082 127.543C46.6914 127.238 47.3945 127.086 48.1914 127.086C48.8008 127.086 49.3555 127.176 49.8555 127.355C50.3555 127.527 50.7812 127.805 51.1328 128.188C51.4922 128.562 51.7656 129.055 51.9531 129.664C52.1484 130.273 52.2461 131.02 52.2461 131.902V140H48.8594V131.902C48.8594 131.316 48.7812 130.871 48.625 130.566C48.4766 130.254 48.2578 130.039 47.9688 129.922C47.6875 129.797 47.3516 129.734 46.9609 129.734C46.5547 129.734 46.1992 129.816 45.8945 129.98C45.5898 130.137 45.3359 130.355 45.1328 130.637C44.9297 130.918 44.7773 131.246 44.6758 131.621C44.5742 131.988 44.5234 132.391 44.5234 132.828ZM54.3203 133.789V133.543C54.3203 132.613 54.4531 131.758 54.7188 130.977C54.9844 130.188 55.3711 129.504 55.8789 128.926C56.3867 128.348 57.0117 127.898 57.7539 127.578C58.4961 127.25 59.3477 127.086 60.3086 127.086C61.2695 127.086 62.125 127.25 62.875 127.578C63.625 127.898 64.2539 128.348 64.7617 128.926C65.2773 129.504 65.668 130.188 65.9336 130.977C66.1992 131.758 66.332 132.613 66.332 133.543V133.789C66.332 134.711 66.1992 135.566 65.9336 136.355C65.668 137.137 65.2773 137.82 64.7617 138.406C64.2539 138.984 63.6289 139.434 62.8867 139.754C62.1445 140.074 61.293 140.234 60.332 140.234C59.3711 140.234 58.5156 140.074 57.7656 139.754C57.0234 139.434 56.3945 138.984 55.8789 138.406C55.3711 137.82 54.9844 137.137 54.7188 136.355C54.4531 135.566 54.3203 134.711 54.3203 133.789ZM57.6953 133.543V133.789C57.6953 134.32 57.7422 134.816 57.8359 135.277C57.9297 135.738 58.0781 136.145 58.2812 136.496C58.4922 136.84 58.7656 137.109 59.1016 137.305C59.4375 137.5 59.8477 137.598 60.332 137.598C60.8008 137.598 61.2031 137.5 61.5391 137.305C61.875 137.109 62.1445 136.84 62.3477 136.496C62.5508 136.145 62.6992 135.738 62.793 135.277C62.8945 134.816 62.9453 134.32 62.9453 133.789V133.543C62.9453 133.027 62.8945 132.543 62.793 132.09C62.6992 131.629 62.5469 131.223 62.3359 130.871C62.1328 130.512 61.8633 130.23 61.5273 130.027C61.1914 129.824 60.7852 129.723 60.3086 129.723C59.832 129.723 59.4258 129.824 59.0898 130.027C58.7617 130.23 58.4922 130.512 58.2812 130.871C58.0781 131.223 57.9297 131.629 57.8359 132.09C57.7422 132.543 57.6953 133.027 57.6953 133.543ZM71.7109 130.027V140H68.3359V127.32H71.5L71.7109 130.027ZM71.2188 133.215H70.3047C70.3047 132.277 70.4258 131.434 70.668 130.684C70.9102 129.926 71.25 129.281 71.6875 128.75C72.125 128.211 72.6445 127.801 73.2461 127.52C73.8555 127.23 74.5352 127.086 75.2852 127.086C75.8789 127.086 76.4219 127.172 76.9141 127.344C77.4062 127.516 77.8281 127.789 78.1797 128.164C78.5391 128.539 78.8125 129.035 79 129.652C79.1953 130.27 79.293 131.023 79.293 131.914V140H75.8945V131.902C75.8945 131.34 75.8164 130.902 75.6602 130.59C75.5039 130.277 75.2734 130.059 74.9688 129.934C74.6719 129.801 74.3047 129.734 73.8672 129.734C73.4141 129.734 73.0195 129.824 72.6836 130.004C72.3555 130.184 72.082 130.434 71.8633 130.754C71.6523 131.066 71.4922 131.434 71.3828 131.855C71.2734 132.277 71.2188 132.73 71.2188 133.215ZM88.0703 127.32V129.711H80.6875V127.32H88.0703ZM82.5156 124.191H85.8906V136.18C85.8906 136.547 85.9375 136.828 86.0312 137.023C86.1328 137.219 86.2812 137.355 86.4766 137.434C86.6719 137.504 86.918 137.539 87.2148 137.539C87.4258 137.539 87.6133 137.531 87.7773 137.516C87.9492 137.492 88.0938 137.469 88.2109 137.445L88.2227 139.93C87.9336 140.023 87.6211 140.098 87.2852 140.152C86.9492 140.207 86.5781 140.234 86.1719 140.234C85.4297 140.234 84.7812 140.113 84.2266 139.871C83.6797 139.621 83.2578 139.223 82.9609 138.676C82.6641 138.129 82.5156 137.41 82.5156 136.52V124.191ZM93.2852 122V140H89.9102V122H93.2852ZM92.8047 133.215H91.8789C91.8867 132.332 92.0039 131.52 92.2305 130.777C92.457 130.027 92.7812 129.379 93.2031 128.832C93.625 128.277 94.1289 127.848 94.7148 127.543C95.3086 127.238 95.9648 127.086 96.6836 127.086C97.3086 127.086 97.875 127.176 98.3828 127.355C98.8984 127.527 99.3398 127.809 99.707 128.199C100.082 128.582 100.371 129.086 100.574 129.711C100.777 130.336 100.879 131.094 100.879 131.984V140H97.4805V131.961C97.4805 131.398 97.3984 130.957 97.2344 130.637C97.0781 130.309 96.8477 130.078 96.543 129.945C96.2461 129.805 95.8789 129.734 95.4414 129.734C94.957 129.734 94.543 129.824 94.1992 130.004C93.8633 130.184 93.5938 130.434 93.3906 130.754C93.1875 131.066 93.0391 131.434 92.9453 131.855C92.8516 132.277 92.8047 132.73 92.8047 133.215Z" fill="#343434"/>
<path d="M14.8984 101.312H15.6289L17.4922 105.949L19.3516 101.312H20.0859L17.7734 107H17.2031L14.8984 101.312ZM14.6602 101.312H15.3047L15.4102 104.781V107H14.6602V101.312ZM19.6758 101.312H20.3203V107H19.5703V104.781L19.6758 101.312ZM21.3438 104.934V104.844C21.3438 104.539 21.388 104.257 21.4766 103.996C21.5651 103.733 21.6927 103.505 21.8594 103.312C22.026 103.117 22.2279 102.966 22.4648 102.859C22.7018 102.75 22.9674 102.695 23.2617 102.695C23.5586 102.695 23.8255 102.75 24.0625 102.859C24.3021 102.966 24.5052 103.117 24.6719 103.312C24.8411 103.505 24.9701 103.733 25.0586 103.996C25.1471 104.257 25.1914 104.539 25.1914 104.844V104.934C25.1914 105.238 25.1471 105.521 25.0586 105.781C24.9701 106.042 24.8411 106.27 24.6719 106.465C24.5052 106.658 24.3034 106.809 24.0664 106.918C23.832 107.025 23.5664 107.078 23.2695 107.078C22.9727 107.078 22.7057 107.025 22.4688 106.918C22.2318 106.809 22.0286 106.658 21.8594 106.465C21.6927 106.27 21.5651 106.042 21.4766 105.781C21.388 105.521 21.3438 105.238 21.3438 104.934ZM22.0664 104.844V104.934C22.0664 105.145 22.0911 105.344 22.1406 105.531C22.1901 105.716 22.2643 105.88 22.3633 106.023C22.4648 106.167 22.5911 106.28 22.7422 106.363C22.8932 106.444 23.069 106.484 23.2695 106.484C23.4674 106.484 23.6406 106.444 23.7891 106.363C23.9401 106.28 24.0651 106.167 24.1641 106.023C24.263 105.88 24.3372 105.716 24.3867 105.531C24.4388 105.344 24.4648 105.145 24.4648 104.934V104.844C24.4648 104.635 24.4388 104.439 24.3867 104.254C24.3372 104.066 24.2617 103.901 24.1602 103.758C24.0612 103.612 23.9362 103.497 23.7852 103.414C23.6367 103.331 23.4622 103.289 23.2617 103.289C23.0638 103.289 22.8893 103.331 22.7383 103.414C22.5898 103.497 22.4648 103.612 22.3633 103.758C22.2643 103.901 22.1901 104.066 22.1406 104.254C22.0911 104.439 22.0664 104.635 22.0664 104.844ZM26.8203 103.676V107H26.0977V102.773H26.7812L26.8203 103.676ZM26.6484 104.727L26.3477 104.715C26.3503 104.426 26.3932 104.159 26.4766 103.914C26.5599 103.667 26.6771 103.452 26.8281 103.27C26.9792 103.087 27.1589 102.947 27.3672 102.848C27.5781 102.746 27.8112 102.695 28.0664 102.695C28.2747 102.695 28.4622 102.724 28.6289 102.781C28.7956 102.836 28.9375 102.924 29.0547 103.047C29.1745 103.169 29.2656 103.328 29.3281 103.523C29.3906 103.716 29.4219 103.952 29.4219 104.23V107H28.6953V104.223C28.6953 104.001 28.6628 103.824 28.5977 103.691C28.5326 103.556 28.4375 103.458 28.3125 103.398C28.1875 103.336 28.0339 103.305 27.8516 103.305C27.6719 103.305 27.5078 103.342 27.3594 103.418C27.2135 103.493 27.0872 103.598 26.9805 103.73C26.8763 103.863 26.7943 104.016 26.7344 104.188C26.6771 104.357 26.6484 104.536 26.6484 104.727ZM32.2891 102.773V103.328H30.0039V102.773H32.2891ZM30.7773 101.746H31.5V105.953C31.5 106.096 31.5221 106.204 31.5664 106.277C31.6107 106.35 31.668 106.398 31.7383 106.422C31.8086 106.445 31.8841 106.457 31.9648 106.457C32.0247 106.457 32.0872 106.452 32.1523 106.441C32.2201 106.428 32.2708 106.418 32.3047 106.41L32.3086 107C32.2513 107.018 32.1758 107.035 32.082 107.051C31.9909 107.069 31.8802 107.078 31.75 107.078C31.5729 107.078 31.4102 107.043 31.2617 106.973C31.1133 106.902 30.9948 106.785 30.9062 106.621C30.8203 106.454 30.7773 106.23 30.7773 105.949V101.746ZM33.8594 101V107H33.1367V101H33.8594ZM33.6875 104.727L33.3867 104.715C33.3893 104.426 33.4323 104.159 33.5156 103.914C33.599 103.667 33.7161 103.452 33.8672 103.27C34.0182 103.087 34.1979 102.947 34.4062 102.848C34.6172 102.746 34.8503 102.695 35.1055 102.695C35.3138 102.695 35.5013 102.724 35.668 102.781C35.8346 102.836 35.9766 102.924 36.0938 103.047C36.2135 103.169 36.3047 103.328 36.3672 103.523C36.4297 103.716 36.4609 103.952 36.4609 104.23V107H35.7344V104.223C35.7344 104.001 35.7018 103.824 35.6367 103.691C35.5716 103.556 35.4766 103.458 35.3516 103.398C35.2266 103.336 35.0729 103.305 34.8906 103.305C34.7109 103.305 34.5469 103.342 34.3984 103.418C34.2526 103.493 34.1263 103.598 34.0195 103.73C33.9154 103.863 33.8333 104.016 33.7734 104.188C33.7161 104.357 33.6875 104.536 33.6875 104.727ZM38.3281 101V107H37.6016V101H38.3281ZM40.6758 106.562L41.8516 102.773H42.625L40.9297 107.652C40.8906 107.757 40.8385 107.868 40.7734 107.988C40.7109 108.111 40.6302 108.227 40.5312 108.336C40.4323 108.445 40.3125 108.534 40.1719 108.602C40.0339 108.672 39.8685 108.707 39.6758 108.707C39.6185 108.707 39.5456 108.699 39.457 108.684C39.3685 108.668 39.306 108.655 39.2695 108.645L39.2656 108.059C39.2865 108.061 39.319 108.064 39.3633 108.066C39.4102 108.072 39.4427 108.074 39.4609 108.074C39.625 108.074 39.7643 108.052 39.8789 108.008C39.9935 107.966 40.0898 107.895 40.168 107.793C40.2487 107.694 40.3177 107.557 40.375 107.383L40.6758 106.562ZM39.8125 102.773L40.9102 106.055L41.0977 106.816L40.5781 107.082L39.0234 102.773H39.8125ZM47.7227 105.879C47.7227 105.775 47.6992 105.678 47.6523 105.59C47.6081 105.499 47.5156 105.417 47.375 105.344C47.237 105.268 47.0286 105.203 46.75 105.148C46.5156 105.099 46.3034 105.04 46.1133 104.973C45.9258 104.905 45.7656 104.823 45.6328 104.727C45.5026 104.63 45.4023 104.517 45.332 104.387C45.2617 104.257 45.2266 104.104 45.2266 103.93C45.2266 103.763 45.263 103.605 45.3359 103.457C45.4115 103.309 45.5169 103.177 45.6523 103.062C45.7904 102.948 45.9557 102.858 46.1484 102.793C46.3411 102.728 46.556 102.695 46.793 102.695C47.1315 102.695 47.4206 102.755 47.6602 102.875C47.8997 102.995 48.0833 103.155 48.2109 103.355C48.3385 103.553 48.4023 103.773 48.4023 104.016H47.6797C47.6797 103.898 47.6445 103.785 47.5742 103.676C47.5065 103.564 47.4062 103.471 47.2734 103.398C47.1432 103.326 46.9831 103.289 46.793 103.289C46.5924 103.289 46.4297 103.32 46.3047 103.383C46.1823 103.443 46.0924 103.52 46.0352 103.613C45.9805 103.707 45.9531 103.806 45.9531 103.91C45.9531 103.988 45.9661 104.059 45.9922 104.121C46.0208 104.181 46.0703 104.237 46.1406 104.289C46.2109 104.339 46.3099 104.385 46.4375 104.43C46.5651 104.474 46.7279 104.518 46.9258 104.562C47.2721 104.641 47.5573 104.734 47.7812 104.844C48.0052 104.953 48.1719 105.087 48.2812 105.246C48.3906 105.405 48.4453 105.598 48.4453 105.824C48.4453 106.009 48.4062 106.178 48.3281 106.332C48.2526 106.486 48.1419 106.618 47.9961 106.73C47.8529 106.84 47.681 106.926 47.4805 106.988C47.2826 107.048 47.0599 107.078 46.8125 107.078C46.4401 107.078 46.125 107.012 45.8672 106.879C45.6094 106.746 45.4141 106.574 45.2812 106.363C45.1484 106.152 45.082 105.93 45.082 105.695H45.8086C45.819 105.893 45.8763 106.051 45.9805 106.168C46.0846 106.283 46.2122 106.365 46.3633 106.414C46.5143 106.461 46.6641 106.484 46.8125 106.484C47.0104 106.484 47.1758 106.458 47.3086 106.406C47.444 106.354 47.5469 106.283 47.6172 106.191C47.6875 106.1 47.7227 105.996 47.7227 105.879ZM51.9805 106.023V102.773H52.707V107H52.0156L51.9805 106.023ZM52.1172 105.133L52.418 105.125C52.418 105.406 52.388 105.667 52.3281 105.906C52.2708 106.143 52.1771 106.349 52.0469 106.523C51.9167 106.698 51.7461 106.835 51.5352 106.934C51.3242 107.03 51.0677 107.078 50.7656 107.078C50.5599 107.078 50.3711 107.048 50.1992 106.988C50.0299 106.928 49.8841 106.836 49.7617 106.711C49.6393 106.586 49.5443 106.423 49.4766 106.223C49.4115 106.022 49.3789 105.781 49.3789 105.5V102.773H50.1016V105.508C50.1016 105.698 50.1224 105.855 50.1641 105.98C50.2083 106.103 50.2669 106.201 50.3398 106.273C50.4154 106.344 50.4987 106.393 50.5898 106.422C50.6836 106.451 50.7799 106.465 50.8789 106.465C51.1862 106.465 51.4297 106.406 51.6094 106.289C51.7891 106.169 51.918 106.009 51.9961 105.809C52.0768 105.605 52.1172 105.38 52.1172 105.133ZM53.8047 101H54.5312V106.18L54.4688 107H53.8047V101ZM57.3867 104.852V104.934C57.3867 105.241 57.3503 105.526 57.2773 105.789C57.2044 106.049 57.0977 106.276 56.957 106.469C56.8164 106.661 56.6445 106.811 56.4414 106.918C56.2383 107.025 56.0052 107.078 55.7422 107.078C55.474 107.078 55.2383 107.033 55.0352 106.941C54.8346 106.848 54.6654 106.714 54.5273 106.539C54.3893 106.365 54.2786 106.154 54.1953 105.906C54.1146 105.659 54.0586 105.38 54.0273 105.07V104.711C54.0586 104.398 54.1146 104.118 54.1953 103.871C54.2786 103.624 54.3893 103.413 54.5273 103.238C54.6654 103.061 54.8346 102.927 55.0352 102.836C55.2357 102.742 55.4688 102.695 55.7344 102.695C56 102.695 56.2357 102.747 56.4414 102.852C56.6471 102.953 56.819 103.099 56.957 103.289C57.0977 103.479 57.2044 103.707 57.2773 103.973C57.3503 104.236 57.3867 104.529 57.3867 104.852ZM56.6602 104.934V104.852C56.6602 104.641 56.6406 104.443 56.6016 104.258C56.5625 104.07 56.5 103.906 56.4141 103.766C56.3281 103.622 56.2148 103.51 56.0742 103.43C55.9336 103.346 55.7604 103.305 55.5547 103.305C55.3724 103.305 55.2135 103.336 55.0781 103.398C54.9453 103.461 54.832 103.546 54.7383 103.652C54.6445 103.757 54.5677 103.876 54.5078 104.012C54.4505 104.145 54.4076 104.283 54.3789 104.426V105.367C54.4206 105.549 54.4883 105.725 54.582 105.895C54.6784 106.061 54.806 106.198 54.9648 106.305C55.1263 106.411 55.3255 106.465 55.5625 106.465C55.7578 106.465 55.9245 106.426 56.0625 106.348C56.2031 106.267 56.3164 106.156 56.4023 106.016C56.4909 105.875 56.556 105.712 56.5977 105.527C56.6393 105.342 56.6602 105.145 56.6602 104.934ZM60.7617 105.879C60.7617 105.775 60.7383 105.678 60.6914 105.59C60.6471 105.499 60.5547 105.417 60.4141 105.344C60.276 105.268 60.0677 105.203 59.7891 105.148C59.5547 105.099 59.3424 105.04 59.1523 104.973C58.9648 104.905 58.8047 104.823 58.6719 104.727C58.5417 104.63 58.4414 104.517 58.3711 104.387C58.3008 104.257 58.2656 104.104 58.2656 103.93C58.2656 103.763 58.3021 103.605 58.375 103.457C58.4505 103.309 58.556 103.177 58.6914 103.062C58.8294 102.948 58.9948 102.858 59.1875 102.793C59.3802 102.728 59.5951 102.695 59.832 102.695C60.1706 102.695 60.4596 102.755 60.6992 102.875C60.9388 102.995 61.1224 103.155 61.25 103.355C61.3776 103.553 61.4414 103.773 61.4414 104.016H60.7188C60.7188 103.898 60.6836 103.785 60.6133 103.676C60.5456 103.564 60.4453 103.471 60.3125 103.398C60.1823 103.326 60.0221 103.289 59.832 103.289C59.6315 103.289 59.4688 103.32 59.3438 103.383C59.2214 103.443 59.1315 103.52 59.0742 103.613C59.0195 103.707 58.9922 103.806 58.9922 103.91C58.9922 103.988 59.0052 104.059 59.0312 104.121C59.0599 104.181 59.1094 104.237 59.1797 104.289C59.25 104.339 59.349 104.385 59.4766 104.43C59.6042 104.474 59.7669 104.518 59.9648 104.562C60.3112 104.641 60.5964 104.734 60.8203 104.844C61.0443 104.953 61.2109 105.087 61.3203 105.246C61.4297 105.405 61.4844 105.598 61.4844 105.824C61.4844 106.009 61.4453 106.178 61.3672 106.332C61.2917 106.486 61.181 106.618 61.0352 106.73C60.8919 106.84 60.7201 106.926 60.5195 106.988C60.3216 107.048 60.099 107.078 59.8516 107.078C59.4792 107.078 59.1641 107.012 58.9062 106.879C58.6484 106.746 58.4531 106.574 58.3203 106.363C58.1875 106.152 58.1211 105.93 58.1211 105.695H58.8477C58.8581 105.893 58.9154 106.051 59.0195 106.168C59.1237 106.283 59.2513 106.365 59.4023 106.414C59.5534 106.461 59.7031 106.484 59.8516 106.484C60.0495 106.484 60.2148 106.458 60.3477 106.406C60.4831 106.354 60.5859 106.283 60.6562 106.191C60.7266 106.1 60.7617 105.996 60.7617 105.879ZM64.125 106.484C64.2969 106.484 64.4557 106.449 64.6016 106.379C64.7474 106.309 64.8672 106.212 64.9609 106.09C65.0547 105.965 65.1081 105.823 65.1211 105.664H65.8086C65.7956 105.914 65.7109 106.147 65.5547 106.363C65.401 106.577 65.1992 106.75 64.9492 106.883C64.6992 107.013 64.4245 107.078 64.125 107.078C63.8073 107.078 63.5299 107.022 63.293 106.91C63.0586 106.798 62.8633 106.645 62.707 106.449C62.5534 106.254 62.4375 106.03 62.3594 105.777C62.2839 105.522 62.2461 105.253 62.2461 104.969V104.805C62.2461 104.521 62.2839 104.253 62.3594 104C62.4375 103.745 62.5534 103.52 62.707 103.324C62.8633 103.129 63.0586 102.975 63.293 102.863C63.5299 102.751 63.8073 102.695 64.125 102.695C64.4557 102.695 64.7448 102.763 64.9922 102.898C65.2396 103.031 65.4336 103.214 65.5742 103.445C65.7174 103.674 65.7956 103.935 65.8086 104.227H65.1211C65.1081 104.052 65.0586 103.895 64.9727 103.754C64.8893 103.613 64.7747 103.501 64.6289 103.418C64.4857 103.332 64.3177 103.289 64.125 103.289C63.9036 103.289 63.7174 103.333 63.5664 103.422C63.418 103.508 63.2995 103.625 63.2109 103.773C63.125 103.919 63.0625 104.082 63.0234 104.262C62.987 104.439 62.9688 104.62 62.9688 104.805V104.969C62.9688 105.154 62.987 105.336 63.0234 105.516C63.0599 105.695 63.1211 105.858 63.207 106.004C63.2956 106.15 63.4141 106.267 63.5625 106.355C63.7135 106.441 63.901 106.484 64.125 106.484ZM67.3438 103.438V107H66.6211V102.773H67.3242L67.3438 103.438ZM68.6641 102.75L68.6602 103.422C68.6003 103.409 68.543 103.401 68.4883 103.398C68.4362 103.393 68.3763 103.391 68.3086 103.391C68.1419 103.391 67.9948 103.417 67.8672 103.469C67.7396 103.521 67.6315 103.594 67.543 103.688C67.4544 103.781 67.3841 103.893 67.332 104.023C67.2826 104.151 67.25 104.292 67.2344 104.445L67.0312 104.562C67.0312 104.307 67.056 104.068 67.1055 103.844C67.1576 103.62 67.237 103.422 67.3438 103.25C67.4505 103.076 67.5859 102.94 67.75 102.844C67.9167 102.745 68.1146 102.695 68.3438 102.695C68.3958 102.695 68.4557 102.702 68.5234 102.715C68.5911 102.725 68.638 102.737 68.6641 102.75ZM70.1172 102.773V107H69.3906V102.773H70.1172ZM69.3359 101.652C69.3359 101.535 69.3711 101.436 69.4414 101.355C69.5143 101.275 69.6211 101.234 69.7617 101.234C69.8997 101.234 70.0052 101.275 70.0781 101.355C70.1536 101.436 70.1914 101.535 70.1914 101.652C70.1914 101.764 70.1536 101.861 70.0781 101.941C70.0052 102.02 69.8997 102.059 69.7617 102.059C69.6211 102.059 69.5143 102.02 69.4414 101.941C69.3711 101.861 69.3359 101.764 69.3359 101.652ZM72 103.586V108.625H71.2734V102.773H71.9375L72 103.586ZM74.8477 104.852V104.934C74.8477 105.241 74.8112 105.526 74.7383 105.789C74.6654 106.049 74.5586 106.276 74.418 106.469C74.2799 106.661 74.1094 106.811 73.9062 106.918C73.7031 107.025 73.4701 107.078 73.207 107.078C72.9388 107.078 72.7018 107.034 72.4961 106.945C72.2904 106.857 72.1159 106.728 71.9727 106.559C71.8294 106.389 71.7148 106.186 71.6289 105.949C71.5456 105.712 71.4883 105.445 71.457 105.148V104.711C71.4883 104.398 71.5469 104.118 71.6328 103.871C71.7188 103.624 71.832 103.413 71.9727 103.238C72.1159 103.061 72.2891 102.927 72.4922 102.836C72.6953 102.742 72.9297 102.695 73.1953 102.695C73.4609 102.695 73.6966 102.747 73.9023 102.852C74.1081 102.953 74.2812 103.099 74.4219 103.289C74.5625 103.479 74.668 103.707 74.7383 103.973C74.8112 104.236 74.8477 104.529 74.8477 104.852ZM74.1211 104.934V104.852C74.1211 104.641 74.099 104.443 74.0547 104.258C74.0104 104.07 73.9414 103.906 73.8477 103.766C73.7565 103.622 73.6393 103.51 73.4961 103.43C73.3529 103.346 73.1823 103.305 72.9844 103.305C72.8021 103.305 72.6432 103.336 72.5078 103.398C72.375 103.461 72.2617 103.546 72.168 103.652C72.0742 103.757 71.9974 103.876 71.9375 104.012C71.8802 104.145 71.8372 104.283 71.8086 104.426V105.438C71.8607 105.62 71.9336 105.792 72.0273 105.953C72.1211 106.112 72.2461 106.241 72.4023 106.34C72.5586 106.436 72.7552 106.484 72.9922 106.484C73.1875 106.484 73.3555 106.444 73.4961 106.363C73.6393 106.28 73.7565 106.167 73.8477 106.023C73.9414 105.88 74.0104 105.716 74.0547 105.531C74.099 105.344 74.1211 105.145 74.1211 104.934ZM77.5391 102.773V103.328H75.2539V102.773H77.5391ZM76.0273 101.746H76.75V105.953C76.75 106.096 76.7721 106.204 76.8164 106.277C76.8607 106.35 76.918 106.398 76.9883 106.422C77.0586 106.445 77.1341 106.457 77.2148 106.457C77.2747 106.457 77.3372 106.452 77.4023 106.441C77.4701 106.428 77.5208 106.418 77.5547 106.41L77.5586 107C77.5013 107.018 77.4258 107.035 77.332 107.051C77.2409 107.069 77.1302 107.078 77 107.078C76.8229 107.078 76.6602 107.043 76.5117 106.973C76.3633 106.902 76.2448 106.785 76.1562 106.621C76.0703 106.454 76.0273 106.23 76.0273 105.949V101.746ZM79.1719 102.773V107H78.4453V102.773H79.1719ZM78.3906 101.652C78.3906 101.535 78.4258 101.436 78.4961 101.355C78.569 101.275 78.6758 101.234 78.8164 101.234C78.9544 101.234 79.0599 101.275 79.1328 101.355C79.2083 101.436 79.2461 101.535 79.2461 101.652C79.2461 101.764 79.2083 101.861 79.1328 101.941C79.0599 102.02 78.9544 102.059 78.8164 102.059C78.6758 102.059 78.569 102.02 78.4961 101.941C78.4258 101.861 78.3906 101.764 78.3906 101.652ZM80.1406 104.934V104.844C80.1406 104.539 80.1849 104.257 80.2734 103.996C80.362 103.733 80.4896 103.505 80.6562 103.312C80.8229 103.117 81.0247 102.966 81.2617 102.859C81.4987 102.75 81.7643 102.695 82.0586 102.695C82.3555 102.695 82.6224 102.75 82.8594 102.859C83.099 102.966 83.3021 103.117 83.4688 103.312C83.638 103.505 83.7669 103.733 83.8555 103.996C83.944 104.257 83.9883 104.539 83.9883 104.844V104.934C83.9883 105.238 83.944 105.521 83.8555 105.781C83.7669 106.042 83.638 106.27 83.4688 106.465C83.3021 106.658 83.1003 106.809 82.8633 106.918C82.6289 107.025 82.3633 107.078 82.0664 107.078C81.7695 107.078 81.5026 107.025 81.2656 106.918C81.0286 106.809 80.8255 106.658 80.6562 106.465C80.4896 106.27 80.362 106.042 80.2734 105.781C80.1849 105.521 80.1406 105.238 80.1406 104.934ZM80.8633 104.844V104.934C80.8633 105.145 80.888 105.344 80.9375 105.531C80.987 105.716 81.0612 105.88 81.1602 106.023C81.2617 106.167 81.388 106.28 81.5391 106.363C81.6901 106.444 81.8659 106.484 82.0664 106.484C82.2643 106.484 82.4375 106.444 82.5859 106.363C82.737 106.28 82.862 106.167 82.9609 106.023C83.0599 105.88 83.1341 105.716 83.1836 105.531C83.2357 105.344 83.2617 105.145 83.2617 104.934V104.844C83.2617 104.635 83.2357 104.439 83.1836 104.254C83.1341 104.066 83.0586 103.901 82.957 103.758C82.8581 103.612 82.7331 103.497 82.582 103.414C82.4336 103.331 82.2591 103.289 82.0586 103.289C81.8607 103.289 81.6862 103.331 81.5352 103.414C81.3867 103.497 81.2617 103.612 81.1602 103.758C81.0612 103.901 80.987 104.066 80.9375 104.254C80.888 104.439 80.8633 104.635 80.8633 104.844ZM85.6172 103.676V107H84.8945V102.773H85.5781L85.6172 103.676ZM85.4453 104.727L85.1445 104.715C85.1471 104.426 85.1901 104.159 85.2734 103.914C85.3568 103.667 85.474 103.452 85.625 103.27C85.776 103.087 85.9557 102.947 86.1641 102.848C86.375 102.746 86.6081 102.695 86.8633 102.695C87.0716 102.695 87.2591 102.724 87.4258 102.781C87.5924 102.836 87.7344 102.924 87.8516 103.047C87.9714 103.169 88.0625 103.328 88.125 103.523C88.1875 103.716 88.2188 103.952 88.2188 104.23V107H87.4922V104.223C87.4922 104.001 87.4596 103.824 87.3945 103.691C87.3294 103.556 87.2344 103.458 87.1094 103.398C86.9844 103.336 86.8307 103.305 86.6484 103.305C86.4688 103.305 86.3047 103.342 86.1562 103.418C86.0104 103.493 85.8841 103.598 85.7773 103.73C85.6732 103.863 85.5911 104.016 85.5312 104.188C85.474 104.357 85.4453 104.536 85.4453 104.727Z" fill="#343434"/>
<path d="M18.5312 52.6328L14.7656 63H13.2266L17.5625 51.625H18.5547L18.5312 52.6328ZM21.6875 63L17.9141 52.6328L17.8906 51.625H18.8828L23.2344 63H21.6875ZM21.4922 58.7891V60.0234H15.1016V58.7891H21.4922ZM29.6172 61.0469V54.5469H31.0703V63H29.6875L29.6172 61.0469ZM29.8906 59.2656L30.4922 59.25C30.4922 59.8125 30.4323 60.3333 30.3125 60.8125C30.1979 61.2865 30.0104 61.6979 29.75 62.0469C29.4896 62.3958 29.1484 62.6693 28.7266 62.8672C28.3047 63.0599 27.7917 63.1562 27.1875 63.1562C26.776 63.1562 26.3984 63.0964 26.0547 62.9766C25.7161 62.8568 25.4245 62.6719 25.1797 62.4219C24.9349 62.1719 24.7448 61.8464 24.6094 61.4453C24.4792 61.0443 24.4141 60.5625 24.4141 60V54.5469H25.8594V60.0156C25.8594 60.3958 25.901 60.7109 25.9844 60.9609C26.0729 61.2057 26.1901 61.401 26.3359 61.5469C26.487 61.6875 26.6536 61.7865 26.8359 61.8438C27.0234 61.901 27.2161 61.9297 27.4141 61.9297C28.0286 61.9297 28.5156 61.8125 28.875 61.5781C29.2344 61.3385 29.4922 61.0182 29.6484 60.6172C29.8099 60.2109 29.8906 59.7604 29.8906 59.2656ZM36.8125 54.5469V55.6562H32.2422V54.5469H36.8125ZM33.7891 52.4922H35.2344V60.9062C35.2344 61.1927 35.2786 61.4089 35.3672 61.5547C35.4557 61.7005 35.5703 61.7969 35.7109 61.8438C35.8516 61.8906 36.0026 61.9141 36.1641 61.9141C36.2839 61.9141 36.4089 61.9036 36.5391 61.8828C36.6745 61.8568 36.776 61.8359 36.8438 61.8203L36.8516 63C36.737 63.0365 36.5859 63.0703 36.3984 63.1016C36.2161 63.138 35.9948 63.1562 35.7344 63.1562C35.3802 63.1562 35.0547 63.0859 34.7578 62.9453C34.4609 62.8047 34.224 62.5703 34.0469 62.2422C33.875 61.9089 33.7891 61.4609 33.7891 60.8984V52.4922ZM37.9688 58.8672V58.6875C37.9688 58.0781 38.0573 57.513 38.2344 56.9922C38.4115 56.4661 38.6667 56.0104 39 55.625C39.3333 55.2344 39.737 54.9323 40.2109 54.7188C40.6849 54.5 41.2161 54.3906 41.8047 54.3906C42.3984 54.3906 42.9323 54.5 43.4062 54.7188C43.8854 54.9323 44.2917 55.2344 44.625 55.625C44.9635 56.0104 45.2214 56.4661 45.3984 56.9922C45.5755 57.513 45.6641 58.0781 45.6641 58.6875V58.8672C45.6641 59.4766 45.5755 60.0417 45.3984 60.5625C45.2214 61.0833 44.9635 61.5391 44.625 61.9297C44.2917 62.3151 43.888 62.6172 43.4141 62.8359C42.9453 63.0495 42.4141 63.1562 41.8203 63.1562C41.2266 63.1562 40.6927 63.0495 40.2188 62.8359C39.7448 62.6172 39.3385 62.3151 39 61.9297C38.6667 61.5391 38.4115 61.0833 38.2344 60.5625C38.0573 60.0417 37.9688 59.4766 37.9688 58.8672ZM39.4141 58.6875V58.8672C39.4141 59.2891 39.4635 59.6875 39.5625 60.0625C39.6615 60.4323 39.8099 60.7604 40.0078 61.0469C40.2109 61.3333 40.4635 61.5599 40.7656 61.7266C41.0677 61.888 41.4193 61.9688 41.8203 61.9688C42.2161 61.9688 42.5625 61.888 42.8594 61.7266C43.1615 61.5599 43.4115 61.3333 43.6094 61.0469C43.8073 60.7604 43.9557 60.4323 44.0547 60.0625C44.1589 59.6875 44.2109 59.2891 44.2109 58.8672V58.6875C44.2109 58.2708 44.1589 57.8776 44.0547 57.5078C43.9557 57.1328 43.8047 56.8021 43.6016 56.5156C43.4036 56.224 43.1536 55.9948 42.8516 55.8281C42.5547 55.6615 42.2057 55.5781 41.8047 55.5781C41.4089 55.5781 41.0599 55.6615 40.7578 55.8281C40.4609 55.9948 40.2109 56.224 40.0078 56.5156C39.8099 56.8021 39.6615 57.1328 39.5625 57.5078C39.4635 57.8776 39.4141 58.2708 39.4141 58.6875ZM14.3203 70.625H18.0859C18.9401 70.625 19.6615 70.7552 20.25 71.0156C20.8438 71.276 21.2943 71.6615 21.6016 72.1719C21.9141 72.6771 22.0703 73.2995 22.0703 74.0391C22.0703 74.5599 21.9635 75.0365 21.75 75.4688C21.5417 75.8958 21.2396 76.2604 20.8438 76.5625C20.4531 76.8594 19.9844 77.0807 19.4375 77.2266L19.0156 77.3906H15.4766L15.4609 76.1641H18.1328C18.6745 76.1641 19.125 76.0703 19.4844 75.8828C19.8438 75.6901 20.1146 75.4323 20.2969 75.1094C20.4792 74.7865 20.5703 74.4297 20.5703 74.0391C20.5703 73.6016 20.4844 73.2188 20.3125 72.8906C20.1406 72.5625 19.8698 72.3099 19.5 72.1328C19.1354 71.9505 18.6641 71.8594 18.0859 71.8594H15.8281V82H14.3203V70.625ZM20.9688 82L18.2031 76.8438L19.7734 76.8359L22.5781 81.9062V82H20.9688ZM27.4688 82.1562C26.8802 82.1562 26.3464 82.0573 25.8672 81.8594C25.3932 81.6562 24.9844 81.3724 24.6406 81.0078C24.3021 80.6432 24.0417 80.2109 23.8594 79.7109C23.6771 79.2109 23.5859 78.6641 23.5859 78.0703V77.7422C23.5859 77.0547 23.6875 76.4427 23.8906 75.9062C24.0938 75.3646 24.3698 74.9062 24.7188 74.5312C25.0677 74.1562 25.4635 73.8724 25.9062 73.6797C26.349 73.487 26.8073 73.3906 27.2812 73.3906C27.8854 73.3906 28.4062 73.4948 28.8438 73.7031C29.2865 73.9115 29.6484 74.2031 29.9297 74.5781C30.2109 74.9479 30.4193 75.3854 30.5547 75.8906C30.6901 76.3906 30.7578 76.9375 30.7578 77.5312V78.1797H24.4453V77H29.3125V76.8906C29.2917 76.5156 29.2135 76.151 29.0781 75.7969C28.9479 75.4427 28.7396 75.151 28.4531 74.9219C28.1667 74.6927 27.776 74.5781 27.2812 74.5781C26.9531 74.5781 26.651 74.6484 26.375 74.7891C26.099 74.9245 25.862 75.1276 25.6641 75.3984C25.4661 75.6693 25.3125 76 25.2031 76.3906C25.0938 76.7812 25.0391 77.2318 25.0391 77.7422V78.0703C25.0391 78.4714 25.0938 78.849 25.2031 79.2031C25.3177 79.5521 25.4818 79.8594 25.6953 80.125C25.9141 80.3906 26.1771 80.599 26.4844 80.75C26.7969 80.901 27.151 80.9766 27.5469 80.9766C28.0573 80.9766 28.4896 80.8724 28.8438 80.6641C29.1979 80.4557 29.5078 80.1771 29.7734 79.8281L30.6484 80.5234C30.4661 80.7995 30.2344 81.0625 29.9531 81.3125C29.6719 81.5625 29.3255 81.7656 28.9141 81.9219C28.5078 82.0781 28.026 82.1562 27.4688 82.1562ZM33.8906 75.3516V82H32.4453V73.5469H33.8125L33.8906 75.3516ZM33.5469 77.4531L32.9453 77.4297C32.9505 76.8516 33.0365 76.3177 33.2031 75.8281C33.3698 75.3333 33.6042 74.9036 33.9062 74.5391C34.2083 74.1745 34.5677 73.8932 34.9844 73.6953C35.4062 73.4922 35.8724 73.3906 36.3828 73.3906C36.7995 73.3906 37.1745 73.4479 37.5078 73.5625C37.8411 73.6719 38.125 73.849 38.3594 74.0938C38.599 74.3385 38.7812 74.6562 38.9062 75.0469C39.0312 75.4323 39.0938 75.9036 39.0938 76.4609V82H37.6406V76.4453C37.6406 76.0026 37.5755 75.6484 37.4453 75.3828C37.3151 75.112 37.125 74.9167 36.875 74.7969C36.625 74.6719 36.3177 74.6094 35.9531 74.6094C35.5938 74.6094 35.2656 74.6849 34.9688 74.8359C34.6771 74.987 34.4245 75.1953 34.2109 75.4609C34.0026 75.7266 33.8385 76.0312 33.7188 76.375C33.6042 76.7135 33.5469 77.0729 33.5469 77.4531ZM44.7969 82.1562C44.2083 82.1562 43.6745 82.0573 43.1953 81.8594C42.7214 81.6562 42.3125 81.3724 41.9688 81.0078C41.6302 80.6432 41.3698 80.2109 41.1875 79.7109C41.0052 79.2109 40.9141 78.6641 40.9141 78.0703V77.7422C40.9141 77.0547 41.0156 76.4427 41.2188 75.9062C41.4219 75.3646 41.6979 74.9062 42.0469 74.5312C42.3958 74.1562 42.7917 73.8724 43.2344 73.6797C43.6771 73.487 44.1354 73.3906 44.6094 73.3906C45.2135 73.3906 45.7344 73.4948 46.1719 73.7031C46.6146 73.9115 46.9766 74.2031 47.2578 74.5781C47.5391 74.9479 47.7474 75.3854 47.8828 75.8906C48.0182 76.3906 48.0859 76.9375 48.0859 77.5312V78.1797H41.7734V77H46.6406V76.8906C46.6198 76.5156 46.5417 76.151 46.4062 75.7969C46.276 75.4427 46.0677 75.151 45.7812 74.9219C45.4948 74.6927 45.1042 74.5781 44.6094 74.5781C44.2812 74.5781 43.9792 74.6484 43.7031 74.7891C43.4271 74.9245 43.1901 75.1276 42.9922 75.3984C42.7943 75.6693 42.6406 76 42.5312 76.3906C42.4219 76.7812 42.3672 77.2318 42.3672 77.7422V78.0703C42.3672 78.4714 42.4219 78.849 42.5312 79.2031C42.6458 79.5521 42.8099 79.8594 43.0234 80.125C43.2422 80.3906 43.5052 80.599 43.8125 80.75C44.125 80.901 44.4792 80.9766 44.875 80.9766C45.3854 80.9766 45.8177 80.8724 46.1719 80.6641C46.526 80.4557 46.8359 80.1771 47.1016 79.8281L47.9766 80.5234C47.7943 80.7995 47.5625 81.0625 47.2812 81.3125C47 81.5625 46.6536 81.7656 46.2422 81.9219C45.8359 82.0781 45.3542 82.1562 44.7969 82.1562ZM51.9141 80.5L54.0859 73.5469H55.0391L54.8516 74.9297L52.6406 82H51.7109L51.9141 80.5ZM50.4531 73.5469L52.3047 80.5781L52.4375 82H51.4609L49.0078 73.5469H50.4531ZM57.1172 80.5234L58.8828 73.5469H60.3203L57.8672 82H56.8984L57.1172 80.5234ZM55.25 73.5469L57.375 80.3828L57.6172 82H56.6953L54.4219 74.9141L54.2344 73.5469H55.25ZM66.7891 80.5547V76.2031C66.7891 75.8698 66.7214 75.5807 66.5859 75.3359C66.4557 75.0859 66.2578 74.8932 65.9922 74.7578C65.7266 74.6224 65.3984 74.5547 65.0078 74.5547C64.6432 74.5547 64.3229 74.6172 64.0469 74.7422C63.776 74.8672 63.5625 75.0312 63.4062 75.2344C63.2552 75.4375 63.1797 75.6562 63.1797 75.8906H61.7344C61.7344 75.5885 61.8125 75.2891 61.9688 74.9922C62.125 74.6953 62.349 74.4271 62.6406 74.1875C62.9375 73.9427 63.2917 73.75 63.7031 73.6094C64.1198 73.4635 64.5833 73.3906 65.0938 73.3906C65.7083 73.3906 66.25 73.4948 66.7188 73.7031C67.1927 73.9115 67.5625 74.2266 67.8281 74.6484C68.099 75.0651 68.2344 75.5885 68.2344 76.2188V80.1562C68.2344 80.4375 68.2578 80.737 68.3047 81.0547C68.3568 81.3724 68.4323 81.6458 68.5312 81.875V82H67.0234C66.9505 81.8333 66.8932 81.612 66.8516 81.3359C66.8099 81.0547 66.7891 80.7943 66.7891 80.5547ZM67.0391 76.875L67.0547 77.8906H65.5938C65.1823 77.8906 64.8151 77.9245 64.4922 77.9922C64.1693 78.0547 63.8984 78.151 63.6797 78.2812C63.4609 78.4115 63.2943 78.5755 63.1797 78.7734C63.0651 78.9661 63.0078 79.1927 63.0078 79.4531C63.0078 79.7188 63.0677 79.9609 63.1875 80.1797C63.3073 80.3984 63.487 80.5729 63.7266 80.7031C63.9714 80.8281 64.2708 80.8906 64.625 80.8906C65.0677 80.8906 65.4583 80.7969 65.7969 80.6094C66.1354 80.4219 66.4036 80.1927 66.6016 79.9219C66.8047 79.651 66.9141 79.388 66.9297 79.1328L67.5469 79.8281C67.5104 80.0469 67.4115 80.2891 67.25 80.5547C67.0885 80.8203 66.8724 81.0755 66.6016 81.3203C66.3359 81.5599 66.0182 81.7604 65.6484 81.9219C65.2839 82.0781 64.8724 82.1562 64.4141 82.1562C63.8411 82.1562 63.3385 82.0443 62.9062 81.8203C62.4792 81.5964 62.1458 81.2969 61.9062 80.9219C61.6719 80.5417 61.5547 80.1172 61.5547 79.6484C61.5547 79.1953 61.6432 78.7969 61.8203 78.4531C61.9974 78.1042 62.2526 77.8151 62.5859 77.5859C62.9193 77.3516 63.3203 77.1745 63.7891 77.0547C64.2578 76.9349 64.7812 76.875 65.3594 76.875H67.0391ZM72.0781 70V82H70.625V70H72.0781Z" fill="#343434"/>
<path d="M30 40C38.8366 40 46 32.8366 46 24C46 15.1634 38.8366 8 30 8C21.1634 8 14 15.1634 14 24C14 32.8366 21.1634 40 30 40Z" fill="white"/>
<path d="M30 8C32.3025 8 34.5779 8.49696 36.6708 9.45694L30 24L30 8Z" fill="#636363"/>
</svg>
