<svg width="298" height="24" viewBox="0 0 298 24" fill="none" xmlns="http://www.w3.org/2000/svg">
<path d="M0.753906 16.3125H2.63672C3.0638 16.3125 3.42448 16.3776 3.71875 16.5078C4.01562 16.638 4.24089 16.8307 4.39453 17.0859C4.55078 17.3385 4.62891 17.6497 4.62891 18.0195C4.62891 18.2799 4.57552 18.5182 4.46875 18.7344C4.36458 18.9479 4.21354 19.1302 4.01562 19.2812C3.82031 19.4297 3.58594 19.5404 3.3125 19.6133L3.10156 19.6953H1.33203L1.32422 19.082H2.66016C2.93099 19.082 3.15625 19.0352 3.33594 18.9414C3.51562 18.8451 3.65104 18.7161 3.74219 18.5547C3.83333 18.3932 3.87891 18.2148 3.87891 18.0195C3.87891 17.8008 3.83594 17.6094 3.75 17.4453C3.66406 17.2812 3.52865 17.1549 3.34375 17.0664C3.16146 16.9753 2.92578 16.9297 2.63672 16.9297H1.50781V22H0.753906V16.3125ZM4.07812 22L2.69531 19.4219L3.48047 19.418L4.88281 21.9531V22H4.07812ZM7.32812 22.0781C7.03385 22.0781 6.76693 22.0286 6.52734 21.9297C6.29036 21.8281 6.08594 21.6862 5.91406 21.5039C5.74479 21.3216 5.61458 21.1055 5.52344 20.8555C5.43229 20.6055 5.38672 20.332 5.38672 20.0352V19.8711C5.38672 19.5273 5.4375 19.2214 5.53906 18.9531C5.64062 18.6823 5.77865 18.4531 5.95312 18.2656C6.1276 18.0781 6.32552 17.9362 6.54688 17.8398C6.76823 17.7435 6.9974 17.6953 7.23438 17.6953C7.53646 17.6953 7.79688 17.7474 8.01562 17.8516C8.23698 17.9557 8.41797 18.1016 8.55859 18.2891C8.69922 18.474 8.80339 18.6927 8.87109 18.9453C8.9388 19.1953 8.97266 19.4688 8.97266 19.7656V20.0898H5.81641V19.5H8.25V19.4453C8.23958 19.2578 8.20052 19.0755 8.13281 18.8984C8.06771 18.7214 7.96354 18.5755 7.82031 18.4609C7.67708 18.3464 7.48177 18.2891 7.23438 18.2891C7.07031 18.2891 6.91927 18.3242 6.78125 18.3945C6.64323 18.4622 6.52474 18.5638 6.42578 18.6992C6.32682 18.8346 6.25 19 6.19531 19.1953C6.14062 19.3906 6.11328 19.6159 6.11328 19.8711V20.0352C6.11328 20.2357 6.14062 20.4245 6.19531 20.6016C6.2526 20.776 6.33464 20.9297 6.44141 21.0625C6.55078 21.1953 6.68229 21.2995 6.83594 21.375C6.99219 21.4505 7.16927 21.4883 7.36719 21.4883C7.6224 21.4883 7.83854 21.4362 8.01562 21.332C8.19271 21.2279 8.34766 21.0885 8.48047 20.9141L8.91797 21.2617C8.82682 21.3997 8.71094 21.5312 8.57031 21.6562C8.42969 21.7812 8.25651 21.8828 8.05078 21.9609C7.84766 22.0391 7.60677 22.0781 7.32812 22.0781ZM12.5547 17.7734H13.2109V21.9102C13.2109 22.2826 13.1354 22.6003 12.9844 22.8633C12.8333 23.1263 12.6224 23.3255 12.3516 23.4609C12.0833 23.599 11.7734 23.668 11.4219 23.668C11.276 23.668 11.1042 23.6445 10.9062 23.5977C10.7109 23.5534 10.5182 23.4766 10.3281 23.3672C10.1406 23.2604 9.98307 23.1159 9.85547 22.9336L10.2344 22.5039C10.4115 22.7174 10.5964 22.8659 10.7891 22.9492C10.9844 23.0326 11.1771 23.0742 11.3672 23.0742C11.5964 23.0742 11.7943 23.0312 11.9609 22.9453C12.1276 22.8594 12.2565 22.7318 12.3477 22.5625C12.4414 22.3958 12.4883 22.1901 12.4883 21.9453V18.7031L12.5547 17.7734ZM9.64453 19.9336V19.8516C9.64453 19.5286 9.68229 19.2357 9.75781 18.9727C9.83594 18.707 9.94661 18.4792 10.0898 18.2891C10.2357 18.099 10.4115 17.9531 10.6172 17.8516C10.8229 17.7474 11.0547 17.6953 11.3125 17.6953C11.5781 17.6953 11.8099 17.7422 12.0078 17.8359C12.2083 17.9271 12.3776 18.0612 12.5156 18.2383C12.6562 18.4128 12.7669 18.6237 12.8477 18.8711C12.9284 19.1185 12.9844 19.3984 13.0156 19.7109V20.0703C12.987 20.3802 12.931 20.6589 12.8477 20.9062C12.7669 21.1536 12.6562 21.3646 12.5156 21.5391C12.3776 21.7135 12.2083 21.8477 12.0078 21.9414C11.8073 22.0326 11.5729 22.0781 11.3047 22.0781C11.0521 22.0781 10.8229 22.0247 10.6172 21.918C10.4141 21.8112 10.2396 21.6615 10.0938 21.4688C9.94792 21.276 9.83594 21.0495 9.75781 20.7891C9.68229 20.526 9.64453 20.2409 9.64453 19.9336ZM10.3672 19.8516V19.9336C10.3672 20.1445 10.388 20.3424 10.4297 20.5273C10.474 20.7122 10.5404 20.875 10.6289 21.0156C10.7201 21.1562 10.8359 21.2669 10.9766 21.3477C11.1172 21.4258 11.2852 21.4648 11.4805 21.4648C11.7201 21.4648 11.918 21.4141 12.0742 21.3125C12.2305 21.2109 12.3542 21.0768 12.4453 20.9102C12.5391 20.7435 12.612 20.5625 12.6641 20.3672V19.4258C12.6354 19.2826 12.5911 19.1445 12.5312 19.0117C12.474 18.8763 12.3984 18.7565 12.3047 18.6523C12.2135 18.5456 12.1003 18.4609 11.9648 18.3984C11.8294 18.3359 11.6706 18.3047 11.4883 18.3047C11.2904 18.3047 11.1198 18.3464 10.9766 18.4297C10.8359 18.5104 10.7201 18.6224 10.6289 18.7656C10.5404 18.9062 10.474 19.0703 10.4297 19.2578C10.388 19.4427 10.3672 19.6406 10.3672 19.8516ZM15.0938 17.7734V22H14.3672V17.7734H15.0938ZM14.3125 16.6523C14.3125 16.5352 14.3477 16.4362 14.418 16.3555C14.4909 16.2747 14.5977 16.2344 14.7383 16.2344C14.8763 16.2344 14.9818 16.2747 15.0547 16.3555C15.1302 16.4362 15.168 16.5352 15.168 16.6523C15.168 16.7643 15.1302 16.8607 15.0547 16.9414C14.9818 17.0195 14.8763 17.0586 14.7383 17.0586C14.5977 17.0586 14.4909 17.0195 14.418 16.9414C14.3477 16.8607 14.3125 16.7643 14.3125 16.6523ZM18.7148 20.8789C18.7148 20.7747 18.6914 20.6784 18.6445 20.5898C18.6003 20.4987 18.5078 20.4167 18.3672 20.3438C18.2292 20.2682 18.0208 20.2031 17.7422 20.1484C17.5078 20.099 17.2956 20.0404 17.1055 19.9727C16.918 19.9049 16.7578 19.8229 16.625 19.7266C16.4948 19.6302 16.3945 19.5169 16.3242 19.3867C16.2539 19.2565 16.2188 19.1042 16.2188 18.9297C16.2188 18.763 16.2552 18.6055 16.3281 18.457C16.4036 18.3086 16.5091 18.1771 16.6445 18.0625C16.7826 17.9479 16.9479 17.8581 17.1406 17.793C17.3333 17.7279 17.5482 17.6953 17.7852 17.6953C18.1237 17.6953 18.4128 17.7552 18.6523 17.875C18.8919 17.9948 19.0755 18.1549 19.2031 18.3555C19.3307 18.5534 19.3945 18.7734 19.3945 19.0156H18.6719C18.6719 18.8984 18.6367 18.7852 18.5664 18.6758C18.4987 18.5638 18.3984 18.4714 18.2656 18.3984C18.1354 18.3255 17.9753 18.2891 17.7852 18.2891C17.5846 18.2891 17.4219 18.3203 17.2969 18.3828C17.1745 18.4427 17.0846 18.5195 17.0273 18.6133C16.9727 18.707 16.9453 18.806 16.9453 18.9102C16.9453 18.9883 16.9583 19.0586 16.9844 19.1211C17.013 19.181 17.0625 19.237 17.1328 19.2891C17.2031 19.3385 17.3021 19.3854 17.4297 19.4297C17.5573 19.474 17.7201 19.5182 17.918 19.5625C18.2643 19.6406 18.5495 19.7344 18.7734 19.8438C18.9974 19.9531 19.1641 20.0872 19.2734 20.2461C19.3828 20.4049 19.4375 20.5977 19.4375 20.8242C19.4375 21.0091 19.3984 21.1784 19.3203 21.332C19.2448 21.4857 19.1341 21.6185 18.9883 21.7305C18.8451 21.8398 18.6732 21.9258 18.4727 21.9883C18.2747 22.0482 18.0521 22.0781 17.8047 22.0781C17.4323 22.0781 17.1172 22.0117 16.8594 21.8789C16.6016 21.7461 16.4062 21.5742 16.2734 21.3633C16.1406 21.1523 16.0742 20.9297 16.0742 20.6953H16.8008C16.8112 20.8932 16.8685 21.0508 16.9727 21.168C17.0768 21.2826 17.2044 21.3646 17.3555 21.4141C17.5065 21.4609 17.6562 21.4844 17.8047 21.4844C18.0026 21.4844 18.168 21.4583 18.3008 21.4062C18.4362 21.3542 18.5391 21.2826 18.6094 21.1914C18.6797 21.1003 18.7148 20.9961 18.7148 20.8789ZM22.1562 17.7734V18.3281H19.8711V17.7734H22.1562ZM20.6445 16.7461H21.3672V20.9531C21.3672 21.0964 21.3893 21.2044 21.4336 21.2773C21.4779 21.3503 21.5352 21.3984 21.6055 21.4219C21.6758 21.4453 21.7513 21.457 21.832 21.457C21.8919 21.457 21.9544 21.4518 22.0195 21.4414C22.0872 21.4284 22.138 21.418 22.1719 21.4102L22.1758 22C22.1185 22.0182 22.043 22.0352 21.9492 22.0508C21.8581 22.069 21.7474 22.0781 21.6172 22.0781C21.4401 22.0781 21.2773 22.043 21.1289 21.9727C20.9805 21.9023 20.862 21.7852 20.7734 21.6211C20.6875 21.4544 20.6445 21.2305 20.6445 20.9492V16.7461ZM23.7266 18.4375V22H23.0039V17.7734H23.707L23.7266 18.4375ZM25.0469 17.75L25.043 18.4219C24.9831 18.4089 24.9258 18.401 24.8711 18.3984C24.819 18.3932 24.7591 18.3906 24.6914 18.3906C24.5247 18.3906 24.3776 18.4167 24.25 18.4688C24.1224 18.5208 24.0143 18.5938 23.9258 18.6875C23.8372 18.7812 23.7669 18.8932 23.7148 19.0234C23.6654 19.151 23.6328 19.2917 23.6172 19.4453L23.4141 19.5625C23.4141 19.3073 23.4388 19.0677 23.4883 18.8438C23.5404 18.6198 23.6198 18.4219 23.7266 18.25C23.8333 18.0755 23.9688 17.9401 24.1328 17.8438C24.2995 17.7448 24.4974 17.6953 24.7266 17.6953C24.7786 17.6953 24.8385 17.7018 24.9062 17.7148C24.974 17.7253 25.0208 17.737 25.0469 17.75ZM28.0508 21.2773V19.1016C28.0508 18.9349 28.0169 18.7904 27.9492 18.668C27.8841 18.543 27.7852 18.4466 27.6523 18.3789C27.5195 18.3112 27.3555 18.2773 27.1602 18.2773C26.9779 18.2773 26.8177 18.3086 26.6797 18.3711C26.5443 18.4336 26.4375 18.5156 26.3594 18.6172C26.2839 18.7188 26.2461 18.8281 26.2461 18.9453H25.5234C25.5234 18.7943 25.5625 18.6445 25.6406 18.4961C25.7188 18.3477 25.8307 18.2135 25.9766 18.0938C26.125 17.9714 26.3021 17.875 26.5078 17.8047C26.7161 17.7318 26.9479 17.6953 27.2031 17.6953C27.5104 17.6953 27.7812 17.7474 28.0156 17.8516C28.2526 17.9557 28.4375 18.1133 28.5703 18.3242C28.7057 18.5326 28.7734 18.7943 28.7734 19.1094V21.0781C28.7734 21.2188 28.7852 21.3685 28.8086 21.5273C28.8346 21.6862 28.8724 21.8229 28.9219 21.9375V22H28.168C28.1315 21.9167 28.1029 21.806 28.082 21.668C28.0612 21.5273 28.0508 21.3971 28.0508 21.2773ZM28.1758 19.4375L28.1836 19.9453H27.4531C27.2474 19.9453 27.0638 19.9622 26.9023 19.9961C26.7409 20.0273 26.6055 20.0755 26.4961 20.1406C26.3867 20.2057 26.3034 20.2878 26.2461 20.3867C26.1888 20.4831 26.1602 20.5964 26.1602 20.7266C26.1602 20.8594 26.1901 20.9805 26.25 21.0898C26.3099 21.1992 26.3997 21.2865 26.5195 21.3516C26.6419 21.4141 26.7917 21.4453 26.9688 21.4453C27.1901 21.4453 27.3854 21.3984 27.5547 21.3047C27.724 21.2109 27.8581 21.0964 27.957 20.9609C28.0586 20.8255 28.1133 20.694 28.1211 20.5664L28.4297 20.9141C28.4115 21.0234 28.362 21.1445 28.2812 21.2773C28.2005 21.4102 28.0924 21.5378 27.957 21.6602C27.8242 21.7799 27.6654 21.8802 27.4805 21.9609C27.2982 22.0391 27.0924 22.0781 26.8633 22.0781C26.5768 22.0781 26.3255 22.0221 26.1094 21.9102C25.8958 21.7982 25.7292 21.6484 25.6094 21.4609C25.4922 21.2708 25.4336 21.0586 25.4336 20.8242C25.4336 20.5977 25.4779 20.3984 25.5664 20.2266C25.6549 20.0521 25.7826 19.9076 25.9492 19.793C26.1159 19.6758 26.3164 19.5872 26.5508 19.5273C26.7852 19.4674 27.0469 19.4375 27.3359 19.4375H28.1758ZM31.6797 17.7734V18.3281H29.3945V17.7734H31.6797ZM30.168 16.7461H30.8906V20.9531C30.8906 21.0964 30.9128 21.2044 30.957 21.2773C31.0013 21.3503 31.0586 21.3984 31.1289 21.4219C31.1992 21.4453 31.2747 21.457 31.3555 21.457C31.4154 21.457 31.4779 21.4518 31.543 21.4414C31.6107 21.4284 31.6615 21.418 31.6953 21.4102L31.6992 22C31.6419 22.0182 31.5664 22.0352 31.4727 22.0508C31.3815 22.069 31.2708 22.0781 31.1406 22.0781C30.9635 22.0781 30.8008 22.043 30.6523 21.9727C30.5039 21.9023 30.3854 21.7852 30.2969 21.6211C30.2109 21.4544 30.168 21.2305 30.168 20.9492V16.7461ZM33.3125 17.7734V22H32.5859V17.7734H33.3125ZM32.5312 16.6523C32.5312 16.5352 32.5664 16.4362 32.6367 16.3555C32.7096 16.2747 32.8164 16.2344 32.957 16.2344C33.0951 16.2344 33.2005 16.2747 33.2734 16.3555C33.349 16.4362 33.3867 16.5352 33.3867 16.6523C33.3867 16.7643 33.349 16.8607 33.2734 16.9414C33.2005 17.0195 33.0951 17.0586 32.957 17.0586C32.8164 17.0586 32.7096 17.0195 32.6367 16.9414C32.5664 16.8607 32.5312 16.7643 32.5312 16.6523ZM34.2812 19.9336V19.8438C34.2812 19.5391 34.3255 19.2565 34.4141 18.9961C34.5026 18.7331 34.6302 18.5052 34.7969 18.3125C34.9635 18.1172 35.1654 17.9661 35.4023 17.8594C35.6393 17.75 35.9049 17.6953 36.1992 17.6953C36.4961 17.6953 36.763 17.75 37 17.8594C37.2396 17.9661 37.4427 18.1172 37.6094 18.3125C37.7786 18.5052 37.9076 18.7331 37.9961 18.9961C38.0846 19.2565 38.1289 19.5391 38.1289 19.8438V19.9336C38.1289 20.2383 38.0846 20.5208 37.9961 20.7812C37.9076 21.0417 37.7786 21.2695 37.6094 21.4648C37.4427 21.6576 37.2409 21.8086 37.0039 21.918C36.7695 22.0247 36.5039 22.0781 36.207 22.0781C35.9102 22.0781 35.6432 22.0247 35.4062 21.918C35.1693 21.8086 34.9661 21.6576 34.7969 21.4648C34.6302 21.2695 34.5026 21.0417 34.4141 20.7812C34.3255 20.5208 34.2812 20.2383 34.2812 19.9336ZM35.0039 19.8438V19.9336C35.0039 20.1445 35.0286 20.3438 35.0781 20.5312C35.1276 20.7161 35.2018 20.8802 35.3008 21.0234C35.4023 21.1667 35.5286 21.2799 35.6797 21.3633C35.8307 21.444 36.0065 21.4844 36.207 21.4844C36.4049 21.4844 36.5781 21.444 36.7266 21.3633C36.8776 21.2799 37.0026 21.1667 37.1016 21.0234C37.2005 20.8802 37.2747 20.7161 37.3242 20.5312C37.3763 20.3438 37.4023 20.1445 37.4023 19.9336V19.8438C37.4023 19.6354 37.3763 19.4388 37.3242 19.2539C37.2747 19.0664 37.1992 18.901 37.0977 18.7578C36.9987 18.612 36.8737 18.4974 36.7227 18.4141C36.5742 18.3307 36.3997 18.2891 36.1992 18.2891C36.0013 18.2891 35.8268 18.3307 35.6758 18.4141C35.5273 18.4974 35.4023 18.612 35.3008 18.7578C35.2018 18.901 35.1276 19.0664 35.0781 19.2539C35.0286 19.4388 35.0039 19.6354 35.0039 19.8438ZM39.7578 18.6758V22H39.0352V17.7734H39.7188L39.7578 18.6758ZM39.5859 19.7266L39.2852 19.7148C39.2878 19.4258 39.3307 19.1589 39.4141 18.9141C39.4974 18.6667 39.6146 18.4518 39.7656 18.2695C39.9167 18.0872 40.0964 17.9466 40.3047 17.8477C40.5156 17.7461 40.7487 17.6953 41.0039 17.6953C41.2122 17.6953 41.3997 17.724 41.5664 17.7812C41.7331 17.8359 41.875 17.9245 41.9922 18.0469C42.112 18.1693 42.2031 18.3281 42.2656 18.5234C42.3281 18.7161 42.3594 18.9518 42.3594 19.2305V22H41.6328V19.2227C41.6328 19.0013 41.6003 18.8242 41.5352 18.6914C41.4701 18.556 41.375 18.4583 41.25 18.3984C41.125 18.3359 40.9714 18.3047 40.7891 18.3047C40.6094 18.3047 40.4453 18.3424 40.2969 18.418C40.151 18.4935 40.0247 18.5977 39.918 18.7305C39.8138 18.8633 39.7318 19.0156 39.6719 19.1875C39.6146 19.3568 39.5859 19.5365 39.5859 19.7266Z" fill="#FFA142"/>
<path d="M77.3711 21.3867V22H74.3594V21.3867H77.3711ZM74.5117 16.3125V22H73.7578V16.3125H74.5117ZM76.9727 18.7578V19.3711H74.3594V18.7578H76.9727ZM77.332 16.3125V16.9297H74.3594V16.3125H77.332ZM78.9141 18.6133V22H78.1875V17.7734H78.875L78.9141 18.6133ZM78.7656 19.7266L78.4297 19.7148C78.4323 19.4258 78.4701 19.1589 78.543 18.9141C78.6159 18.6667 78.724 18.4518 78.8672 18.2695C79.0104 18.0872 79.1888 17.9466 79.4023 17.8477C79.6159 17.7461 79.8633 17.6953 80.1445 17.6953C80.3424 17.6953 80.5247 17.724 80.6914 17.7812C80.8581 17.8359 81.0026 17.9232 81.125 18.043C81.2474 18.1628 81.3424 18.3164 81.4102 18.5039C81.4779 18.6914 81.5117 18.918 81.5117 19.1836V22H80.7891V19.2188C80.7891 18.9974 80.7513 18.8203 80.6758 18.6875C80.6029 18.5547 80.4987 18.4583 80.3633 18.3984C80.2279 18.3359 80.069 18.3047 79.8867 18.3047C79.6732 18.3047 79.4948 18.3424 79.3516 18.418C79.2083 18.4935 79.0938 18.5977 79.0078 18.7305C78.9219 18.8633 78.8594 19.0156 78.8203 19.1875C78.7839 19.3568 78.7656 19.5365 78.7656 19.7266ZM81.5039 19.3281L81.0195 19.4766C81.0221 19.2448 81.0599 19.0221 81.1328 18.8086C81.2083 18.5951 81.3164 18.4049 81.457 18.2383C81.6003 18.0716 81.776 17.9401 81.9844 17.8438C82.1927 17.7448 82.431 17.6953 82.6992 17.6953C82.9258 17.6953 83.1263 17.7253 83.3008 17.7852C83.4779 17.8451 83.6263 17.9375 83.7461 18.0625C83.8685 18.1849 83.9609 18.3424 84.0234 18.5352C84.0859 18.7279 84.1172 18.957 84.1172 19.2227V22H83.3906V19.2148C83.3906 18.9779 83.3529 18.7943 83.2773 18.6641C83.2044 18.5312 83.1003 18.4388 82.9648 18.3867C82.832 18.332 82.6732 18.3047 82.4883 18.3047C82.3294 18.3047 82.1888 18.332 82.0664 18.3867C81.944 18.4414 81.8411 18.5169 81.7578 18.6133C81.6745 18.707 81.6107 18.8151 81.5664 18.9375C81.5247 19.0599 81.5039 19.1901 81.5039 19.3281ZM87.7031 21.2773V19.1016C87.7031 18.9349 87.6693 18.7904 87.6016 18.668C87.5365 18.543 87.4375 18.4466 87.3047 18.3789C87.1719 18.3112 87.0078 18.2773 86.8125 18.2773C86.6302 18.2773 86.4701 18.3086 86.332 18.3711C86.1966 18.4336 86.0898 18.5156 86.0117 18.6172C85.9362 18.7188 85.8984 18.8281 85.8984 18.9453H85.1758C85.1758 18.7943 85.2148 18.6445 85.293 18.4961C85.3711 18.3477 85.4831 18.2135 85.6289 18.0938C85.7773 17.9714 85.9544 17.875 86.1602 17.8047C86.3685 17.7318 86.6003 17.6953 86.8555 17.6953C87.1628 17.6953 87.4336 17.7474 87.668 17.8516C87.9049 17.9557 88.0898 18.1133 88.2227 18.3242C88.3581 18.5326 88.4258 18.7943 88.4258 19.1094V21.0781C88.4258 21.2188 88.4375 21.3685 88.4609 21.5273C88.487 21.6862 88.5247 21.8229 88.5742 21.9375V22H87.8203C87.7839 21.9167 87.7552 21.806 87.7344 21.668C87.7135 21.5273 87.7031 21.3971 87.7031 21.2773ZM87.8281 19.4375L87.8359 19.9453H87.1055C86.8997 19.9453 86.7161 19.9622 86.5547 19.9961C86.3932 20.0273 86.2578 20.0755 86.1484 20.1406C86.0391 20.2057 85.9557 20.2878 85.8984 20.3867C85.8411 20.4831 85.8125 20.5964 85.8125 20.7266C85.8125 20.8594 85.8424 20.9805 85.9023 21.0898C85.9622 21.1992 86.0521 21.2865 86.1719 21.3516C86.2943 21.4141 86.444 21.4453 86.6211 21.4453C86.8424 21.4453 87.0378 21.3984 87.207 21.3047C87.3763 21.2109 87.5104 21.0964 87.6094 20.9609C87.7109 20.8255 87.7656 20.694 87.7734 20.5664L88.082 20.9141C88.0638 21.0234 88.0143 21.1445 87.9336 21.2773C87.8529 21.4102 87.7448 21.5378 87.6094 21.6602C87.4766 21.7799 87.3177 21.8802 87.1328 21.9609C86.9505 22.0391 86.7448 22.0781 86.5156 22.0781C86.2292 22.0781 85.9779 22.0221 85.7617 21.9102C85.5482 21.7982 85.3815 21.6484 85.2617 21.4609C85.1445 21.2708 85.0859 21.0586 85.0859 20.8242C85.0859 20.5977 85.1302 20.3984 85.2188 20.2266C85.3073 20.0521 85.4349 19.9076 85.6016 19.793C85.7682 19.6758 85.9688 19.5872 86.2031 19.5273C86.4375 19.4674 86.6992 19.4375 86.9883 19.4375H87.8281ZM90.3477 17.7734V22H89.6211V17.7734H90.3477ZM89.5664 16.6523C89.5664 16.5352 89.6016 16.4362 89.6719 16.3555C89.7448 16.2747 89.8516 16.2344 89.9922 16.2344C90.1302 16.2344 90.2357 16.2747 90.3086 16.3555C90.3841 16.4362 90.4219 16.5352 90.4219 16.6523C90.4219 16.7643 90.3841 16.8607 90.3086 16.9414C90.2357 17.0195 90.1302 17.0586 89.9922 17.0586C89.8516 17.0586 89.7448 17.0195 89.6719 16.9414C89.6016 16.8607 89.5664 16.7643 89.5664 16.6523ZM92.293 16V22H91.5664V16H92.293Z" fill="#808080"/>
<path d="M137.16 20.1914H137.91C137.871 20.5508 137.768 20.8724 137.602 21.1562C137.435 21.4401 137.199 21.6654 136.895 21.832C136.59 21.9961 136.21 22.0781 135.754 22.0781C135.421 22.0781 135.117 22.0156 134.844 21.8906C134.573 21.7656 134.34 21.5885 134.145 21.3594C133.949 21.1276 133.798 20.8503 133.691 20.5273C133.587 20.2018 133.535 19.8398 133.535 19.4414V18.875C133.535 18.4766 133.587 18.1159 133.691 17.793C133.798 17.4674 133.951 17.1888 134.148 16.957C134.349 16.7253 134.59 16.5469 134.871 16.4219C135.152 16.2969 135.469 16.2344 135.82 16.2344C136.25 16.2344 136.613 16.3151 136.91 16.4766C137.207 16.638 137.438 16.862 137.602 17.1484C137.768 17.4323 137.871 17.7617 137.91 18.1367H137.16C137.124 17.8711 137.056 17.6432 136.957 17.4531C136.858 17.2604 136.717 17.112 136.535 17.0078C136.353 16.9036 136.115 16.8516 135.82 16.8516C135.568 16.8516 135.345 16.8997 135.152 16.9961C134.962 17.0924 134.802 17.2292 134.672 17.4062C134.544 17.5833 134.448 17.7956 134.383 18.043C134.318 18.2904 134.285 18.5651 134.285 18.8672V19.4414C134.285 19.7201 134.314 19.9818 134.371 20.2266C134.431 20.4714 134.521 20.6862 134.641 20.8711C134.76 21.056 134.913 21.2018 135.098 21.3086C135.283 21.4128 135.501 21.4648 135.754 21.4648C136.074 21.4648 136.329 21.4141 136.52 21.3125C136.71 21.2109 136.853 21.0651 136.949 20.875C137.048 20.6849 137.118 20.457 137.16 20.1914ZM139.551 16V22H138.828V16H139.551ZM139.379 19.7266L139.078 19.7148C139.081 19.4258 139.124 19.1589 139.207 18.9141C139.29 18.6667 139.408 18.4518 139.559 18.2695C139.71 18.0872 139.889 17.9466 140.098 17.8477C140.309 17.7461 140.542 17.6953 140.797 17.6953C141.005 17.6953 141.193 17.724 141.359 17.7812C141.526 17.8359 141.668 17.9245 141.785 18.0469C141.905 18.1693 141.996 18.3281 142.059 18.5234C142.121 18.7161 142.152 18.9518 142.152 19.2305V22H141.426V19.2227C141.426 19.0013 141.393 18.8242 141.328 18.6914C141.263 18.556 141.168 18.4583 141.043 18.3984C140.918 18.3359 140.764 18.3047 140.582 18.3047C140.402 18.3047 140.238 18.3424 140.09 18.418C139.944 18.4935 139.818 18.5977 139.711 18.7305C139.607 18.8633 139.525 19.0156 139.465 19.1875C139.408 19.3568 139.379 19.5365 139.379 19.7266ZM143.043 19.9336V19.8438C143.043 19.5391 143.087 19.2565 143.176 18.9961C143.264 18.7331 143.392 18.5052 143.559 18.3125C143.725 18.1172 143.927 17.9661 144.164 17.8594C144.401 17.75 144.667 17.6953 144.961 17.6953C145.258 17.6953 145.525 17.75 145.762 17.8594C146.001 17.9661 146.204 18.1172 146.371 18.3125C146.54 18.5052 146.669 18.7331 146.758 18.9961C146.846 19.2565 146.891 19.5391 146.891 19.8438V19.9336C146.891 20.2383 146.846 20.5208 146.758 20.7812C146.669 21.0417 146.54 21.2695 146.371 21.4648C146.204 21.6576 146.003 21.8086 145.766 21.918C145.531 22.0247 145.266 22.0781 144.969 22.0781C144.672 22.0781 144.405 22.0247 144.168 21.918C143.931 21.8086 143.728 21.6576 143.559 21.4648C143.392 21.2695 143.264 21.0417 143.176 20.7812C143.087 20.5208 143.043 20.2383 143.043 19.9336ZM143.766 19.8438V19.9336C143.766 20.1445 143.79 20.3438 143.84 20.5312C143.889 20.7161 143.964 20.8802 144.062 21.0234C144.164 21.1667 144.29 21.2799 144.441 21.3633C144.592 21.444 144.768 21.4844 144.969 21.4844C145.167 21.4844 145.34 21.444 145.488 21.3633C145.639 21.2799 145.764 21.1667 145.863 21.0234C145.962 20.8802 146.036 20.7161 146.086 20.5312C146.138 20.3438 146.164 20.1445 146.164 19.9336V19.8438C146.164 19.6354 146.138 19.4388 146.086 19.2539C146.036 19.0664 145.961 18.901 145.859 18.7578C145.76 18.612 145.635 18.4974 145.484 18.4141C145.336 18.3307 145.161 18.2891 144.961 18.2891C144.763 18.2891 144.589 18.3307 144.438 18.4141C144.289 18.4974 144.164 18.612 144.062 18.7578C143.964 18.901 143.889 19.0664 143.84 19.2539C143.79 19.4388 143.766 19.6354 143.766 19.8438ZM147.605 19.9336V19.8438C147.605 19.5391 147.65 19.2565 147.738 18.9961C147.827 18.7331 147.954 18.5052 148.121 18.3125C148.288 18.1172 148.49 17.9661 148.727 17.8594C148.964 17.75 149.229 17.6953 149.523 17.6953C149.82 17.6953 150.087 17.75 150.324 17.8594C150.564 17.9661 150.767 18.1172 150.934 18.3125C151.103 18.5052 151.232 18.7331 151.32 18.9961C151.409 19.2565 151.453 19.5391 151.453 19.8438V19.9336C151.453 20.2383 151.409 20.5208 151.32 20.7812C151.232 21.0417 151.103 21.2695 150.934 21.4648C150.767 21.6576 150.565 21.8086 150.328 21.918C150.094 22.0247 149.828 22.0781 149.531 22.0781C149.234 22.0781 148.967 22.0247 148.73 21.918C148.493 21.8086 148.29 21.6576 148.121 21.4648C147.954 21.2695 147.827 21.0417 147.738 20.7812C147.65 20.5208 147.605 20.2383 147.605 19.9336ZM148.328 19.8438V19.9336C148.328 20.1445 148.353 20.3438 148.402 20.5312C148.452 20.7161 148.526 20.8802 148.625 21.0234C148.727 21.1667 148.853 21.2799 149.004 21.3633C149.155 21.444 149.331 21.4844 149.531 21.4844C149.729 21.4844 149.902 21.444 150.051 21.3633C150.202 21.2799 150.327 21.1667 150.426 21.0234C150.525 20.8802 150.599 20.7161 150.648 20.5312C150.701 20.3438 150.727 20.1445 150.727 19.9336V19.8438C150.727 19.6354 150.701 19.4388 150.648 19.2539C150.599 19.0664 150.523 18.901 150.422 18.7578C150.323 18.612 150.198 18.4974 150.047 18.4141C149.898 18.3307 149.724 18.2891 149.523 18.2891C149.326 18.2891 149.151 18.3307 149 18.4141C148.852 18.4974 148.727 18.612 148.625 18.7578C148.526 18.901 148.452 19.0664 148.402 19.2539C148.353 19.4388 148.328 19.6354 148.328 19.8438ZM154.82 20.8789C154.82 20.7747 154.797 20.6784 154.75 20.5898C154.706 20.4987 154.613 20.4167 154.473 20.3438C154.335 20.2682 154.126 20.2031 153.848 20.1484C153.613 20.099 153.401 20.0404 153.211 19.9727C153.023 19.9049 152.863 19.8229 152.73 19.7266C152.6 19.6302 152.5 19.5169 152.43 19.3867C152.359 19.2565 152.324 19.1042 152.324 18.9297C152.324 18.763 152.361 18.6055 152.434 18.457C152.509 18.3086 152.615 18.1771 152.75 18.0625C152.888 17.9479 153.053 17.8581 153.246 17.793C153.439 17.7279 153.654 17.6953 153.891 17.6953C154.229 17.6953 154.518 17.7552 154.758 17.875C154.997 17.9948 155.181 18.1549 155.309 18.3555C155.436 18.5534 155.5 18.7734 155.5 19.0156H154.777C154.777 18.8984 154.742 18.7852 154.672 18.6758C154.604 18.5638 154.504 18.4714 154.371 18.3984C154.241 18.3255 154.081 18.2891 153.891 18.2891C153.69 18.2891 153.527 18.3203 153.402 18.3828C153.28 18.4427 153.19 18.5195 153.133 18.6133C153.078 18.707 153.051 18.806 153.051 18.9102C153.051 18.9883 153.064 19.0586 153.09 19.1211C153.118 19.181 153.168 19.237 153.238 19.2891C153.309 19.3385 153.408 19.3854 153.535 19.4297C153.663 19.474 153.826 19.5182 154.023 19.5625C154.37 19.6406 154.655 19.7344 154.879 19.8438C155.103 19.9531 155.27 20.0872 155.379 20.2461C155.488 20.4049 155.543 20.5977 155.543 20.8242C155.543 21.0091 155.504 21.1784 155.426 21.332C155.35 21.4857 155.24 21.6185 155.094 21.7305C154.951 21.8398 154.779 21.9258 154.578 21.9883C154.38 22.0482 154.158 22.0781 153.91 22.0781C153.538 22.0781 153.223 22.0117 152.965 21.8789C152.707 21.7461 152.512 21.5742 152.379 21.3633C152.246 21.1523 152.18 20.9297 152.18 20.6953H152.906C152.917 20.8932 152.974 21.0508 153.078 21.168C153.182 21.2826 153.31 21.3646 153.461 21.4141C153.612 21.4609 153.762 21.4844 153.91 21.4844C154.108 21.4844 154.273 21.4583 154.406 21.4062C154.542 21.3542 154.645 21.2826 154.715 21.1914C154.785 21.1003 154.82 20.9961 154.82 20.8789ZM158.246 22.0781C157.952 22.0781 157.685 22.0286 157.445 21.9297C157.208 21.8281 157.004 21.6862 156.832 21.5039C156.663 21.3216 156.533 21.1055 156.441 20.8555C156.35 20.6055 156.305 20.332 156.305 20.0352V19.8711C156.305 19.5273 156.355 19.2214 156.457 18.9531C156.559 18.6823 156.697 18.4531 156.871 18.2656C157.046 18.0781 157.243 17.9362 157.465 17.8398C157.686 17.7435 157.915 17.6953 158.152 17.6953C158.454 17.6953 158.715 17.7474 158.934 17.8516C159.155 17.9557 159.336 18.1016 159.477 18.2891C159.617 18.474 159.721 18.6927 159.789 18.9453C159.857 19.1953 159.891 19.4688 159.891 19.7656V20.0898H156.734V19.5H159.168V19.4453C159.158 19.2578 159.118 19.0755 159.051 18.8984C158.986 18.7214 158.882 18.5755 158.738 18.4609C158.595 18.3464 158.4 18.2891 158.152 18.2891C157.988 18.2891 157.837 18.3242 157.699 18.3945C157.561 18.4622 157.443 18.5638 157.344 18.6992C157.245 18.8346 157.168 19 157.113 19.1953C157.059 19.3906 157.031 19.6159 157.031 19.8711V20.0352C157.031 20.2357 157.059 20.4245 157.113 20.6016C157.171 20.776 157.253 20.9297 157.359 21.0625C157.469 21.1953 157.6 21.2995 157.754 21.375C157.91 21.4505 158.087 21.4883 158.285 21.4883C158.54 21.4883 158.757 21.4362 158.934 21.332C159.111 21.2279 159.266 21.0885 159.398 20.9141L159.836 21.2617C159.745 21.3997 159.629 21.5312 159.488 21.6562C159.348 21.7812 159.174 21.8828 158.969 21.9609C158.766 22.0391 158.525 22.0781 158.246 22.0781ZM164.926 19.7695H163.406V19.1562H164.926C165.22 19.1562 165.458 19.1094 165.641 19.0156C165.823 18.9219 165.956 18.7917 166.039 18.625C166.125 18.4583 166.168 18.2682 166.168 18.0547C166.168 17.8594 166.125 17.6758 166.039 17.5039C165.956 17.332 165.823 17.194 165.641 17.0898C165.458 16.9831 165.22 16.9297 164.926 16.9297H163.582V22H162.828V16.3125H164.926C165.355 16.3125 165.719 16.3867 166.016 16.5352C166.312 16.6836 166.538 16.8893 166.691 17.1523C166.845 17.4128 166.922 17.7109 166.922 18.0469C166.922 18.4115 166.845 18.7227 166.691 18.9805C166.538 19.2383 166.312 19.4349 166.016 19.5703C165.719 19.7031 165.355 19.7695 164.926 19.7695ZM168.551 16V22H167.824V16H168.551ZM172.203 21.2773V19.1016C172.203 18.9349 172.169 18.7904 172.102 18.668C172.036 18.543 171.938 18.4466 171.805 18.3789C171.672 18.3112 171.508 18.2773 171.312 18.2773C171.13 18.2773 170.97 18.3086 170.832 18.3711C170.697 18.4336 170.59 18.5156 170.512 18.6172C170.436 18.7188 170.398 18.8281 170.398 18.9453H169.676C169.676 18.7943 169.715 18.6445 169.793 18.4961C169.871 18.3477 169.983 18.2135 170.129 18.0938C170.277 17.9714 170.454 17.875 170.66 17.8047C170.868 17.7318 171.1 17.6953 171.355 17.6953C171.663 17.6953 171.934 17.7474 172.168 17.8516C172.405 17.9557 172.59 18.1133 172.723 18.3242C172.858 18.5326 172.926 18.7943 172.926 19.1094V21.0781C172.926 21.2188 172.938 21.3685 172.961 21.5273C172.987 21.6862 173.025 21.8229 173.074 21.9375V22H172.32C172.284 21.9167 172.255 21.806 172.234 21.668C172.214 21.5273 172.203 21.3971 172.203 21.2773ZM172.328 19.4375L172.336 19.9453H171.605C171.4 19.9453 171.216 19.9622 171.055 19.9961C170.893 20.0273 170.758 20.0755 170.648 20.1406C170.539 20.2057 170.456 20.2878 170.398 20.3867C170.341 20.4831 170.312 20.5964 170.312 20.7266C170.312 20.8594 170.342 20.9805 170.402 21.0898C170.462 21.1992 170.552 21.2865 170.672 21.3516C170.794 21.4141 170.944 21.4453 171.121 21.4453C171.342 21.4453 171.538 21.3984 171.707 21.3047C171.876 21.2109 172.01 21.0964 172.109 20.9609C172.211 20.8255 172.266 20.694 172.273 20.5664L172.582 20.9141C172.564 21.0234 172.514 21.1445 172.434 21.2773C172.353 21.4102 172.245 21.5378 172.109 21.6602C171.977 21.7799 171.818 21.8802 171.633 21.9609C171.451 22.0391 171.245 22.0781 171.016 22.0781C170.729 22.0781 170.478 22.0221 170.262 21.9102C170.048 21.7982 169.882 21.6484 169.762 21.4609C169.645 21.2708 169.586 21.0586 169.586 20.8242C169.586 20.5977 169.63 20.3984 169.719 20.2266C169.807 20.0521 169.935 19.9076 170.102 19.793C170.268 19.6758 170.469 19.5872 170.703 19.5273C170.938 19.4674 171.199 19.4375 171.488 19.4375H172.328ZM174.785 18.6758V22H174.062V17.7734H174.746L174.785 18.6758ZM174.613 19.7266L174.312 19.7148C174.315 19.4258 174.358 19.1589 174.441 18.9141C174.525 18.6667 174.642 18.4518 174.793 18.2695C174.944 18.0872 175.124 17.9466 175.332 17.8477C175.543 17.7461 175.776 17.6953 176.031 17.6953C176.24 17.6953 176.427 17.724 176.594 17.7812C176.76 17.8359 176.902 17.9245 177.02 18.0469C177.139 18.1693 177.23 18.3281 177.293 18.5234C177.355 18.7161 177.387 18.9518 177.387 19.2305V22H176.66V19.2227C176.66 19.0013 176.628 18.8242 176.562 18.6914C176.497 18.556 176.402 18.4583 176.277 18.3984C176.152 18.3359 175.999 18.3047 175.816 18.3047C175.637 18.3047 175.473 18.3424 175.324 18.418C175.178 18.4935 175.052 18.5977 174.945 18.7305C174.841 18.8633 174.759 19.0156 174.699 19.1875C174.642 19.3568 174.613 19.5365 174.613 19.7266Z" fill="#808080"/>
<path d="M198.953 16.8164L197.07 22H196.301L198.469 16.3125H198.965L198.953 16.8164ZM200.531 22L198.645 16.8164L198.633 16.3125H199.129L201.305 22H200.531ZM200.434 19.8945V20.5117H197.238V19.8945H200.434ZM204.621 21.1797V16H205.348V22H204.684L204.621 21.1797ZM201.777 19.9336V19.8516C201.777 19.5286 201.816 19.2357 201.895 18.9727C201.975 18.707 202.089 18.4792 202.234 18.2891C202.383 18.099 202.559 17.9531 202.762 17.8516C202.967 17.7474 203.197 17.6953 203.449 17.6953C203.715 17.6953 203.947 17.7422 204.145 17.8359C204.345 17.9271 204.514 18.0612 204.652 18.2383C204.793 18.4128 204.904 18.6237 204.984 18.8711C205.065 19.1185 205.121 19.3984 205.152 19.7109V20.0703C205.124 20.3802 205.068 20.6589 204.984 20.9062C204.904 21.1536 204.793 21.3646 204.652 21.5391C204.514 21.7135 204.345 21.8477 204.145 21.9414C203.944 22.0326 203.71 22.0781 203.441 22.0781C203.194 22.0781 202.967 22.0247 202.762 21.918C202.559 21.8112 202.383 21.6615 202.234 21.4688C202.089 21.276 201.975 21.0495 201.895 20.7891C201.816 20.526 201.777 20.2409 201.777 19.9336ZM202.504 19.8516V19.9336C202.504 20.1445 202.525 20.3424 202.566 20.5273C202.611 20.7122 202.678 20.875 202.77 21.0156C202.861 21.1562 202.977 21.2669 203.117 21.3477C203.258 21.4258 203.426 21.4648 203.621 21.4648C203.861 21.4648 204.057 21.4141 204.211 21.3125C204.367 21.2109 204.492 21.0768 204.586 20.9102C204.68 20.7435 204.753 20.5625 204.805 20.3672V19.4258C204.773 19.2826 204.728 19.1445 204.668 19.0117C204.611 18.8763 204.535 18.7565 204.441 18.6523C204.35 18.5456 204.237 18.4609 204.102 18.3984C203.969 18.3359 203.811 18.3047 203.629 18.3047C203.431 18.3047 203.26 18.3464 203.117 18.4297C202.977 18.5104 202.861 18.6224 202.77 18.7656C202.678 18.9062 202.611 19.0703 202.566 19.2578C202.525 19.4427 202.504 19.6406 202.504 19.8516ZM209.137 21.1797V16H209.863V22H209.199L209.137 21.1797ZM206.293 19.9336V19.8516C206.293 19.5286 206.332 19.2357 206.41 18.9727C206.491 18.707 206.604 18.4792 206.75 18.2891C206.898 18.099 207.074 17.9531 207.277 17.8516C207.483 17.7474 207.712 17.6953 207.965 17.6953C208.23 17.6953 208.462 17.7422 208.66 17.8359C208.861 17.9271 209.03 18.0612 209.168 18.2383C209.309 18.4128 209.419 18.6237 209.5 18.8711C209.581 19.1185 209.637 19.3984 209.668 19.7109V20.0703C209.639 20.3802 209.583 20.6589 209.5 20.9062C209.419 21.1536 209.309 21.3646 209.168 21.5391C209.03 21.7135 208.861 21.8477 208.66 21.9414C208.46 22.0326 208.225 22.0781 207.957 22.0781C207.71 22.0781 207.483 22.0247 207.277 21.918C207.074 21.8112 206.898 21.6615 206.75 21.4688C206.604 21.276 206.491 21.0495 206.41 20.7891C206.332 20.526 206.293 20.2409 206.293 19.9336ZM207.02 19.8516V19.9336C207.02 20.1445 207.04 20.3424 207.082 20.5273C207.126 20.7122 207.194 20.875 207.285 21.0156C207.376 21.1562 207.492 21.2669 207.633 21.3477C207.773 21.4258 207.941 21.4648 208.137 21.4648C208.376 21.4648 208.573 21.4141 208.727 21.3125C208.883 21.2109 209.008 21.0768 209.102 20.9102C209.195 20.7435 209.268 20.5625 209.32 20.3672V19.4258C209.289 19.2826 209.243 19.1445 209.184 19.0117C209.126 18.8763 209.051 18.7565 208.957 18.6523C208.866 18.5456 208.753 18.4609 208.617 18.3984C208.484 18.3359 208.327 18.3047 208.145 18.3047C207.947 18.3047 207.776 18.3464 207.633 18.4297C207.492 18.5104 207.376 18.6224 207.285 18.7656C207.194 18.9062 207.126 19.0703 207.082 19.2578C207.04 19.4427 207.02 19.6406 207.02 19.8516ZM215.188 16.8164L213.305 22H212.535L214.703 16.3125H215.199L215.188 16.8164ZM216.766 22L214.879 16.8164L214.867 16.3125H215.363L217.539 22H216.766ZM216.668 19.8945V20.5117H213.473V19.8945H216.668ZM220.855 21.1797V16H221.582V22H220.918L220.855 21.1797ZM218.012 19.9336V19.8516C218.012 19.5286 218.051 19.2357 218.129 18.9727C218.21 18.707 218.323 18.4792 218.469 18.2891C218.617 18.099 218.793 17.9531 218.996 17.8516C219.202 17.7474 219.431 17.6953 219.684 17.6953C219.949 17.6953 220.181 17.7422 220.379 17.8359C220.579 17.9271 220.749 18.0612 220.887 18.2383C221.027 18.4128 221.138 18.6237 221.219 18.8711C221.299 19.1185 221.355 19.3984 221.387 19.7109V20.0703C221.358 20.3802 221.302 20.6589 221.219 20.9062C221.138 21.1536 221.027 21.3646 220.887 21.5391C220.749 21.7135 220.579 21.8477 220.379 21.9414C220.178 22.0326 219.944 22.0781 219.676 22.0781C219.428 22.0781 219.202 22.0247 218.996 21.918C218.793 21.8112 218.617 21.6615 218.469 21.4688C218.323 21.276 218.21 21.0495 218.129 20.7891C218.051 20.526 218.012 20.2409 218.012 19.9336ZM218.738 19.8516V19.9336C218.738 20.1445 218.759 20.3424 218.801 20.5273C218.845 20.7122 218.913 20.875 219.004 21.0156C219.095 21.1562 219.211 21.2669 219.352 21.3477C219.492 21.4258 219.66 21.4648 219.855 21.4648C220.095 21.4648 220.292 21.4141 220.445 21.3125C220.602 21.2109 220.727 21.0768 220.82 20.9102C220.914 20.7435 220.987 20.5625 221.039 20.3672V19.4258C221.008 19.2826 220.962 19.1445 220.902 19.0117C220.845 18.8763 220.77 18.7565 220.676 18.6523C220.585 18.5456 220.471 18.4609 220.336 18.3984C220.203 18.3359 220.046 18.3047 219.863 18.3047C219.665 18.3047 219.495 18.3464 219.352 18.4297C219.211 18.5104 219.095 18.6224 219.004 18.7656C218.913 18.9062 218.845 19.0703 218.801 19.2578C218.759 19.4427 218.738 19.6406 218.738 19.8516ZM225.371 21.1797V16H226.098V22H225.434L225.371 21.1797ZM222.527 19.9336V19.8516C222.527 19.5286 222.566 19.2357 222.645 18.9727C222.725 18.707 222.839 18.4792 222.984 18.2891C223.133 18.099 223.309 17.9531 223.512 17.8516C223.717 17.7474 223.947 17.6953 224.199 17.6953C224.465 17.6953 224.697 17.7422 224.895 17.8359C225.095 17.9271 225.264 18.0612 225.402 18.2383C225.543 18.4128 225.654 18.6237 225.734 18.8711C225.815 19.1185 225.871 19.3984 225.902 19.7109V20.0703C225.874 20.3802 225.818 20.6589 225.734 20.9062C225.654 21.1536 225.543 21.3646 225.402 21.5391C225.264 21.7135 225.095 21.8477 224.895 21.9414C224.694 22.0326 224.46 22.0781 224.191 22.0781C223.944 22.0781 223.717 22.0247 223.512 21.918C223.309 21.8112 223.133 21.6615 222.984 21.4688C222.839 21.276 222.725 21.0495 222.645 20.7891C222.566 20.526 222.527 20.2409 222.527 19.9336ZM223.254 19.8516V19.9336C223.254 20.1445 223.275 20.3424 223.316 20.5273C223.361 20.7122 223.428 20.875 223.52 21.0156C223.611 21.1562 223.727 21.2669 223.867 21.3477C224.008 21.4258 224.176 21.4648 224.371 21.4648C224.611 21.4648 224.807 21.4141 224.961 21.3125C225.117 21.2109 225.242 21.0768 225.336 20.9102C225.43 20.7435 225.503 20.5625 225.555 20.3672V19.4258C225.523 19.2826 225.478 19.1445 225.418 19.0117C225.361 18.8763 225.285 18.7565 225.191 18.6523C225.1 18.5456 224.987 18.4609 224.852 18.3984C224.719 18.3359 224.561 18.3047 224.379 18.3047C224.181 18.3047 224.01 18.3464 223.867 18.4297C223.727 18.5104 223.611 18.6224 223.52 18.7656C223.428 18.9062 223.361 19.0703 223.316 19.2578C223.275 19.4427 223.254 19.6406 223.254 19.8516ZM227.945 18.4375V22H227.223V17.7734H227.926L227.945 18.4375ZM229.266 17.75L229.262 18.4219C229.202 18.4089 229.145 18.401 229.09 18.3984C229.038 18.3932 228.978 18.3906 228.91 18.3906C228.743 18.3906 228.596 18.4167 228.469 18.4688C228.341 18.5208 228.233 18.5938 228.145 18.6875C228.056 18.7812 227.986 18.8932 227.934 19.0234C227.884 19.151 227.852 19.2917 227.836 19.4453L227.633 19.5625C227.633 19.3073 227.658 19.0677 227.707 18.8438C227.759 18.6198 227.839 18.4219 227.945 18.25C228.052 18.0755 228.188 17.9401 228.352 17.8438C228.518 17.7448 228.716 17.6953 228.945 17.6953C228.997 17.6953 229.057 17.7018 229.125 17.7148C229.193 17.7253 229.24 17.737 229.266 17.75ZM231.609 22.0781C231.315 22.0781 231.048 22.0286 230.809 21.9297C230.572 21.8281 230.367 21.6862 230.195 21.5039C230.026 21.3216 229.896 21.1055 229.805 20.8555C229.714 20.6055 229.668 20.332 229.668 20.0352V19.8711C229.668 19.5273 229.719 19.2214 229.82 18.9531C229.922 18.6823 230.06 18.4531 230.234 18.2656C230.409 18.0781 230.607 17.9362 230.828 17.8398C231.049 17.7435 231.279 17.6953 231.516 17.6953C231.818 17.6953 232.078 17.7474 232.297 17.8516C232.518 17.9557 232.699 18.1016 232.84 18.2891C232.98 18.474 233.085 18.6927 233.152 18.9453C233.22 19.1953 233.254 19.4688 233.254 19.7656V20.0898H230.098V19.5H232.531V19.4453C232.521 19.2578 232.482 19.0755 232.414 18.8984C232.349 18.7214 232.245 18.5755 232.102 18.4609C231.958 18.3464 231.763 18.2891 231.516 18.2891C231.352 18.2891 231.201 18.3242 231.062 18.3945C230.924 18.4622 230.806 18.5638 230.707 18.6992C230.608 18.8346 230.531 19 230.477 19.1953C230.422 19.3906 230.395 19.6159 230.395 19.8711V20.0352C230.395 20.2357 230.422 20.4245 230.477 20.6016C230.534 20.776 230.616 20.9297 230.723 21.0625C230.832 21.1953 230.964 21.2995 231.117 21.375C231.273 21.4505 231.451 21.4883 231.648 21.4883C231.904 21.4883 232.12 21.4362 232.297 21.332C232.474 21.2279 232.629 21.0885 232.762 20.9141L233.199 21.2617C233.108 21.3997 232.992 21.5312 232.852 21.6562C232.711 21.7812 232.538 21.8828 232.332 21.9609C232.129 22.0391 231.888 22.0781 231.609 22.0781ZM236.559 20.8789C236.559 20.7747 236.535 20.6784 236.488 20.5898C236.444 20.4987 236.352 20.4167 236.211 20.3438C236.073 20.2682 235.865 20.2031 235.586 20.1484C235.352 20.099 235.139 20.0404 234.949 19.9727C234.762 19.9049 234.602 19.8229 234.469 19.7266C234.339 19.6302 234.238 19.5169 234.168 19.3867C234.098 19.2565 234.062 19.1042 234.062 18.9297C234.062 18.763 234.099 18.6055 234.172 18.457C234.247 18.3086 234.353 18.1771 234.488 18.0625C234.626 17.9479 234.792 17.8581 234.984 17.793C235.177 17.7279 235.392 17.6953 235.629 17.6953C235.967 17.6953 236.257 17.7552 236.496 17.875C236.736 17.9948 236.919 18.1549 237.047 18.3555C237.174 18.5534 237.238 18.7734 237.238 19.0156H236.516C236.516 18.8984 236.48 18.7852 236.41 18.6758C236.342 18.5638 236.242 18.4714 236.109 18.3984C235.979 18.3255 235.819 18.2891 235.629 18.2891C235.428 18.2891 235.266 18.3203 235.141 18.3828C235.018 18.4427 234.928 18.5195 234.871 18.6133C234.816 18.707 234.789 18.806 234.789 18.9102C234.789 18.9883 234.802 19.0586 234.828 19.1211C234.857 19.181 234.906 19.237 234.977 19.2891C235.047 19.3385 235.146 19.3854 235.273 19.4297C235.401 19.474 235.564 19.5182 235.762 19.5625C236.108 19.6406 236.393 19.7344 236.617 19.8438C236.841 19.9531 237.008 20.0872 237.117 20.2461C237.227 20.4049 237.281 20.5977 237.281 20.8242C237.281 21.0091 237.242 21.1784 237.164 21.332C237.089 21.4857 236.978 21.6185 236.832 21.7305C236.689 21.8398 236.517 21.9258 236.316 21.9883C236.118 22.0482 235.896 22.0781 235.648 22.0781C235.276 22.0781 234.961 22.0117 234.703 21.8789C234.445 21.7461 234.25 21.5742 234.117 21.3633C233.984 21.1523 233.918 20.9297 233.918 20.6953H234.645C234.655 20.8932 234.712 21.0508 234.816 21.168C234.921 21.2826 235.048 21.3646 235.199 21.4141C235.35 21.4609 235.5 21.4844 235.648 21.4844C235.846 21.4844 236.012 21.4583 236.145 21.4062C236.28 21.3542 236.383 21.2826 236.453 21.1914C236.523 21.1003 236.559 20.9961 236.559 20.8789ZM240.691 20.8789C240.691 20.7747 240.668 20.6784 240.621 20.5898C240.577 20.4987 240.484 20.4167 240.344 20.3438C240.206 20.2682 239.997 20.2031 239.719 20.1484C239.484 20.099 239.272 20.0404 239.082 19.9727C238.895 19.9049 238.734 19.8229 238.602 19.7266C238.471 19.6302 238.371 19.5169 238.301 19.3867C238.23 19.2565 238.195 19.1042 238.195 18.9297C238.195 18.763 238.232 18.6055 238.305 18.457C238.38 18.3086 238.486 18.1771 238.621 18.0625C238.759 17.9479 238.924 17.8581 239.117 17.793C239.31 17.7279 239.525 17.6953 239.762 17.6953C240.1 17.6953 240.389 17.7552 240.629 17.875C240.868 17.9948 241.052 18.1549 241.18 18.3555C241.307 18.5534 241.371 18.7734 241.371 19.0156H240.648C240.648 18.8984 240.613 18.7852 240.543 18.6758C240.475 18.5638 240.375 18.4714 240.242 18.3984C240.112 18.3255 239.952 18.2891 239.762 18.2891C239.561 18.2891 239.398 18.3203 239.273 18.3828C239.151 18.4427 239.061 18.5195 239.004 18.6133C238.949 18.707 238.922 18.806 238.922 18.9102C238.922 18.9883 238.935 19.0586 238.961 19.1211C238.99 19.181 239.039 19.237 239.109 19.2891C239.18 19.3385 239.279 19.3854 239.406 19.4297C239.534 19.474 239.697 19.5182 239.895 19.5625C240.241 19.6406 240.526 19.7344 240.75 19.8438C240.974 19.9531 241.141 20.0872 241.25 20.2461C241.359 20.4049 241.414 20.5977 241.414 20.8242C241.414 21.0091 241.375 21.1784 241.297 21.332C241.221 21.4857 241.111 21.6185 240.965 21.7305C240.822 21.8398 240.65 21.9258 240.449 21.9883C240.251 22.0482 240.029 22.0781 239.781 22.0781C239.409 22.0781 239.094 22.0117 238.836 21.8789C238.578 21.7461 238.383 21.5742 238.25 21.3633C238.117 21.1523 238.051 20.9297 238.051 20.6953H238.777C238.788 20.8932 238.845 21.0508 238.949 21.168C239.053 21.2826 239.181 21.3646 239.332 21.4141C239.483 21.4609 239.633 21.4844 239.781 21.4844C239.979 21.4844 240.145 21.4583 240.277 21.4062C240.413 21.3542 240.516 21.2826 240.586 21.1914C240.656 21.1003 240.691 20.9961 240.691 20.8789Z" fill="#808080"/>
<path d="M275.457 22H274.27L274.277 21.3867H275.457C275.863 21.3867 276.202 21.3021 276.473 21.1328C276.743 20.9609 276.947 20.7214 277.082 20.4141C277.22 20.1042 277.289 19.7422 277.289 19.3281V18.9805C277.289 18.6549 277.25 18.3659 277.172 18.1133C277.094 17.8581 276.979 17.6432 276.828 17.4688C276.677 17.2917 276.492 17.1576 276.273 17.0664C276.057 16.9753 275.809 16.9297 275.527 16.9297H274.246V16.3125H275.527C275.9 16.3125 276.24 16.375 276.547 16.5C276.854 16.6224 277.118 16.8008 277.34 17.0352C277.564 17.2669 277.736 17.5482 277.855 17.8789C277.975 18.207 278.035 18.5768 278.035 18.9883V19.3281C278.035 19.7396 277.975 20.1107 277.855 20.4414C277.736 20.7695 277.562 21.0495 277.336 21.2812C277.112 21.513 276.841 21.6914 276.523 21.8164C276.208 21.9388 275.853 22 275.457 22ZM274.672 16.3125V22H273.918V16.3125H274.672ZM280.812 22.0781C280.518 22.0781 280.251 22.0286 280.012 21.9297C279.775 21.8281 279.57 21.6862 279.398 21.5039C279.229 21.3216 279.099 21.1055 279.008 20.8555C278.917 20.6055 278.871 20.332 278.871 20.0352V19.8711C278.871 19.5273 278.922 19.2214 279.023 18.9531C279.125 18.6823 279.263 18.4531 279.438 18.2656C279.612 18.0781 279.81 17.9362 280.031 17.8398C280.253 17.7435 280.482 17.6953 280.719 17.6953C281.021 17.6953 281.281 17.7474 281.5 17.8516C281.721 17.9557 281.902 18.1016 282.043 18.2891C282.184 18.474 282.288 18.6927 282.355 18.9453C282.423 19.1953 282.457 19.4688 282.457 19.7656V20.0898H279.301V19.5H281.734V19.4453C281.724 19.2578 281.685 19.0755 281.617 18.8984C281.552 18.7214 281.448 18.5755 281.305 18.4609C281.161 18.3464 280.966 18.2891 280.719 18.2891C280.555 18.2891 280.404 18.3242 280.266 18.3945C280.128 18.4622 280.009 18.5638 279.91 18.6992C279.811 18.8346 279.734 19 279.68 19.1953C279.625 19.3906 279.598 19.6159 279.598 19.8711V20.0352C279.598 20.2357 279.625 20.4245 279.68 20.6016C279.737 20.776 279.819 20.9297 279.926 21.0625C280.035 21.1953 280.167 21.2995 280.32 21.375C280.477 21.4505 280.654 21.4883 280.852 21.4883C281.107 21.4883 281.323 21.4362 281.5 21.332C281.677 21.2279 281.832 21.0885 281.965 20.9141L282.402 21.2617C282.311 21.3997 282.195 21.5312 282.055 21.6562C281.914 21.7812 281.741 21.8828 281.535 21.9609C281.332 22.0391 281.091 22.0781 280.812 22.0781ZM285.07 17.7734V18.3281H282.785V17.7734H285.07ZM283.559 16.7461H284.281V20.9531C284.281 21.0964 284.303 21.2044 284.348 21.2773C284.392 21.3503 284.449 21.3984 284.52 21.4219C284.59 21.4453 284.665 21.457 284.746 21.457C284.806 21.457 284.868 21.4518 284.934 21.4414C285.001 21.4284 285.052 21.418 285.086 21.4102L285.09 22C285.033 22.0182 284.957 22.0352 284.863 22.0508C284.772 22.069 284.661 22.0781 284.531 22.0781C284.354 22.0781 284.191 22.043 284.043 21.9727C283.895 21.9023 283.776 21.7852 283.688 21.6211C283.602 21.4544 283.559 21.2305 283.559 20.9492V16.7461ZM288.41 21.2773V19.1016C288.41 18.9349 288.376 18.7904 288.309 18.668C288.243 18.543 288.145 18.4466 288.012 18.3789C287.879 18.3112 287.715 18.2773 287.52 18.2773C287.337 18.2773 287.177 18.3086 287.039 18.3711C286.904 18.4336 286.797 18.5156 286.719 18.6172C286.643 18.7188 286.605 18.8281 286.605 18.9453H285.883C285.883 18.7943 285.922 18.6445 286 18.4961C286.078 18.3477 286.19 18.2135 286.336 18.0938C286.484 17.9714 286.661 17.875 286.867 17.8047C287.076 17.7318 287.307 17.6953 287.562 17.6953C287.87 17.6953 288.141 17.7474 288.375 17.8516C288.612 17.9557 288.797 18.1133 288.93 18.3242C289.065 18.5326 289.133 18.7943 289.133 19.1094V21.0781C289.133 21.2188 289.145 21.3685 289.168 21.5273C289.194 21.6862 289.232 21.8229 289.281 21.9375V22H288.527C288.491 21.9167 288.462 21.806 288.441 21.668C288.421 21.5273 288.41 21.3971 288.41 21.2773ZM288.535 19.4375L288.543 19.9453H287.812C287.607 19.9453 287.423 19.9622 287.262 19.9961C287.1 20.0273 286.965 20.0755 286.855 20.1406C286.746 20.2057 286.663 20.2878 286.605 20.3867C286.548 20.4831 286.52 20.5964 286.52 20.7266C286.52 20.8594 286.549 20.9805 286.609 21.0898C286.669 21.1992 286.759 21.2865 286.879 21.3516C287.001 21.4141 287.151 21.4453 287.328 21.4453C287.549 21.4453 287.745 21.3984 287.914 21.3047C288.083 21.2109 288.217 21.0964 288.316 20.9609C288.418 20.8255 288.473 20.694 288.48 20.5664L288.789 20.9141C288.771 21.0234 288.721 21.1445 288.641 21.2773C288.56 21.4102 288.452 21.5378 288.316 21.6602C288.184 21.7799 288.025 21.8802 287.84 21.9609C287.658 22.0391 287.452 22.0781 287.223 22.0781C286.936 22.0781 286.685 22.0221 286.469 21.9102C286.255 21.7982 286.089 21.6484 285.969 21.4609C285.852 21.2708 285.793 21.0586 285.793 20.8242C285.793 20.5977 285.837 20.3984 285.926 20.2266C286.014 20.0521 286.142 19.9076 286.309 19.793C286.475 19.6758 286.676 19.5872 286.91 19.5273C287.145 19.4674 287.406 19.4375 287.695 19.4375H288.535ZM291.055 17.7734V22H290.328V17.7734H291.055ZM290.273 16.6523C290.273 16.5352 290.309 16.4362 290.379 16.3555C290.452 16.2747 290.559 16.2344 290.699 16.2344C290.837 16.2344 290.943 16.2747 291.016 16.3555C291.091 16.4362 291.129 16.5352 291.129 16.6523C291.129 16.7643 291.091 16.8607 291.016 16.9414C290.943 17.0195 290.837 17.0586 290.699 17.0586C290.559 17.0586 290.452 17.0195 290.379 16.9414C290.309 16.8607 290.273 16.7643 290.273 16.6523ZM293 16V22H292.273V16H293ZM296.621 20.8789C296.621 20.7747 296.598 20.6784 296.551 20.5898C296.507 20.4987 296.414 20.4167 296.273 20.3438C296.135 20.2682 295.927 20.2031 295.648 20.1484C295.414 20.099 295.202 20.0404 295.012 19.9727C294.824 19.9049 294.664 19.8229 294.531 19.7266C294.401 19.6302 294.301 19.5169 294.23 19.3867C294.16 19.2565 294.125 19.1042 294.125 18.9297C294.125 18.763 294.161 18.6055 294.234 18.457C294.31 18.3086 294.415 18.1771 294.551 18.0625C294.689 17.9479 294.854 17.8581 295.047 17.793C295.24 17.7279 295.454 17.6953 295.691 17.6953C296.03 17.6953 296.319 17.7552 296.559 17.875C296.798 17.9948 296.982 18.1549 297.109 18.3555C297.237 18.5534 297.301 18.7734 297.301 19.0156H296.578C296.578 18.8984 296.543 18.7852 296.473 18.6758C296.405 18.5638 296.305 18.4714 296.172 18.3984C296.042 18.3255 295.882 18.2891 295.691 18.2891C295.491 18.2891 295.328 18.3203 295.203 18.3828C295.081 18.4427 294.991 18.5195 294.934 18.6133C294.879 18.707 294.852 18.806 294.852 18.9102C294.852 18.9883 294.865 19.0586 294.891 19.1211C294.919 19.181 294.969 19.237 295.039 19.2891C295.109 19.3385 295.208 19.3854 295.336 19.4297C295.464 19.474 295.626 19.5182 295.824 19.5625C296.171 19.6406 296.456 19.7344 296.68 19.8438C296.904 19.9531 297.07 20.0872 297.18 20.2461C297.289 20.4049 297.344 20.5977 297.344 20.8242C297.344 21.0091 297.305 21.1784 297.227 21.332C297.151 21.4857 297.04 21.6185 296.895 21.7305C296.751 21.8398 296.579 21.9258 296.379 21.9883C296.181 22.0482 295.958 22.0781 295.711 22.0781C295.339 22.0781 295.023 22.0117 294.766 21.8789C294.508 21.7461 294.312 21.5742 294.18 21.3633C294.047 21.1523 293.98 20.9297 293.98 20.6953H294.707C294.717 20.8932 294.775 21.0508 294.879 21.168C294.983 21.2826 295.111 21.3646 295.262 21.4141C295.413 21.4609 295.562 21.4844 295.711 21.4844C295.909 21.4844 296.074 21.4583 296.207 21.4062C296.342 21.3542 296.445 21.2826 296.516 21.1914C296.586 21.1003 296.621 20.9961 296.621 20.8789Z" fill="#808080"/>
<rect x="18" y="4" width="266" height="1" fill="#808080"/>
<circle cx="21" cy="5" r="5" fill="#FFA142"/>
<circle cx="285" cy="5" r="5" fill="#808080"/>
<circle cx="83" cy="5" r="5" fill="#808080"/>
<circle cx="219" cy="5" r="5" fill="#808080"/>
<circle cx="155" cy="5" r="5" fill="#808080"/>
</svg>
